HubotSans-RegularWideItalic.ufo
<glyph name="exclam" format="2">
  <advance width="212"/>
  <unicode hex="0021"/>
  <outline>
    <contour>
      <point x="72" y="204" type="line"/>
      <point x="116" y="204" type="line"/>
      <point x="196" y="489" type="line"/>
      <point x="247" y="729" type="line"/>
      <point x="163" y="729" type="line"/>
      <point x="111" y="489" type="line"/>
    </contour>
    <contour>
      <point x="8" y="0" type="line"/>
      <point x="95" y="0" type="line"/>
      <point x="115" y="98" type="line"/>
      <point x="28" y="98" type="line"/>
    </contour>
  </outline>
</glyph>
<glyph name="numbersign" format="2">
  <advance width="730"/>
  <unicode hex="0023"/>
  <outline>
    <contour>
      <point x="120" y="0" type="line"/>
      <point x="198" y="0" type="line"/>
      <point x="240" y="199" type="line"/>
      <point x="469" y="199" type="line"/>
      <point x="427" y="0" type="line"/>
      <point x="504" y="0" type="line"/>
      <point x="546" y="199" type="line"/>
      <point x="685" y="199" type="line"/>
      <point x="701" y="273" type="line"/>
      <point x="562" y="273" type="line"/>
      <point x="604" y="472" type="line"/>
      <point x="744" y="472" type="line"/>
      <point x="759" y="544" type="line"/>
      <point x="619" y="544" type="line"/>
      <point x="658" y="729" type="line"/>
      <point x="581" y="729" type="line"/>
      <point x="542" y="544" type="line"/>
      <point x="314" y="544" type="line"/>
      <point x="353" y="729" type="line"/>
      <point x="274" y="729" type="line"/>
      <point x="235" y="544" type="line"/>
      <point x="92" y="544" type="line"/>
      <point x="77" y="472" type="line"/>
      <point x="220" y="472" type="line"/>
      <point x="178" y="273" type="line"/>
      <point x="34" y="273" type="line"/>
      <point x="18" y="199" type="line"/>
      <point x="162" y="199" type="line"/>
    </contour>
    <contour>
      <point x="256" y="273" type="line"/>
      <point x="299" y="472" type="line"/>
      <point x="527" y="472" type="line"/>
      <point x="483" y="273" type="line"/>
    </contour>
  </outline>
</glyph>
<glyph name="ampersand" format="2">
  <advance width="806"/>
  <unicode hex="0026"/>
  <outline>
    <contour>
      <point x="235" y="-11" type="curve" smooth="yes"/>
      <point x="333" y="-11"/>
      <point x="435" y="27"/>
      <point x="495" y="103" type="curve"/>
      <point x="589" y="0" type="line"/>
      <point x="712" y="0" type="line"/>
      <point x="549" y="176" type="line"/>
      <point x="568" y="205"/>
      <point x="584" y="239"/>
      <point x="594" y="277" type="curve"/>
      <point x="735" y="277" type="line"/>
      <point x="750" y="347" type="line"/>
      <point x="539" y="347" type="line"/>
      <point x="531" y="317" type="line" smooth="yes"/>
      <point x="524" y="285"/>
      <point x="514" y="259"/>
      <point x="499" y="230" type="curve"/>
      <point x="366" y="373" type="line"/>
      <point x="488" y="418"/>
      <point x="545" y="465"/>
      <point x="560" y="535" type="curve" smooth="yes"/>
      <point x="563" y="553" type="line" smooth="yes"/>
      <point x="586" y="665"/>
      <point x="505" y="741"/>
      <point x="378" y="741" type="curve" smooth="yes"/>
      <point x="279" y="741"/>
      <point x="190" y="693"/>
      <point x="172" y="598" type="curve" smooth="yes"/>
      <point x="169" y="578" type="line" smooth="yes"/>
      <point x="156" y="508"/>
      <point x="187" y="452"/>
      <point x="235" y="398" type="curve"/>
      <point x="233" y="389" type="line"/>
      <point x="132" y="351"/>
      <point x="50" y="293"/>
      <point x="33" y="208" type="curve" smooth="yes"/>
      <point x="30" y="191" type="line" smooth="yes"/>
      <point x="4" y="67"/>
      <point x="98" y="-11"/>
    </contour>
    <contour>
      <point x="255" y="62" type="curve" smooth="yes"/>
      <point x="163" y="62"/>
      <point x="110" y="113"/>
      <point x="124" y="190" type="curve" smooth="yes"/>
      <point x="126" y="204" type="line" smooth="yes"/>
      <point x="135" y="253"/>
      <point x="176" y="299"/>
      <point x="279" y="342" type="curve"/>
      <point x="445" y="158" type="line"/>
      <point x="406" y="99"/>
      <point x="333" y="62"/>
    </contour>
    <contour>
      <point x="323" y="418" type="curve"/>
      <point x="277" y="469"/>
      <point x="244" y="510"/>
      <point x="255" y="568" type="curve" smooth="yes"/>
      <point x="259" y="587" type="line" smooth="yes"/>
      <point x="269" y="639"/>
      <point x="308" y="674"/>
      <point x="378" y="674" type="curve" smooth="yes"/>
      <point x="455" y="674"/>
      <point x="496" y="628"/>
      <point x="482" y="559" type="curve" smooth="yes"/>
      <point x="478" y="542" type="line" smooth="yes"/>
      <point x="467" y="487"/>
      <point x="423" y="457"/>
    </contour>
  </outline>
</glyph>
<glyph name="quotesingle" format="2">
  <advance width="162"/>
  <unicode hex="0027"/>
  <anchor x="-26" y="0" name="#entry"/>
  <anchor x="160" y="0" name="#exit"/>
  <outline>
    <contour>
      <point x="93" y="416" type="line"/>
      <point x="131" y="416" type="line"/>
      <point x="187" y="586" type="line"/>
      <point x="218" y="729" type="line"/>
      <point x="142" y="729" type="line"/>
      <point x="112" y="586" type="line"/>
    </contour>
  </outline>
</glyph>
<glyph name="parenleft" format="2">
  <advance width="335"/>
  <unicode hex="0028"/>
  <outline>
    <contour>
      <point x="144" y="-167" type="curve"/>
      <point x="212" y="-167" type="line"/>
      <point x="160" y="-87"/>
      <point x="127" y="29"/>
      <point x="127" y="162" type="curve" smooth="yes"/>
      <point x="127" y="364"/>
      <point x="213" y="637"/>
      <point x="411" y="793" type="curve"/>
      <point x="331" y="793" type="line"/>
      <point x="132" y="651"/>
      <point x="46" y="384"/>
      <point x="46" y="182" type="curve" smooth="yes"/>
      <point x="46" y="49"/>
      <point x="79" y="-78"/>
    </contour>
  </outline>
</glyph>
<glyph name="asterisk" format="2">
  <advance width="323"/>
  <unicode hex="002A"/>
  <outline>
    <contour>
      <point x="206" y="433" type="line"/>
      <point x="251" y="433" type="line"/>
      <point x="251" y="488" type="line"/>
      <point x="240" y="559" type="line"/>
      <point x="297" y="512" type="line"/>
      <point x="346" y="486" type="line"/>
      <point x="368" y="528" type="line"/>
      <point x="320" y="555" type="line"/>
      <point x="255" y="582" type="line"/>
      <point x="320" y="607" type="line"/>
      <point x="367" y="635" type="line"/>
      <point x="346" y="676" type="line"/>
      <point x="297" y="650" type="line"/>
      <point x="240" y="605" type="line"/>
      <point x="251" y="674" type="line"/>
      <point x="251" y="729" type="line"/>
      <point x="206" y="729" type="line"/>
      <point x="206" y="674" type="line"/>
      <point x="217" y="605" type="line"/>
      <point x="162" y="650" type="line"/>
      <point x="111" y="676" type="line"/>
      <point x="90" y="635" type="line"/>
      <point x="139" y="607" type="line"/>
      <point x="202" y="582" type="line"/>
      <point x="139" y="555" type="line"/>
      <point x="89" y="528" type="line"/>
      <point x="111" y="486" type="line"/>
      <point x="162" y="512" type="line"/>
      <point x="217" y="559" type="line"/>
      <point x="206" y="488" type="line"/>
    </contour>
  </outline>
</glyph>
<glyph name="plus" format="2">
  <advance width="721"/>
  <unicode hex="002B"/>
  <outline>
    <contour>
      <point x="288" y="112" type="line"/>
      <point x="369" y="112" type="line"/>
      <point x="475" y="609" type="line"/>
      <point x="393" y="609" type="line"/>
    </contour>
    <contour>
      <point x="124" y="320" type="line"/>
      <point x="620" y="320" type="line"/>
      <point x="638" y="401" type="line"/>
      <point x="142" y="401" type="line"/>
    </contour>
  </outline>
</glyph>
<glyph name="comma" format="2">
  <advance width="202"/>
  <unicode hex="002C"/>
  <anchor x="-12" y="0" name="#entry"/>
  <anchor x="178" y="0" name="#exit"/>
  <anchor x="157" y="525" name="top"/>
  <outline>
    <contour>
      <point x="-66" y="-154" type="line"/>
      <point x="8" y="-154" type="line"/>
      <point x="105" y="3" type="line"/>
      <point x="127" y="106" type="line"/>
      <point x="8" y="106" type="line"/>
      <point x="-16" y="0" type="line"/>
      <point x="44" y="0" type="line"/>
    </contour>
  </outline>
</glyph>
<glyph name="hyphen" format="2">
  <advance width="392"/>
  <unicode hex="002D"/>
  <outline>
    <contour>
      <point x="47" y="283" type="line"/>
      <point x="354" y="283" type="line"/>
      <point x="371" y="363" type="line"/>
      <point x="63" y="363" type="line"/>
    </contour>
  </outline>
</glyph>
<glyph name="period" format="2">
  <advance width="204"/>
  <unicode hex="002E"/>
  <anchor x="-60" y="0" name="#entry"/>
  <anchor x="141" y="0" name="#exit"/>
  <anchor x="69" y="106" name="_top"/>
  <anchor x="158" y="525" name="top"/>
  <outline>
    <contour>
      <point x="-14" y="0" type="line"/>
      <point x="106" y="0" type="line"/>
      <point x="128" y="106" type="line"/>
      <point x="9" y="106" type="line"/>
    </contour>
  </outline>
</glyph>
<glyph name="slash" format="2">
  <advance width="513"/>
  <unicode hex="002F"/>
  <outline>
    <contour>
      <point x="-70" y="-81" type="line"/>
      <point x="26" y="-81" type="line"/>
      <point x="583" y="729" type="line"/>
      <point x="488" y="729" type="line"/>
    </contour>
  </outline>
</glyph>
<glyph name="zero" format="2">
  <advance width="789"/>
  <unicode hex="0030"/>
  <note>
zero
</note>
  <outline>
    <contour>
      <point x="378" y="-11" type="curve" smooth="yes"/>
      <point x="570" y="-11"/>
      <point x="716" y="93"/>
      <point x="755" y="319" type="curve" smooth="yes"/>
      <point x="759" y="341" type="line" smooth="yes"/>
      <point x="800" y="573"/>
      <point x="691" y="739"/>
      <point x="454" y="739" type="curve" smooth="yes"/>
      <point x="263" y="739"/>
      <point x="117" y="635"/>
      <point x="77" y="408" type="curve" smooth="yes"/>
      <point x="74" y="386" type="line" smooth="yes"/>
      <point x="33" y="154"/>
      <point x="142" y="-11"/>
    </contour>
    <contour>
      <point x="383" y="75" type="curve" smooth="yes"/>
      <point x="218" y="75"/>
      <point x="129" y="180"/>
      <point x="164" y="338" type="curve" smooth="yes"/>
      <point x="190" y="458" type="line" smooth="yes"/>
      <point x="214" y="576"/>
      <point x="303" y="654"/>
      <point x="450" y="654" type="curve" smooth="yes"/>
      <point x="615" y="654"/>
      <point x="704" y="548"/>
      <point x="669" y="391" type="curve" smooth="yes"/>
      <point x="642" y="271" type="line" smooth="yes"/>
      <point x="617" y="152"/>
      <point x="530" y="75"/>
    </contour>
    <contour>
      <point x="113" y="326" type="line"/>
      <point x="704" y="326" type="line"/>
      <point x="720" y="403" type="line"/>
      <point x="130" y="403" type="line"/>
    </contour>
  </outline>
</glyph>
<glyph name="one" format="2">
  <advance width="414"/>
  <unicode hex="0031"/>
  <note>
one
</note>
  <outline>
    <contour>
      <point x="191" y="0" type="line"/>
      <point x="287" y="0" type="line"/>
      <point x="440" y="729" type="line"/>
      <point x="359" y="729" type="line"/>
      <point x="319" y="610" type="line"/>
      <point x="110" y="610" type="line"/>
      <point x="94" y="533" type="line"/>
      <point x="302" y="533" type="line"/>
    </contour>
  </outline>
</glyph>
<glyph name="two" format="2">
  <advance width="697"/>
  <unicode hex="0032"/>
  <note>
two
</note>
  <outline>
    <contour>
      <point x="-4" y="0" type="line"/>
      <point x="598" y="0" type="line"/>
      <point x="616" y="86" type="line"/>
      <point x="211" y="86" type="line"/>
      <point x="187" y="85" type="line"/>
      <point x="187" y="88" type="line"/>
      <point x="200" y="94" type="line"/>
      <point x="449" y="233" type="line" smooth="yes"/>
      <point x="611" y="324"/>
      <point x="694" y="394"/>
      <point x="694" y="521" type="curve" smooth="yes"/>
      <point x="694" y="661"/>
      <point x="584" y="741"/>
      <point x="427" y="741" type="curve" smooth="yes"/>
      <point x="255" y="741"/>
      <point x="126" y="654"/>
      <point x="93" y="516" type="curve"/>
      <point x="188" y="516" type="line"/>
      <point x="213" y="601"/>
      <point x="302" y="655"/>
      <point x="418" y="655" type="curve" smooth="yes"/>
      <point x="536" y="655"/>
      <point x="601" y="600"/>
      <point x="594" y="508" type="curve" smooth="yes"/>
      <point x="593" y="494" type="line" smooth="yes"/>
      <point x="589" y="439"/>
      <point x="558" y="389"/>
      <point x="438" y="320" type="curve" smooth="yes"/>
      <point x="9" y="73" type="line"/>
    </contour>
  </outline>
</glyph>
<glyph name="three" format="2">
  <advance width="711"/>
  <unicode hex="0033"/>
  <note>
three
</note>
  <outline>
    <contour>
      <point x="317" y="-10" type="curve" smooth="yes"/>
      <point x="514" y="-10"/>
      <point x="654" y="76"/>
      <point x="654" y="210" type="curve" smooth="yes"/>
      <point x="654" y="299"/>
      <point x="594" y="359"/>
      <point x="516" y="374" type="curve"/>
      <point x="517" y="381" type="line"/>
      <point x="634" y="406"/>
      <point x="706" y="469"/>
      <point x="706" y="562" type="curve" smooth="yes"/>
      <point x="706" y="671"/>
      <point x="605" y="739"/>
      <point x="443" y="739" type="curve" smooth="yes"/>
      <point x="270" y="739"/>
      <point x="134" y="659"/>
      <point x="106" y="534" type="curve"/>
      <point x="198" y="534" type="line"/>
      <point x="221" y="615"/>
      <point x="313" y="662"/>
      <point x="436" y="662" type="curve" smooth="yes"/>
      <point x="541" y="662"/>
      <point x="622" y="627"/>
      <point x="609" y="531" type="curve" smooth="yes"/>
      <point x="607" y="519" type="line" smooth="yes"/>
      <point x="596" y="454"/>
      <point x="523" y="415"/>
      <point x="422" y="415" type="curve" smooth="yes"/>
      <point x="337" y="415" type="line"/>
      <point x="321" y="346" type="line"/>
      <point x="406" y="346" type="line" smooth="yes"/>
      <point x="495" y="346"/>
      <point x="567" y="306"/>
      <point x="555" y="208" type="curve" smooth="yes"/>
      <point x="553" y="192" type="line" smooth="yes"/>
      <point x="543" y="116"/>
      <point x="452" y="68"/>
      <point x="317" y="68" type="curve" smooth="yes"/>
      <point x="197" y="68"/>
      <point x="121" y="122"/>
      <point x="121" y="209" type="curve"/>
      <point x="27" y="209" type="line"/>
      <point x="27" y="78"/>
      <point x="141" y="-10"/>
    </contour>
  </outline>
</glyph>
<glyph name="four" format="2">
  <advance width="783"/>
  <unicode hex="0034"/>
  <note>
four
</note>
  <outline>
    <contour>
      <point x="18" y="171" type="line"/>
      <point x="727" y="171" type="line"/>
      <point x="744" y="254" type="line"/>
      <point x="149" y="254" type="line"/>
      <point x="151" y="262" type="line"/>
      <point x="596" y="729" type="line"/>
      <point x="485" y="729" type="line"/>
      <point x="35" y="249" type="line"/>
    </contour>
    <contour>
      <point x="435" y="0" type="line"/>
      <point x="532" y="0" type="line"/>
      <point x="619" y="417" type="line"/>
      <point x="538" y="417" type="line"/>
      <point x="479" y="220" type="line"/>
    </contour>
  </outline>
</glyph>
<glyph name="five" format="2">
  <advance width="732"/>
  <unicode hex="0035"/>
  <note>
five
</note>
  <outline>
    <contour>
      <point x="326" y="-11" type="curve" smooth="yes"/>
      <point x="516" y="-11"/>
      <point x="682" y="74"/>
      <point x="682" y="252" type="curve" smooth="yes"/>
      <point x="682" y="390"/>
      <point x="590" y="471"/>
      <point x="434" y="471" type="curve" smooth="yes"/>
      <point x="341" y="471"/>
      <point x="248" y="446"/>
      <point x="188" y="400" type="curve"/>
      <point x="178" y="400" type="line"/>
      <point x="249" y="645" type="line"/>
      <point x="737" y="645" type="line"/>
      <point x="754" y="729" type="line"/>
      <point x="177" y="729" type="line"/>
      <point x="69" y="325" type="line"/>
      <point x="166" y="317" type="line"/>
      <point x="215" y="370"/>
      <point x="300" y="401"/>
      <point x="402" y="401" type="curve" smooth="yes"/>
      <point x="537" y="401"/>
      <point x="603" y="337"/>
      <point x="582" y="229" type="curve" smooth="yes"/>
      <point x="579" y="213" type="line" smooth="yes"/>
      <point x="565" y="120"/>
      <point x="472" y="68"/>
      <point x="329" y="68" type="curve" smooth="yes"/>
      <point x="218" y="68"/>
      <point x="136" y="112"/>
      <point x="135" y="205" type="curve"/>
      <point x="37" y="205" type="line"/>
      <point x="36" y="76"/>
      <point x="156" y="-11"/>
    </contour>
  </outline>
</glyph>
<glyph name="six" format="2">
  <advance width="755"/>
  <unicode hex="0036"/>
  <note>
six
</note>
  <outline>
    <contour>
      <point x="376" y="-11" type="curve" smooth="yes"/>
      <point x="575" y="-11"/>
      <point x="708" y="96"/>
      <point x="708" y="256" type="curve" smooth="yes"/>
      <point x="708" y="390"/>
      <point x="609" y="474"/>
      <point x="452" y="474" type="curve" smooth="yes"/>
      <point x="343" y="474"/>
      <point x="250" y="448"/>
      <point x="177" y="392" type="curve"/>
      <point x="167" y="392" type="line"/>
      <point x="177" y="419"/>
      <point x="183" y="443"/>
      <point x="185" y="457" type="curve" smooth="yes"/>
      <point x="213" y="582"/>
      <point x="289" y="664"/>
      <point x="452" y="664" type="curve" smooth="yes"/>
      <point x="556" y="664"/>
      <point x="632" y="625"/>
      <point x="647" y="553" type="curve"/>
      <point x="745" y="553" type="line"/>
      <point x="724" y="664"/>
      <point x="616" y="740"/>
      <point x="452" y="740" type="curve" smooth="yes"/>
      <point x="279" y="740"/>
      <point x="131" y="655"/>
      <point x="88" y="444" type="curve" smooth="yes"/>
      <point x="70" y="356" type="line" smooth="yes"/>
      <point x="26" y="130"/>
      <point x="145" y="-11"/>
    </contour>
    <contour>
      <point x="379" y="67" type="curve" smooth="yes"/>
      <point x="225" y="67"/>
      <point x="127" y="172"/>
      <point x="154" y="296" type="curve" smooth="yes"/>
      <point x="157" y="310" type="line"/>
      <point x="225" y="375"/>
      <point x="322" y="408"/>
      <point x="424" y="408" type="curve" smooth="yes"/>
      <point x="546" y="408"/>
      <point x="622" y="341"/>
      <point x="605" y="229" type="curve" smooth="yes"/>
      <point x="603" y="216" type="line" smooth="yes"/>
      <point x="589" y="124"/>
      <point x="501" y="67"/>
    </contour>
  </outline>
</glyph>
<glyph name="seven" format="2">
  <advance width="702"/>
  <unicode hex="0037"/>
  <note>
seven
</note>
  <outline>
    <contour>
      <point x="110" y="0" type="line"/>
      <point x="228" y="0" type="line"/>
      <point x="746" y="645" type="line"/>
      <point x="763" y="729" type="line"/>
      <point x="141" y="729" type="line"/>
      <point x="99" y="523" type="line"/>
      <point x="175" y="523" type="line"/>
      <point x="200" y="645" type="line"/>
      <point x="628" y="645" type="line"/>
      <point x="625" y="632" type="line"/>
    </contour>
  </outline>
</glyph>
<glyph name="eight" format="2">
  <advance width="744"/>
  <unicode hex="0038"/>
  <note>
eight
</note>
  <outline>
    <contour>
      <point x="353" y="-8" type="curve" smooth="yes"/>
      <point x="569" y="-8"/>
      <point x="693" y="70"/>
      <point x="689" y="210" type="curve" smooth="yes"/>
      <point x="687" y="288"/>
      <point x="623" y="352"/>
      <point x="529" y="371" type="curve"/>
      <point x="530" y="377" type="line"/>
      <point x="666" y="402"/>
      <point x="733" y="468"/>
      <point x="729" y="560" type="curve" smooth="yes"/>
      <point x="724" y="673"/>
      <point x="605" y="739"/>
      <point x="428" y="739" type="curve" smooth="yes"/>
      <point x="279" y="739"/>
      <point x="115" y="688"/>
      <point x="115" y="542" type="curve" smooth="yes"/>
      <point x="115" y="465"/>
      <point x="173" y="412"/>
      <point x="256" y="391" type="curve"/>
      <point x="255" y="385" type="line"/>
      <point x="119" y="369"/>
      <point x="34" y="292"/>
      <point x="34" y="185" type="curve" smooth="yes"/>
      <point x="34" y="40"/>
      <point x="189.008" y="-8"/>
    </contour>
    <contour>
      <point x="359" y="67" type="curve" smooth="yes"/>
      <point x="206" y="67"/>
      <point x="123" y="118"/>
      <point x="138" y="208" type="curve" smooth="yes"/>
      <point x="141" y="226" type="line" smooth="yes"/>
      <point x="154" y="320"/>
      <point x="259" y="343"/>
      <point x="369" y="343" type="curve" smooth="yes"/>
      <point x="519" y="343"/>
      <point x="602" y="287"/>
      <point x="586" y="198" type="curve" smooth="yes"/>
      <point x="582" y="176" type="line" smooth="yes"/>
      <point x="568" y="101"/>
      <point x="498" y="67"/>
    </contour>
    <contour>
      <point x="413" y="410" type="curve" smooth="yes"/>
      <point x="262" y="410"/>
      <point x="202" y="469"/>
      <point x="214" y="541" type="curve" smooth="yes"/>
      <point x="217" y="559" type="line" smooth="yes"/>
      <point x="228" y="626"/>
      <point x="303" y="663"/>
      <point x="426" y="663" type="curve" smooth="yes"/>
      <point x="567" y="663"/>
      <point x="641" y="618"/>
      <point x="626" y="533" type="curve" smooth="yes"/>
      <point x="622" y="511" type="line" smooth="yes"/>
      <point x="610" y="445"/>
      <point x="534" y="410"/>
    </contour>
  </outline>
</glyph>
<glyph name="equal" format="2">
  <advance width="721"/>
  <unicode hex="003D"/>
  <anchor x="381" y="361" name="center"/>
  <outline>
    <contour>
      <point x="148" y="434" type="line"/>
      <point x="646" y="434" type="line"/>
      <point x="663" y="516" type="line"/>
      <point x="165" y="516" type="line"/>
    </contour>
    <contour>
      <point x="101" y="214" type="line"/>
      <point x="599" y="214" type="line"/>
      <point x="616" y="296" type="line"/>
      <point x="118" y="296" type="line"/>
    </contour>
  </outline>
</glyph>
<glyph name="greater" format="2">
  <advance width="721"/>
  <unicode hex="003E"/>
  <outline>
    <contour>
      <point x="50" y="105" type="line"/>
      <point x="635" y="315" type="line"/>
      <point x="654" y="410" type="line"/>
      <point x="159" y="624" type="line"/>
      <point x="142" y="543" type="line"/>
      <point x="560" y="370" type="line"/>
      <point x="559" y="362" type="line"/>
      <point x="69" y="197" type="line"/>
    </contour>
  </outline>
</glyph>
<glyph name="question" format="2">
  <advance width="584"/>
  <unicode hex="003F"/>
  <outline>
    <contour>
      <point x="231" y="192" type="line"/>
      <point x="315" y="192" type="line"/>
      <point x="316" y="199" type="line" smooth="yes"/>
      <point x="336" y="303"/>
      <point x="565" y="332"/>
      <point x="595" y="503" type="curve" smooth="yes"/>
      <point x="619" y="648"/>
      <point x="504" y="740"/>
      <point x="352" y="740" type="curve" smooth="yes"/>
      <point x="215" y="740"/>
      <point x="115" y="670"/>
      <point x="89" y="547" type="curve"/>
      <point x="179" y="547" type="line"/>
      <point x="196" y="622"/>
      <point x="259" y="662"/>
      <point x="345" y="662" type="curve" smooth="yes"/>
      <point x="454" y="662"/>
      <point x="517" y="603"/>
      <point x="499" y="504" type="curve" smooth="yes"/>
      <point x="478" y="371"/>
      <point x="267" y="356"/>
      <point x="234" y="206" type="curve" smooth="yes"/>
    </contour>
    <contour>
      <point x="192" y="0" type="line"/>
      <point x="283" y="0" type="line"/>
      <point x="303" y="100" type="line"/>
      <point x="212" y="100" type="line"/>
    </contour>
  </outline>
</glyph>
<glyph name="at" format="2">
  <advance width="973"/>
  <unicode hex="0040"/>
  <outline>
    <contour>
      <point x="511" y="-101" type="curve" smooth="yes"/>
      <point x="606" y="-101"/>
      <point x="719" y="-72"/>
      <point x="779" y="-26" type="curve"/>
      <point x="751" y="29" type="line"/>
      <point x="696" y="-11"/>
      <point x="613" y="-36"/>
      <point x="511" y="-36" type="curve" smooth="yes"/>
      <point x="278" y="-36"/>
      <point x="127" y="89"/>
      <point x="127" y="317" type="curve" smooth="yes"/>
      <point x="127" y="524"/>
      <point x="276" y="673"/>
      <point x="511" y="673" type="curve" smooth="yes"/>
      <point x="735" y="673"/>
      <point x="887" y="548"/>
      <point x="887" y="361" type="curve" smooth="yes"/>
      <point x="887" y="244"/>
      <point x="833" y="166"/>
      <point x="751" y="166" type="curve" smooth="yes"/>
      <point x="695" y="166"/>
      <point x="663" y="197"/>
      <point x="670" y="289" type="curve" smooth="yes"/>
      <point x="688" y="504" type="line"/>
      <point x="639" y="504" type="line"/>
      <point x="628" y="431" type="line"/>
      <point x="623" y="431" type="line"/>
      <point x="605" y="481"/>
      <point x="550" y="515"/>
      <point x="481" y="515" type="curve" smooth="yes"/>
      <point x="369" y="515"/>
      <point x="292" y="427"/>
      <point x="292" y="297" type="curve" smooth="yes"/>
      <point x="292" y="173"/>
      <point x="372" y="107"/>
      <point x="465" y="107" type="curve" smooth="yes"/>
      <point x="530" y="107"/>
      <point x="595" y="137"/>
      <point x="619" y="202" type="curve"/>
      <point x="624" y="202" type="line"/>
      <point x="630" y="144"/>
      <point x="675" y="105"/>
      <point x="750" y="105" type="curve" smooth="yes"/>
      <point x="870" y="105"/>
      <point x="951" y="210"/>
      <point x="951" y="367" type="curve" smooth="yes"/>
      <point x="951" y="589"/>
      <point x="768" y="738"/>
      <point x="513" y="738" type="curve" smooth="yes"/>
      <point x="243" y="738"/>
      <point x="59" y="566"/>
      <point x="59" y="315" type="curve" smooth="yes"/>
      <point x="59" y="65"/>
      <point x="225" y="-101"/>
    </contour>
    <contour>
      <point x="477" y="168" type="curve" smooth="yes"/>
      <point x="405" y="168"/>
      <point x="358" y="215"/>
      <point x="358" y="300" type="curve" smooth="yes"/>
      <point x="358" y="392"/>
      <point x="405" y="456"/>
      <point x="494" y="456" type="curve" smooth="yes"/>
      <point x="565" y="456"/>
      <point x="611" y="404"/>
      <point x="615" y="319" type="curve"/>
      <point x="609" y="227"/>
      <point x="564" y="168"/>
    </contour>
  </outline>
</glyph>
<glyph name="A" format="2">
  <advance width="921"/>
  <unicode hex="0041"/>
  <note>
A
</note>
  <anchor x="730" y="0" name="#exit"/>
  <anchor x="414" y="0" name="bottom"/>
  <anchor x="833" y="0" name="ogonek"/>
  <anchor x="556" y="729" name="top"/>
  <outline>
    <contour>
      <point x="-24" y="0" type="line"/>
      <point x="85" y="0" type="line"/>
      <point x="513" y="609" type="line"/>
      <point x="538" y="647" type="line"/>
      <point x="547" y="647" type="line"/>
      <point x="557" y="609" type="line"/>
      <point x="730" y="0" type="line"/>
      <point x="833" y="0" type="line"/>
      <point x="622" y="729" type="line"/>
      <point x="490" y="729" type="line"/>
    </contour>
    <contour>
      <point x="198" y="182" type="line"/>
      <point x="693" y="182" type="line"/>
      <point x="668" y="267" type="line"/>
      <point x="256" y="267" type="line"/>
    </contour>
  </outline>
</glyph>
<glyph name="B" format="2">
  <advance width="824"/>
  <unicode hex="0042"/>
  <note>
B
</note>
  <anchor x="364" y="0" name="bottom"/>
  <anchor x="519" y="729" name="top"/>
  <outline>
    <contour>
      <point x="17" y="0" type="line"/>
      <point x="496" y="0" type="line" smooth="yes"/>
      <point x="659" y="0"/>
      <point x="764" y="82"/>
      <point x="769" y="211" type="curve" smooth="yes"/>
      <point x="771" y="290"/>
      <point x="725" y="350"/>
      <point x="640" y="371" type="curve"/>
      <point x="640" y="376" type="line"/>
      <point x="748" y="400"/>
      <point x="815" y="464"/>
      <point x="817" y="564" type="curve" smooth="yes"/>
      <point x="822" y="665"/>
      <point x="746" y="729"/>
      <point x="615" y="729" type="curve" smooth="yes"/>
      <point x="169" y="729" type="line"/>
    </contour>
    <contour>
      <point x="134" y="83" type="line"/>
      <point x="252" y="646" type="line"/>
      <point x="580" y="646" type="line" smooth="yes"/>
      <point x="662" y="646"/>
      <point x="728" y="619"/>
      <point x="709" y="528" type="curve" smooth="yes"/>
      <point x="706" y="510" type="line" smooth="yes"/>
      <point x="693" y="448"/>
      <point x="637" y="409"/>
      <point x="553" y="409" type="curve" smooth="yes"/>
      <point x="187" y="409" type="line"/>
      <point x="171" y="331" type="line"/>
      <point x="561" y="331" type="line" smooth="yes"/>
      <point x="624" y="331"/>
      <point x="678" y="299"/>
      <point x="662" y="216" type="curve" smooth="yes"/>
      <point x="658" y="191" type="line" smooth="yes"/>
      <point x="645" y="126"/>
      <point x="588" y="83"/>
      <point x="496" y="83" type="curve" smooth="yes"/>
    </contour>
  </outline>
</glyph>
<glyph name="C" format="2">
  <advance width="902"/>
  <unicode hex="0043"/>
  <note>
C
</note>
  <anchor x="452" y="0" name="bottom"/>
  <anchor x="532" y="729" name="top"/>
  <outline>
    <contour>
      <point x="462" y="-11" type="curve" smooth="yes"/>
      <point x="635" y="-11"/>
      <point x="800" y="76"/>
      <point x="855" y="207" type="curve"/>
      <point x="746" y="207" type="line"/>
      <point x="700" y="125"/>
      <point x="591" y="73"/>
      <point x="467" y="73" type="curve" smooth="yes"/>
      <point x="262" y="73"/>
      <point x="146" y="193"/>
      <point x="180" y="375" type="curve" smooth="yes"/>
      <point x="189" y="421" type="line" smooth="yes"/>
      <point x="217" y="563"/>
      <point x="336" y="656"/>
      <point x="517" y="656" type="curve" smooth="yes"/>
      <point x="654" y="656"/>
      <point x="763" y="592"/>
      <point x="788" y="480" type="curve"/>
      <point x="896" y="480" type="line"/>
      <point x="868" y="637"/>
      <point x="719" y="740"/>
      <point x="522" y="740" type="curve" smooth="yes"/>
      <point x="291" y="740"/>
      <point x="122" y="624"/>
      <point x="81" y="435" type="curve" smooth="yes"/>
      <point x="77" y="417" type="line" smooth="yes"/>
      <point x="25" y="164"/>
      <point x="190" y="-11"/>
    </contour>
  </outline>
</glyph>
<glyph name="D" format="2">
  <advance width="893"/>
  <unicode hex="0044"/>
  <note>
D
</note>
  <anchor x="394" y="0" name="bottom"/>
  <anchor x="196" y="365" name="center"/>
  <anchor x="549" y="729" name="top"/>
  <outline>
    <contour>
      <point x="18" y="0" type="line"/>
      <point x="426" y="0" type="line" smooth="yes"/>
      <point x="653" y="0"/>
      <point x="818" y="106"/>
      <point x="858" y="312" type="curve" smooth="yes"/>
      <point x="863" y="337" type="line" smooth="yes"/>
      <point x="907" y="572"/>
      <point x="774" y="729"/>
      <point x="527" y="729" type="curve" smooth="yes"/>
      <point x="169" y="729" type="line"/>
    </contour>
    <contour>
      <point x="133" y="72" type="line"/>
      <point x="254" y="655" type="line"/>
      <point x="242" y="643" type="line"/>
      <point x="522" y="643" type="line" smooth="yes"/>
      <point x="697" y="643"/>
      <point x="789" y="544"/>
      <point x="759" y="378" type="curve" smooth="yes"/>
      <point x="749" y="321" type="line" smooth="yes"/>
      <point x="722" y="172"/>
      <point x="610" y="86"/>
      <point x="425" y="86" type="curve" smooth="yes"/>
      <point x="121" y="86" type="line"/>
    </contour>
  </outline>
</glyph>
<glyph name="E" format="2">
  <advance width="766"/>
  <unicode hex="0045"/>
  <note>
E
</note>
  <anchor x="17" y="0" name="#entry"/>
  <anchor x="331" y="0" name="bottom"/>
  <anchor x="668" y="0" name="ogonek"/>
  <anchor x="486" y="729" name="top"/>
  <anchor x="126" y="729" name="topleft"/>
  <outline>
    <contour>
      <point x="18" y="0" type="line"/>
      <point x="668" y="0" type="line"/>
      <point x="686" y="87" type="line"/>
      <point x="136" y="87" type="line"/>
      <point x="252" y="642" type="line"/>
      <point x="803" y="642" type="line"/>
      <point x="821" y="729" type="line"/>
      <point x="169" y="729" type="line"/>
    </contour>
    <contour>
      <point x="170" y="332" type="line"/>
      <point x="582" y="332" type="line"/>
      <point x="599" y="414" type="line"/>
      <point x="188" y="414" type="line"/>
    </contour>
  </outline>
</glyph>
<glyph name="F" format="2">
  <advance width="753"/>
  <unicode hex="0046"/>
  <note>
F
</note>
  <anchor x="322" y="0" name="bottom"/>
  <anchor x="477" y="729" name="top"/>
  <outline>
    <contour>
      <point x="18" y="0" type="line"/>
      <point x="118" y="0" type="line"/>
      <point x="252" y="642" type="line"/>
      <point x="797" y="642" type="line"/>
      <point x="816" y="729" type="line"/>
      <point x="169" y="729" type="line"/>
    </contour>
    <contour>
      <point x="165" y="308" type="line"/>
      <point x="674" y="308" type="line"/>
      <point x="692" y="396" type="line"/>
      <point x="183" y="396" type="line"/>
    </contour>
  </outline>
</glyph>
<glyph name="G" format="2">
  <advance width="930"/>
  <unicode hex="0047"/>
  <note>
G
</note>
  <anchor x="447" y="0" name="bottom"/>
  <anchor x="532" y="729" name="top"/>
  <outline>
    <contour>
      <point x="445" y="-11" type="curve" smooth="yes"/>
      <point x="568" y="-11"/>
      <point x="680" y="31"/>
      <point x="739" y="98" type="curve"/>
      <point x="741" y="98" type="line"/>
      <point x="733" y="0" type="line"/>
      <point x="804" y="0" type="line"/>
      <point x="882" y="376" type="line"/>
      <point x="502" y="376" type="line"/>
      <point x="485" y="297" type="line"/>
      <point x="769" y="297" type="line"/>
      <point x="748" y="198" type="line"/>
      <point x="698" y="123"/>
      <point x="596" y="71"/>
      <point x="464" y="71" type="curve" smooth="yes"/>
      <point x="259" y="71"/>
      <point x="138" y="197"/>
      <point x="180" y="384" type="curve" smooth="yes"/>
      <point x="189" y="424" type="line" smooth="yes"/>
      <point x="220" y="563"/>
      <point x="335" y="656"/>
      <point x="516" y="656" type="curve" smooth="yes"/>
      <point x="647" y="656"/>
      <point x="754" y="597"/>
      <point x="784" y="493" type="curve"/>
      <point x="893" y="493" type="line"/>
      <point x="859" y="642"/>
      <point x="709" y="740"/>
      <point x="521" y="740" type="curve" smooth="yes"/>
      <point x="297" y="740"/>
      <point x="124" y="632"/>
      <point x="81" y="435" type="curve" smooth="yes"/>
      <point x="77" y="419" type="line" smooth="yes"/>
      <point x="24" y="168"/>
      <point x="190" y="-11"/>
    </contour>
  </outline>
</glyph>
<glyph name="H" format="2">
  <advance width="913"/>
  <unicode hex="0048"/>
  <note>
H
</note>
  <anchor x="412" y="0" name="bottom"/>
  <anchor x="522" y="580" name="center"/>
  <anchor x="567" y="729" name="top"/>
  <anchor x="126" y="729" name="topleft"/>
  <outline>
    <contour>
      <point x="18" y="0" type="line"/>
      <point x="118" y="0" type="line"/>
      <point x="270" y="729" type="line"/>
      <point x="169" y="729" type="line"/>
    </contour>
    <contour>
      <point x="687" y="0" type="line"/>
      <point x="787" y="0" type="line"/>
      <point x="939" y="729" type="line"/>
      <point x="840" y="729" type="line"/>
    </contour>
    <contour>
      <point x="170" y="327" type="line"/>
      <point x="772" y="327" type="line"/>
      <point x="790" y="415" type="line"/>
      <point x="188" y="415" type="line"/>
    </contour>
  </outline>
</glyph>
<glyph name="I" format="2">
  <advance width="676"/>
  <unicode hex="0049"/>
  <note>
I
</note>
  <anchor x="283" y="0" name="bottom"/>
  <anchor x="578" y="0" name="ogonek"/>
  <anchor x="437" y="729" name="top"/>
  <anchor x="731" y="729" name="topleft"/>
  <outline>
    <contour>
      <point x="249" y="71" type="line"/>
      <point x="348" y="71" type="line"/>
      <point x="472" y="658" type="line"/>
      <point x="372" y="658" type="line"/>
    </contour>
    <contour>
      <point x="-12" y="0" type="line"/>
      <point x="578" y="0" type="line"/>
      <point x="596" y="87" type="line"/>
      <point x="6" y="87" type="line"/>
    </contour>
    <contour>
      <point x="123" y="642" type="line"/>
      <point x="713" y="642" type="line"/>
      <point x="731" y="729" type="line"/>
      <point x="141" y="729" type="line"/>
    </contour>
  </outline>
</glyph>
<glyph name="J" format="2">
  <advance width="450"/>
  <unicode hex="004A"/>
  <note>
J
</note>
  <anchor x="187" y="0" name="bottom"/>
  <anchor x="429" y="729" name="top"/>
  <outline>
    <contour>
      <point x="-20" y="0" type="line"/>
      <point x="234" y="0" type="line" smooth="yes"/>
      <point x="285" y="0"/>
      <point x="331" y="27"/>
      <point x="343" y="84" type="curve" smooth="yes"/>
      <point x="478" y="729" type="line"/>
      <point x="378" y="729" type="line"/>
      <point x="244" y="87" type="line"/>
      <point x="-1" y="87" type="line"/>
    </contour>
  </outline>
</glyph>
<glyph name="K" format="2">
  <advance width="836"/>
  <unicode hex="004B"/>
  <note>
K
</note>
  <anchor x="353" y="0" name="bottom"/>
  <anchor x="508" y="729" name="top"/>
  <outline>
    <contour>
      <point x="18" y="0" type="line"/>
      <point x="118" y="0" type="line"/>
      <point x="171" y="254" type="line"/>
      <point x="338" y="365" type="line"/>
      <point x="626" y="0" type="line"/>
      <point x="748" y="0" type="line"/>
      <point x="425" y="420" type="line"/>
      <point x="890" y="729" type="line"/>
      <point x="749" y="729" type="line"/>
      <point x="193" y="360" type="line"/>
      <point x="270" y="729" type="line"/>
      <point x="169" y="729" type="line"/>
    </contour>
  </outline>
</glyph>
<glyph name="L" format="2">
  <advance width="718"/>
  <unicode hex="004C"/>
  <note>
L
</note>
  <anchor x="322" y="0" name="bottom"/>
  <anchor x="142" y="365" name="center"/>
  <anchor x="220" y="729" name="top"/>
  <anchor x="382" y="729" name="topright"/>
  <outline>
    <contour>
      <point x="17" y="0" type="line"/>
      <point x="626" y="0" type="line"/>
      <point x="644" y="87" type="line"/>
      <point x="134" y="87" type="line"/>
      <point x="270" y="729" type="line"/>
      <point x="169" y="729" type="line"/>
    </contour>
  </outline>
</glyph>
<glyph name="M" format="2">
  <advance width="1062"/>
  <unicode hex="004D"/>
  <note>
M
</note>
  <anchor x="485" y="0" name="bottom"/>
  <anchor x="640" y="729" name="top"/>
  <outline>
    <contour>
      <point x="17" y="0" type="line"/>
      <point x="115" y="0" type="line"/>
      <point x="234" y="567" type="line"/>
      <point x="250" y="642" type="line"/>
      <point x="260" y="642" type="line"/>
      <point x="274" y="576" type="line"/>
      <point x="421" y="0" type="line"/>
      <point x="534" y="0" type="line"/>
      <point x="919" y="570" type="line"/>
      <point x="964" y="642" type="line"/>
      <point x="973" y="642" type="line"/>
      <point x="956" y="563" type="line"/>
      <point x="839" y="0" type="line"/>
      <point x="936" y="0" type="line"/>
      <point x="1090" y="729" type="line"/>
      <point x="924" y="729" type="line"/>
      <point x="534" y="152" type="line"/>
      <point x="500" y="99" type="line"/>
      <point x="489" y="99" type="line"/>
      <point x="476" y="152" type="line"/>
      <point x="332" y="729" type="line"/>
      <point x="169" y="729" type="line"/>
    </contour>
  </outline>
</glyph>
<glyph name="N" format="2">
  <advance width="899"/>
  <unicode hex="004E"/>
  <note>
N
</note>
  <anchor x="405" y="0" name="bottom"/>
  <anchor x="560" y="729" name="top"/>
  <outline>
    <contour>
      <point x="17" y="0" type="line"/>
      <point x="116" y="0" type="line"/>
      <point x="248" y="633" type="line"/>
      <point x="255" y="633" type="line"/>
      <point x="270" y="607" type="line"/>
      <point x="638" y="0" type="line"/>
      <point x="773" y="0" type="line"/>
      <point x="925" y="729" type="line"/>
      <point x="826" y="729" type="line"/>
      <point x="695" y="103" type="line"/>
      <point x="688" y="103" type="line"/>
      <point x="673" y="132" type="line"/>
      <point x="309" y="729" type="line"/>
      <point x="169" y="729" type="line"/>
    </contour>
  </outline>
</glyph>
<glyph name="O" format="2">
  <advance width="940"/>
  <unicode hex="004F"/>
  <note>
O
</note>
  <anchor x="450" y="0" name="bottom"/>
  <anchor x="492" y="365" name="center"/>
  <anchor x="800" y="10" name="ogonek"/>
  <anchor x="532" y="729" name="top"/>
  <anchor x="131" y="729" name="topleft"/>
  <anchor x="696" y="709" name="topright"/>
  <outline>
    <contour>
      <point x="462" y="-11" type="curve" smooth="yes"/>
      <point x="693" y="-11"/>
      <point x="862" y="105"/>
      <point x="903" y="294" type="curve" smooth="yes"/>
      <point x="907" y="312" type="line" smooth="yes"/>
      <point x="960" y="565"/>
      <point x="794" y="740"/>
      <point x="522" y="740" type="curve" smooth="yes"/>
      <point x="291" y="740"/>
      <point x="122" y="624"/>
      <point x="81" y="435" type="curve" smooth="yes"/>
      <point x="77" y="417" type="line" smooth="yes"/>
      <point x="25" y="164"/>
      <point x="190" y="-11"/>
    </contour>
    <contour>
      <point x="467" y="73" type="curve" smooth="yes"/>
      <point x="262" y="73"/>
      <point x="144" y="193"/>
      <point x="180" y="375" type="curve" smooth="yes"/>
      <point x="189" y="421" type="line" smooth="yes"/>
      <point x="217" y="563"/>
      <point x="336" y="656"/>
      <point x="517" y="656" type="curve" smooth="yes"/>
      <point x="722" y="656"/>
      <point x="838" y="536"/>
      <point x="804" y="354" type="curve" smooth="yes"/>
      <point x="795" y="308" type="line" smooth="yes"/>
      <point x="768" y="166"/>
      <point x="649" y="73"/>
    </contour>
  </outline>
</glyph>
<glyph name="P" format="2">
  <advance width="767"/>
  <unicode hex="0050"/>
  <note>
P
</note>
  <anchor x="332" y="0" name="bottom"/>
  <anchor x="487" y="729" name="top"/>
  <outline>
    <contour>
      <point x="18" y="0" type="line"/>
      <point x="118" y="0" type="line"/>
      <point x="252" y="643" type="line"/>
      <point x="544" y="643" type="line" smooth="yes"/>
      <point x="631" y="643"/>
      <point x="688" y="597"/>
      <point x="670" y="499" type="curve" smooth="yes"/>
      <point x="666" y="479" type="line" smooth="yes"/>
      <point x="652" y="410"/>
      <point x="593" y="368"/>
      <point x="508" y="368" type="curve" smooth="yes"/>
      <point x="178" y="368" type="line"/>
      <point x="161" y="284" type="line"/>
      <point x="494" y="284" type="line" smooth="yes"/>
      <point x="661" y="284"/>
      <point x="771" y="371"/>
      <point x="778" y="520" type="curve" smooth="yes"/>
      <point x="785" y="647"/>
      <point x="706" y="729"/>
      <point x="555" y="729" type="curve" smooth="yes"/>
      <point x="169" y="729" type="line"/>
    </contour>
  </outline>
</glyph>
<glyph name="R" format="2">
  <advance width="829"/>
  <unicode hex="0052"/>
  <note>
R
</note>
  <anchor x="365" y="0" name="bottom"/>
  <anchor x="446" y="729" name="top"/>
  <outline>
    <contour>
      <point x="18" y="0" type="line"/>
      <point x="118" y="0" type="line"/>
      <point x="252" y="643" type="line"/>
      <point x="584" y="643" type="line" smooth="yes"/>
      <point x="677" y="643"/>
      <point x="721" y="590"/>
      <point x="707" y="507" type="curve" smooth="yes"/>
      <point x="703" y="486" type="line" smooth="yes"/>
      <point x="692" y="423"/>
      <point x="627" y="382"/>
      <point x="545" y="382" type="curve" smooth="yes"/>
      <point x="181" y="382" type="line"/>
      <point x="163" y="297" type="line"/>
      <point x="421" y="297" type="line"/>
      <point x="623" y="0" type="line"/>
      <point x="741" y="0" type="line"/>
      <point x="522" y="314" type="line"/>
      <point x="522" y="305" type="line"/>
      <point x="549" y="305" type="line" smooth="yes"/>
      <point x="687" y="305"/>
      <point x="788" y="373"/>
      <point x="809" y="492" type="curve" smooth="yes"/>
      <point x="833" y="635"/>
      <point x="743" y="729"/>
      <point x="585" y="729" type="curve" smooth="yes"/>
      <point x="169" y="729" type="line"/>
    </contour>
  </outline>
</glyph>
<glyph name="S" format="2">
  <advance width="787"/>
  <unicode hex="0053"/>
  <note>
S
</note>
  <anchor x="376" y="0" name="bottom"/>
  <anchor x="482" y="729" name="top"/>
  <outline>
    <contour>
      <point x="400" y="-11" type="curve" smooth="yes"/>
      <point x="569" y="-11"/>
      <point x="730" y="43"/>
      <point x="730" y="206" type="curve" smooth="yes"/>
      <point x="730" y="321"/>
      <point x="641" y="372"/>
      <point x="517" y="399" type="curve" smooth="yes"/>
      <point x="365" y="434" type="line" smooth="yes"/>
      <point x="274" y="455"/>
      <point x="224" y="483"/>
      <point x="224" y="544" type="curve" smooth="yes"/>
      <point x="224" y="630"/>
      <point x="310" y="663"/>
      <point x="424" y="663" type="curve" smooth="yes"/>
      <point x="567" y="663"/>
      <point x="671" y="611"/>
      <point x="681" y="520" type="curve"/>
      <point x="784" y="520" type="line"/>
      <point x="770" y="653"/>
      <point x="631" y="740"/>
      <point x="432" y="740" type="curve" smooth="yes"/>
      <point x="266" y="740"/>
      <point x="116" y="680"/>
      <point x="116" y="534" type="curve" smooth="yes"/>
      <point x="116" y="423"/>
      <point x="206" y="375"/>
      <point x="323" y="348" type="curve" smooth="yes"/>
      <point x="486" y="310" type="line" smooth="yes"/>
      <point x="577" y="290"/>
      <point x="625" y="261"/>
      <point x="625" y="196" type="curve" smooth="yes"/>
      <point x="625" y="97"/>
      <point x="527" y="67"/>
      <point x="410" y="67" type="curve" smooth="yes"/>
      <point x="253" y="67"/>
      <point x="137" y="120"/>
      <point x="132" y="221" type="curve"/>
      <point x="30" y="221" type="line"/>
      <point x="40" y="79"/>
      <point x="180" y="-11"/>
    </contour>
  </outline>
</glyph>
<glyph name="T" format="2">
  <advance width="801"/>
  <unicode hex="0054"/>
  <note>
T
</note>
  <anchor x="348" y="0" name="bottom"/>
  <anchor x="425" y="365" name="center"/>
  <anchor x="502" y="729" name="top"/>
  <outline>
    <contour>
      <point x="297" y="0" type="line"/>
      <point x="397" y="0" type="line"/>
      <point x="532" y="642" type="line"/>
      <point x="846" y="642" type="line"/>
      <point x="864" y="729" type="line"/>
      <point x="135" y="729" type="line"/>
      <point x="117" y="642" type="line"/>
      <point x="433" y="642" type="line"/>
    </contour>
  </outline>
</glyph>
<glyph name="U" format="2">
  <advance width="878"/>
  <unicode hex="0055"/>
  <note>
U
</note>
  <anchor x="409" y="0" name="bottom"/>
  <anchor x="501" y="0" name="ogonek"/>
  <anchor x="536" y="729" name="top"/>
  <anchor x="813" y="729" name="topright"/>
  <outline>
    <contour>
      <point x="414" y="-12" type="curve" smooth="yes"/>
      <point x="632" y="-12"/>
      <point x="776" y="82"/>
      <point x="813" y="255" type="curve" smooth="yes"/>
      <point x="914" y="729" type="line"/>
      <point x="813" y="729" type="line"/>
      <point x="718" y="280" type="line" smooth="yes"/>
      <point x="692" y="156"/>
      <point x="604" y="74"/>
      <point x="424" y="74" type="curve" smooth="yes"/>
      <point x="243" y="74"/>
      <point x="137" y="157"/>
      <point x="174" y="332" type="curve" smooth="yes"/>
      <point x="258" y="729" type="line"/>
      <point x="158" y="729" type="line"/>
      <point x="76" y="348" type="line" smooth="yes"/>
      <point x="29" y="130"/>
      <point x="168" y="-12"/>
    </contour>
  </outline>
</glyph>
<glyph name="V" format="2">
  <advance width="923"/>
  <unicode hex="0056"/>
  <note>
V
</note>
  <anchor x="417" y="0" name="bottom"/>
  <anchor x="572" y="729" name="top"/>
  <outline>
    <contour>
      <point x="346" y="0" type="line"/>
      <point x="469" y="0" type="line"/>
      <point x="988" y="729" type="line"/>
      <point x="868" y="729" type="line"/>
      <point x="452" y="131" type="line"/>
      <point x="422" y="84" type="line"/>
      <point x="411" y="84" type="line"/>
      <point x="400" y="131" type="line"/>
      <point x="233" y="729" type="line"/>
      <point x="131" y="729" type="line"/>
    </contour>
  </outline>
</glyph>
<glyph name="W" format="2">
  <advance width="1221"/>
  <unicode hex="0057"/>
  <note>
W
</note>
  <anchor x="565" y="0" name="bottom"/>
  <anchor x="721" y="729" name="top"/>
  <outline>
    <contour>
      <point x="222" y="0" type="line"/>
      <point x="358" y="0" type="line"/>
      <point x="659" y="577" type="line"/>
      <point x="682" y="628" type="line"/>
      <point x="693" y="628" type="line"/>
      <point x="694" y="577" type="line"/>
      <point x="756" y="0" type="line"/>
      <point x="890" y="0" type="line"/>
      <point x="1286" y="729" type="line"/>
      <point x="1184" y="729" type="line"/>
      <point x="871" y="138" type="line"/>
      <point x="846" y="89" type="line"/>
      <point x="837" y="89" type="line"/>
      <point x="833" y="148" type="line"/>
      <point x="773" y="729" type="line"/>
      <point x="646" y="729" type="line"/>
      <point x="342" y="148" type="line"/>
      <point x="311" y="89" type="line"/>
      <point x="304" y="89" type="line"/>
      <point x="299" y="138" type="line"/>
      <point x="235" y="729" type="line"/>
      <point x="132" y="729" type="line"/>
    </contour>
  </outline>
</glyph>
<glyph name="X" format="2">
  <advance width="900"/>
  <unicode hex="0058"/>
  <note>
X
</note>
  <anchor x="407" y="0" name="bottom"/>
  <anchor x="561" y="729" name="top"/>
  <outline>
    <contour>
      <point x="-25" y="0" type="line"/>
      <point x="102" y="0" type="line"/>
      <point x="455" y="317" type="line"/>
      <point x="465" y="317" type="line"/>
      <point x="687" y="0" type="line"/>
      <point x="812" y="0" type="line"/>
      <point x="543" y="381" type="line"/>
      <point x="939" y="729" type="line"/>
      <point x="815" y="729" type="line"/>
      <point x="491" y="439" type="line"/>
      <point x="481" y="439" type="line"/>
      <point x="281" y="729" type="line"/>
      <point x="157" y="729" type="line"/>
      <point x="406" y="380" type="line"/>
    </contour>
  </outline>
</glyph>
<glyph name="Y" format="2">
  <advance width="842"/>
  <unicode hex="0059"/>
  <note>
Y
</note>
  <anchor x="366" y="0" name="bottom"/>
  <anchor x="512" y="729" name="top"/>
  <anchor x="159" y="729" name="topleft"/>
  <outline>
    <contour>
      <point x="316" y="0" type="line"/>
      <point x="415" y="0" type="line"/>
      <point x="478" y="292" type="line"/>
      <point x="910" y="729" type="line"/>
      <point x="785" y="729" type="line"/>
      <point x="498" y="434" type="line"/>
      <point x="442" y="376" type="line"/>
      <point x="432" y="376" type="line"/>
      <point x="401" y="434" type="line"/>
      <point x="238" y="729" type="line"/>
      <point x="130" y="729" type="line"/>
      <point x="378" y="292" type="line"/>
    </contour>
  </outline>
</glyph>
<glyph name="Z" format="2">
  <advance width="800"/>
  <unicode hex="005A"/>
  <note>
Z
</note>
  <anchor x="343" y="0" name="bottom"/>
  <anchor x="421" y="365" name="center"/>
  <anchor x="498" y="729" name="top"/>
  <outline>
    <contour>
      <point x="-16" y="0" type="line"/>
      <point x="705" y="0" type="line"/>
      <point x="723" y="87" type="line"/>
      <point x="139" y="87" type="line"/>
      <point x="826" y="648" type="line"/>
      <point x="843" y="729" type="line"/>
      <point x="156" y="729" type="line"/>
      <point x="138" y="642" type="line"/>
      <point x="687" y="642" type="line"/>
      <point x="1" y="82" type="line"/>
    </contour>
  </outline>
</glyph>
<glyph name="bracketleft" format="2">
  <advance width="370"/>
  <unicode hex="005B"/>
  <outline>
    <contour>
      <point x="-19" y="-167" type="line"/>
      <point x="240" y="-167" type="line"/>
      <point x="256" y="-93" type="line"/>
      <point x="78" y="-93" type="line"/>
      <point x="251" y="717" type="line"/>
      <point x="428" y="717" type="line"/>
      <point x="444" y="792" type="line"/>
      <point x="185" y="792" type="line"/>
    </contour>
  </outline>
</glyph>
<glyph name="backslash" format="2">
  <advance width="499"/>
  <unicode hex="005C"/>
  <outline>
    <contour>
      <point x="340" y="-81" type="line"/>
      <point x="423" y="-81" type="line"/>
      <point x="208" y="729" type="line"/>
      <point x="128" y="729" type="line"/>
    </contour>
  </outline>
</glyph>
<glyph name="asciicircum" format="2">
  <advance width="721"/>
  <unicode hex="005E"/>
  <outline>
    <contour>
      <point x="191" y="472" type="line"/>
      <point x="279" y="472" type="line"/>
      <point x="439" y="654" type="line"/>
      <point x="522" y="472" type="line"/>
      <point x="601" y="472" type="line"/>
      <point x="493" y="729" type="line"/>
      <point x="409" y="729" type="line"/>
    </contour>
  </outline>
</glyph>
<glyph name="underscore" format="2">
  <advance width="392"/>
  <unicode hex="005F"/>
  <outline>
    <contour>
      <point x="-65" y="-78" type="line"/>
      <point x="312" y="-78" type="line"/>
      <point x="329" y="0" type="line"/>
      <point x="-49" y="0" type="line"/>
    </contour>
  </outline>
</glyph>
<glyph name="a" format="2">
  <advance width="690"/>
  <unicode hex="0061"/>
  <note>
a
</note>
  <anchor x="302" y="0" name="bottom"/>
  <anchor x="576" y="0" name="ogonek"/>
  <anchor x="413" y="525" name="top"/>
  <outline>
    <contour>
      <point x="293" y="-11" type="curve" smooth="yes"/>
      <point x="368" y="-11"/>
      <point x="443" y="13"/>
      <point x="485" y="61" type="curve"/>
      <point x="491" y="61" type="line"/>
      <point x="491" y="0" type="line"/>
      <point x="575" y="0" type="line"/>
      <point x="686" y="525" type="line"/>
      <point x="600" y="525" type="line"/>
      <point x="563" y="411" type="line"/>
      <point x="558" y="411" type="line"/>
      <point x="525" y="485"/>
      <point x="439" y="535"/>
      <point x="330" y="535" type="curve" smooth="yes"/>
      <point x="187" y="535"/>
      <point x="71" y="454"/>
      <point x="46" y="315" type="curve" smooth="yes"/>
      <point x="43" y="302" type="line" smooth="yes"/>
      <point x="9" y="115"/>
      <point x="124" y="-11"/>
    </contour>
    <contour>
      <point x="325" y="64" type="curve" smooth="yes"/>
      <point x="200" y="64"/>
      <point x="117" y="147"/>
      <point x="146" y="282" type="curve" smooth="yes"/>
      <point x="153" y="316" type="line" smooth="yes"/>
      <point x="171" y="404"/>
      <point x="245" y="458"/>
      <point x="353" y="458" type="curve" smooth="yes"/>
      <point x="443" y="458"/>
      <point x="520" y="412"/>
      <point x="544" y="319" type="curve"/>
      <point x="509" y="151" type="line"/>
      <point x="473" y="98"/>
      <point x="406" y="64"/>
    </contour>
  </outline>
</glyph>
<glyph name="b" format="2">
  <advance width="692"/>
  <unicode hex="0062"/>
  <note>
b
</note>
  <anchor x="296" y="0" name="bottom"/>
  <anchor x="467" y="800" name="top"/>
  <outline>
    <contour>
      <point x="361" y="-9" type="curve" smooth="yes"/>
      <point x="505" y="-9"/>
      <point x="618" y="73"/>
      <point x="646" y="210" type="curve" smooth="yes"/>
      <point x="648" y="221" type="line" smooth="yes"/>
      <point x="684" y="408"/>
      <point x="568" y="536"/>
      <point x="399" y="536" type="curve" smooth="yes"/>
      <point x="324" y="536"/>
      <point x="248" y="508"/>
      <point x="207" y="466" type="curve"/>
      <point x="200" y="466" type="line"/>
      <point x="257" y="729" type="line"/>
      <point x="158" y="729" type="line"/>
      <point x="4" y="0" type="line"/>
      <point x="90" y="0" type="line"/>
      <point x="129" y="114" type="line"/>
      <point x="133" y="114" type="line"/>
      <point x="168" y="42"/>
      <point x="252" y="-9"/>
    </contour>
    <contour>
      <point x="339" y="67" type="curve" smooth="yes"/>
      <point x="248" y="67"/>
      <point x="172" y="113"/>
      <point x="146" y="207" type="curve"/>
      <point x="182" y="375" type="line"/>
      <point x="218" y="428"/>
      <point x="286" y="460"/>
      <point x="366" y="460" type="curve" smooth="yes"/>
      <point x="491" y="460"/>
      <point x="575" y="379"/>
      <point x="546" y="243" type="curve" smooth="yes"/>
      <point x="539" y="209" type="line" smooth="yes"/>
      <point x="520" y="122"/>
      <point x="447" y="67"/>
    </contour>
  </outline>
</glyph>
<glyph name="c" format="2">
  <advance width="667"/>
  <unicode hex="0063"/>
  <note>
c
</note>
  <anchor x="318" y="0" name="bottom"/>
  <anchor x="375" y="525" name="top"/>
  <outline>
    <contour>
      <point x="322" y="-11" type="curve" smooth="yes"/>
      <point x="454" y="-11"/>
      <point x="582" y="55"/>
      <point x="621" y="167" type="curve"/>
      <point x="516" y="167" type="line"/>
      <point x="488" y="101"/>
      <point x="414" y="64"/>
      <point x="328" y="64" type="curve" smooth="yes"/>
      <point x="191" y="64"/>
      <point x="114" y="138"/>
      <point x="144" y="273" type="curve" smooth="yes"/>
      <point x="154" y="318" type="line" smooth="yes"/>
      <point x="175" y="412"/>
      <point x="250" y="460"/>
      <point x="359" y="460" type="curve" smooth="yes"/>
      <point x="455" y="460"/>
      <point x="520" y="420"/>
      <point x="538" y="349" type="curve"/>
      <point x="641" y="349" type="line"/>
      <point x="620" y="460"/>
      <point x="510" y="535"/>
      <point x="365" y="535" type="curve" smooth="yes"/>
      <point x="199" y="535"/>
      <point x="73" y="452"/>
      <point x="46" y="312" type="curve" smooth="yes"/>
      <point x="43" y="302" type="line" smooth="yes"/>
      <point x="6" y="114"/>
      <point x="118" y="-11"/>
    </contour>
  </outline>
</glyph>
<glyph name="d" format="2">
  <advance width="691"/>
  <unicode hex="0064"/>
  <note>
d
</note>
  <anchor x="305" y="0" name="bottom"/>
  <anchor x="601" y="625" name="center"/>
  <anchor x="476" y="800" name="top"/>
  <anchor x="730" y="729" name="topright"/>
  <outline>
    <contour>
      <point x="293" y="-11" type="curve" smooth="yes"/>
      <point x="368" y="-11"/>
      <point x="443" y="13"/>
      <point x="485" y="61" type="curve"/>
      <point x="491" y="61" type="line"/>
      <point x="491" y="0" type="line"/>
      <point x="576" y="0" type="line"/>
      <point x="730" y="729" type="line"/>
      <point x="632" y="729" type="line"/>
      <point x="565" y="411" type="line"/>
      <point x="559" y="411" type="line"/>
      <point x="526" y="485"/>
      <point x="439" y="535"/>
      <point x="330" y="535" type="curve" smooth="yes"/>
      <point x="187" y="535"/>
      <point x="71" y="454"/>
      <point x="46" y="315" type="curve" smooth="yes"/>
      <point x="43" y="302" type="line" smooth="yes"/>
      <point x="9" y="115"/>
      <point x="124" y="-11"/>
    </contour>
    <contour>
      <point x="325" y="64" type="curve" smooth="yes"/>
      <point x="200" y="64"/>
      <point x="117" y="147"/>
      <point x="146" y="282" type="curve" smooth="yes"/>
      <point x="153" y="316" type="line" smooth="yes"/>
      <point x="171" y="404"/>
      <point x="245" y="458"/>
      <point x="353" y="458" type="curve" smooth="yes"/>
      <point x="443" y="458"/>
      <point x="522" y="412"/>
      <point x="546" y="320" type="curve"/>
      <point x="510" y="151" type="line"/>
      <point x="474" y="98"/>
      <point x="406" y="64"/>
    </contour>
  </outline>
</glyph>
<glyph name="e" format="2">
  <advance width="679"/>
  <unicode hex="0065"/>
  <note>
e
</note>
  <anchor x="-21" y="0" name="#entry"/>
  <anchor x="326" y="0" name="bottom"/>
  <anchor x="417" y="0" name="ogonek"/>
  <anchor x="364" y="525" name="top"/>
  <outline>
    <contour>
      <point x="323" y="-11" type="curve" smooth="yes"/>
      <point x="469" y="-11"/>
      <point x="590" y="52"/>
      <point x="624" y="149" type="curve"/>
      <point x="520" y="149" type="line"/>
      <point x="494" y="97"/>
      <point x="419" y="64"/>
      <point x="332" y="64" type="curve" smooth="yes"/>
      <point x="200" y="64"/>
      <point x="120" y="141"/>
      <point x="138" y="258" type="curve" smooth="yes"/>
      <point x="142" y="291" type="line" smooth="yes"/>
      <point x="157" y="392"/>
      <point x="230" y="460"/>
      <point x="361" y="460" type="curve" smooth="yes"/>
      <point x="476" y="460"/>
      <point x="553" y="395"/>
      <point x="547" y="294" type="curve" smooth="yes"/>
      <point x="546" y="278" type="line"/>
      <point x="562" y="308" type="line"/>
      <point x="136" y="308" type="line"/>
      <point x="124" y="237" type="line"/>
      <point x="640" y="237" type="line"/>
      <point x="641" y="251" type="line" smooth="yes"/>
      <point x="657" y="428"/>
      <point x="541" y="535"/>
      <point x="364" y="535" type="curve" smooth="yes"/>
      <point x="197" y="535"/>
      <point x="70" y="446"/>
      <point x="46" y="313" type="curve" smooth="yes"/>
      <point x="43" y="302" type="line" smooth="yes"/>
      <point x="9" y="117"/>
      <point x="125" y="-11"/>
    </contour>
  </outline>
</glyph>
<glyph name="f" format="2">
  <advance width="409"/>
  <unicode hex="0066"/>
  <note>
f
</note>
  <anchor x="159" y="0" name="bottom"/>
  <anchor x="330" y="800" name="top"/>
  <outline>
    <contour>
      <point x="85" y="0" type="line"/>
      <point x="184" y="0" type="line"/>
      <point x="277" y="446" type="line"/>
      <point x="422" y="446" type="line"/>
      <point x="438" y="525" type="line"/>
      <point x="295" y="525" type="line"/>
      <point x="321" y="649" type="line"/>
      <point x="476" y="649" type="line"/>
      <point x="493" y="729" type="line"/>
      <point x="333" y="729" type="line" smooth="yes"/>
      <point x="277" y="729"/>
      <point x="234" y="710"/>
      <point x="221" y="647" type="curve" smooth="yes"/>
      <point x="196" y="525" type="line"/>
      <point x="82" y="525" type="line"/>
      <point x="66" y="446" type="line"/>
      <point x="179" y="446" type="line"/>
    </contour>
  </outline>
</glyph>
<glyph name="g" format="2">
  <advance width="666"/>
  <unicode hex="0067"/>
  <note>
g
</note>
  <anchor x="245" y="-200" name="bottom"/>
  <anchor x="372" y="525" name="top"/>
  <outline>
    <contour>
      <point x="255" y="-179" type="curve" smooth="yes"/>
      <point x="401" y="-179"/>
      <point x="524" y="-124"/>
      <point x="554" y="20" type="curve" smooth="yes"/>
      <point x="659" y="525" type="line"/>
      <point x="573" y="525" type="line"/>
      <point x="541" y="420" type="line"/>
      <point x="534" y="420" type="line"/>
      <point x="500" y="489"/>
      <point x="415" y="535"/>
      <point x="322" y="535" type="curve" smooth="yes"/>
      <point x="188" y="535"/>
      <point x="71" y="465"/>
      <point x="48" y="321" type="curve" smooth="yes"/>
      <point x="46" y="309" type="line" smooth="yes"/>
      <point x="17" y="135"/>
      <point x="116" y="19"/>
      <point x="284" y="19" type="curve" smooth="yes"/>
      <point x="357" y="19"/>
      <point x="429" y="45"/>
      <point x="464" y="85" type="curve"/>
      <point x="470" y="85" type="line"/>
      <point x="456" y="20" type="line" smooth="yes"/>
      <point x="441" y="-55"/>
      <point x="382" y="-107"/>
      <point x="260" y="-107" type="curve" smooth="yes"/>
      <point x="183" y="-107"/>
      <point x="126" y="-81"/>
      <point x="108" y="-32" type="curve"/>
      <point x="11" y="-32" type="line"/>
      <point x="29" y="-119"/>
      <point x="122" y="-179"/>
    </contour>
    <contour>
      <point x="314" y="95" type="curve" smooth="yes"/>
      <point x="190" y="95"/>
      <point x="122" y="176"/>
      <point x="150" y="294" type="curve" smooth="yes"/>
      <point x="157" y="325" type="line" smooth="yes"/>
      <point x="176" y="405"/>
      <point x="232" y="459"/>
      <point x="340" y="459" type="curve" smooth="yes"/>
      <point x="430" y="459"/>
      <point x="500" y="409"/>
      <point x="520" y="326" type="curve"/>
      <point x="489" y="177" type="line"/>
      <point x="457" y="123"/>
      <point x="390" y="95"/>
    </contour>
  </outline>
</glyph>
<glyph name="h" format="2">
  <advance width="664"/>
  <unicode hex="0068"/>
  <note>
h
</note>
  <anchor x="292" y="0" name="bottom"/>
  <anchor x="242" y="625" name="center"/>
  <anchor x="207" y="729" name="top"/>
  <outline>
    <contour>
      <point x="4" y="0" type="line"/>
      <point x="102" y="0" type="line"/>
      <point x="176" y="351" type="line"/>
      <point x="227" y="415"/>
      <point x="311" y="457"/>
      <point x="394" y="457" type="curve" smooth="yes"/>
      <point x="504" y="457"/>
      <point x="543" y="390"/>
      <point x="520" y="279" type="curve" smooth="yes"/>
      <point x="461" y="0" type="line"/>
      <point x="559" y="0" type="line"/>
      <point x="620" y="288" type="line" smooth="yes"/>
      <point x="650" y="432"/>
      <point x="577" y="536"/>
      <point x="432" y="536" type="curve" smooth="yes"/>
      <point x="343" y="536"/>
      <point x="258" y="501"/>
      <point x="199" y="437" type="curve"/>
      <point x="196" y="437" type="line"/>
      <point x="256" y="729" type="line"/>
      <point x="158" y="729" type="line"/>
    </contour>
  </outline>
</glyph>
<glyph name="k" format="2">
  <advance width="659"/>
  <unicode hex="006B"/>
  <note>
k
</note>
  <anchor x="274" y="0" name="bottom"/>
  <anchor x="443" y="800" name="top"/>
  <outline>
    <contour>
      <point x="4" y="0" type="line"/>
      <point x="102" y="0" type="line"/>
      <point x="256" y="729" type="line"/>
      <point x="158" y="729" type="line"/>
    </contour>
    <contour>
      <point x="467" y="0" type="line"/>
      <point x="581" y="0" type="line"/>
      <point x="375" y="334" type="line"/>
      <point x="296" y="287" type="line"/>
    </contour>
    <contour>
      <point x="124" y="155" type="line"/>
      <point x="316" y="282" type="line"/>
      <point x="338" y="292" type="line"/>
      <point x="693" y="525" type="line"/>
      <point x="554" y="525" type="line"/>
      <point x="146" y="255" type="line"/>
    </contour>
  </outline>
</glyph>
<glyph name="l" format="2">
  <advance width="217"/>
  <unicode hex="006C"/>
  <note>
l
</note>
  <anchor x="54" y="0" name="bottom"/>
  <anchor x="131" y="365" name="center"/>
  <anchor x="207" y="729" name="top"/>
  <anchor x="256" y="729" name="topright"/>
  <outline>
    <contour>
      <point x="4" y="0" type="line"/>
      <point x="102" y="0" type="line"/>
      <point x="256" y="729" type="line"/>
      <point x="158" y="729" type="line"/>
    </contour>
  </outline>
</glyph>
<glyph name="m" format="2">
  <advance width="1103"/>
  <unicode hex="006D"/>
  <note>
m
</note>
  <anchor x="511" y="0" name="bottom"/>
  <anchor x="623" y="525" name="top"/>
  <outline>
    <contour>
      <point x="6" y="0" type="line"/>
      <point x="103" y="0" type="line"/>
      <point x="177" y="351" type="line"/>
      <point x="228" y="415"/>
      <point x="308" y="457"/>
      <point x="390" y="457" type="curve" smooth="yes"/>
      <point x="495" y="457"/>
      <point x="534" y="391"/>
      <point x="511" y="279" type="curve" smooth="yes"/>
      <point x="454" y="0" type="line"/>
      <point x="550" y="0" type="line"/>
      <point x="611" y="288" type="line" smooth="yes"/>
      <point x="615" y="306"/>
      <point x="617" y="325"/>
      <point x="618" y="343" type="curve"/>
      <point x="669" y="413"/>
      <point x="755" y="457"/>
      <point x="836" y="457" type="curve" smooth="yes"/>
      <point x="941" y="457"/>
      <point x="982" y="391"/>
      <point x="958" y="279" type="curve" smooth="yes"/>
      <point x="900" y="0" type="line"/>
      <point x="998" y="0" type="line"/>
      <point x="1058" y="287" type="line" smooth="yes"/>
      <point x="1089" y="437"/>
      <point x="1013" y="536"/>
      <point x="873" y="536" type="curve" smooth="yes"/>
      <point x="787" y="536"/>
      <point x="692" y="502"/>
      <point x="614" y="417" type="curve"/>
      <point x="608" y="417" type="line"/>
      <point x="585" y="492"/>
      <point x="520" y="536"/>
      <point x="427" y="536" type="curve" smooth="yes"/>
      <point x="341" y="536"/>
      <point x="257" y="500"/>
      <point x="199" y="437" type="curve"/>
      <point x="194" y="437" type="line"/>
      <point x="207" y="525" type="line"/>
      <point x="115" y="525" type="line"/>
    </contour>
  </outline>
</glyph>
<glyph name="n" format="2">
  <advance width="665"/>
  <unicode hex="006E"/>
  <note>
n
</note>
  <anchor x="293" y="0" name="bottom"/>
  <anchor x="405" y="525" name="top"/>
  <outline>
    <contour>
      <point x="4" y="0" type="line"/>
      <point x="102" y="0" type="line"/>
      <point x="176" y="351" type="line"/>
      <point x="227" y="415"/>
      <point x="310" y="457"/>
      <point x="394" y="457" type="curve" smooth="yes"/>
      <point x="504" y="457"/>
      <point x="544" y="390"/>
      <point x="521" y="279" type="curve" smooth="yes"/>
      <point x="462" y="0" type="line"/>
      <point x="560" y="0" type="line"/>
      <point x="621" y="288" type="line" smooth="yes"/>
      <point x="651" y="432"/>
      <point x="577" y="536"/>
      <point x="432" y="536" type="curve" smooth="yes"/>
      <point x="343" y="536"/>
      <point x="258" y="501"/>
      <point x="200" y="437" type="curve"/>
      <point x="195" y="437" type="line"/>
      <point x="207" y="525" type="line"/>
      <point x="115" y="525" type="line"/>
    </contour>
  </outline>
</glyph>
<glyph name="o" format="2">
  <advance width="688"/>
  <unicode hex="006F"/>
  <note>
o
</note>
  <anchor x="494" y="0" name="#exit"/>
  <anchor x="325" y="0" name="bottom"/>
  <anchor x="356" y="263" name="center"/>
  <anchor x="578" y="10" name="ogonek"/>
  <anchor x="373" y="525" name="top"/>
  <anchor x="499" y="504" name="topright"/>
  <outline>
    <contour>
      <point x="322" y="-11" type="curve" smooth="yes"/>
      <point x="489" y="-11"/>
      <point x="615" y="72"/>
      <point x="642" y="211" type="curve" smooth="yes"/>
      <point x="644" y="222" type="line" smooth="yes"/>
      <point x="681" y="410"/>
      <point x="570" y="535"/>
      <point x="365" y="535" type="curve" smooth="yes"/>
      <point x="199" y="535"/>
      <point x="73" y="452"/>
      <point x="46" y="312" type="curve" smooth="yes"/>
      <point x="43" y="302" type="line" smooth="yes"/>
      <point x="6" y="114"/>
      <point x="118" y="-11"/>
    </contour>
    <contour>
      <point x="328" y="64" type="curve" smooth="yes"/>
      <point x="191" y="64"/>
      <point x="117" y="138"/>
      <point x="145" y="273" type="curve" smooth="yes"/>
      <point x="155" y="318" type="line" smooth="yes"/>
      <point x="174" y="412"/>
      <point x="250" y="460"/>
      <point x="360" y="460" type="curve" smooth="yes"/>
      <point x="496" y="460"/>
      <point x="571" y="385"/>
      <point x="543" y="251" type="curve" smooth="yes"/>
      <point x="533" y="206" type="line" smooth="yes"/>
      <point x="513" y="112"/>
      <point x="438" y="64"/>
    </contour>
  </outline>
</glyph>
<glyph name="p" format="2">
  <advance width="692"/>
  <unicode hex="0070"/>
  <note>
p
</note>
  <anchor x="296" y="0" name="bottom"/>
  <anchor x="407" y="525" name="top"/>
  <outline>
    <contour>
      <point x="-29" y="-167" type="line"/>
      <point x="70" y="-167" type="line"/>
      <point x="128" y="114" type="line"/>
      <point x="133" y="114" type="line"/>
      <point x="168" y="42"/>
      <point x="252" y="-9"/>
      <point x="361" y="-9" type="curve" smooth="yes"/>
      <point x="505" y="-9"/>
      <point x="618" y="73"/>
      <point x="646" y="210" type="curve" smooth="yes"/>
      <point x="648" y="221" type="line" smooth="yes"/>
      <point x="686" y="408"/>
      <point x="569" y="536"/>
      <point x="399" y="536" type="curve" smooth="yes"/>
      <point x="324" y="536"/>
      <point x="248" y="508"/>
      <point x="207" y="466" type="curve"/>
      <point x="201" y="466" type="line"/>
      <point x="202" y="525" type="line"/>
      <point x="115" y="525" type="line"/>
    </contour>
    <contour>
      <point x="339" y="67" type="curve" smooth="yes"/>
      <point x="248" y="67"/>
      <point x="172" y="113"/>
      <point x="146" y="207" type="curve"/>
      <point x="182" y="375" type="line"/>
      <point x="218" y="428"/>
      <point x="286" y="460"/>
      <point x="366" y="460" type="curve" smooth="yes"/>
      <point x="491" y="460"/>
      <point x="575" y="379"/>
      <point x="546" y="243" type="curve" smooth="yes"/>
      <point x="539" y="209" type="line" smooth="yes"/>
      <point x="520" y="122"/>
      <point x="447" y="67"/>
    </contour>
  </outline>
</glyph>
<glyph name="q" format="2">
  <advance width="692"/>
  <unicode hex="0071"/>
  <note>
q
</note>
  <anchor x="303" y="0" name="bottom"/>
  <anchor x="414" y="525" name="top"/>
  <outline>
    <contour>
      <point x="444" y="-167" type="line"/>
      <point x="542" y="-167" type="line"/>
      <point x="688" y="525" type="line"/>
      <point x="602" y="525" type="line"/>
      <point x="564" y="411" type="line"/>
      <point x="559" y="411" type="line"/>
      <point x="524" y="484"/>
      <point x="440" y="535"/>
      <point x="332" y="535" type="curve" smooth="yes"/>
      <point x="188" y="535"/>
      <point x="74" y="454"/>
      <point x="47" y="315" type="curve" smooth="yes"/>
      <point x="44" y="304" type="line" smooth="yes"/>
      <point x="7" y="117"/>
      <point x="124" y="-11"/>
      <point x="295" y="-11" type="curve" smooth="yes"/>
      <point x="369" y="-11"/>
      <point x="444" y="13"/>
      <point x="486" y="61" type="curve"/>
      <point x="492" y="61" type="line"/>
    </contour>
    <contour>
      <point x="327" y="64" type="curve" smooth="yes"/>
      <point x="202" y="64"/>
      <point x="118" y="147"/>
      <point x="146" y="282" type="curve" smooth="yes"/>
      <point x="154" y="316" type="line" smooth="yes"/>
      <point x="172" y="404"/>
      <point x="245" y="458"/>
      <point x="354" y="458" type="curve" smooth="yes"/>
      <point x="444" y="458"/>
      <point x="521" y="412"/>
      <point x="546" y="319" type="curve"/>
      <point x="510" y="151" type="line"/>
      <point x="474" y="98"/>
      <point x="407" y="64"/>
    </contour>
  </outline>
</glyph>
<glyph name="r" format="2">
  <advance width="377"/>
  <unicode hex="0072"/>
  <note>
r
</note>
  <anchor x="54" y="0" name="bottom"/>
  <anchor x="247" y="525" name="top"/>
  <outline>
    <contour>
      <point x="5" y="0" type="line"/>
      <point x="104" y="0" type="line"/>
      <point x="176" y="348" type="line"/>
      <point x="231" y="410"/>
      <point x="267" y="436"/>
      <point x="348" y="436" type="curve" smooth="yes"/>
      <point x="388" y="436" type="line"/>
      <point x="407" y="530" type="line"/>
      <point x="375" y="530" type="line" smooth="yes"/>
      <point x="298" y="530"/>
      <point x="250" y="499"/>
      <point x="202" y="437" type="curve"/>
      <point x="194" y="437" type="line"/>
      <point x="199" y="525" type="line"/>
      <point x="115" y="525" type="line"/>
    </contour>
  </outline>
</glyph>
<glyph name="s" format="2">
  <advance width="583"/>
  <unicode hex="0073"/>
  <note>
s
</note>
  <anchor x="244" y="0" name="bottom"/>
  <anchor x="356" y="525" name="top"/>
  <outline>
    <contour>
      <point x="278" y="-11" type="curve" smooth="yes"/>
      <point x="414" y="-11"/>
      <point x="525" y="38"/>
      <point x="525" y="150" type="curve" smooth="yes"/>
      <point x="525" y="221"/>
      <point x="482" y="271"/>
      <point x="360" y="295" type="curve" smooth="yes"/>
      <point x="263" y="315" type="line" smooth="yes"/>
      <point x="194" y="328"/>
      <point x="170" y="353"/>
      <point x="170" y="387" type="curve" smooth="yes"/>
      <point x="170" y="441"/>
      <point x="226" y="468"/>
      <point x="305" y="468" type="curve" smooth="yes"/>
      <point x="394" y="468"/>
      <point x="460" y="437"/>
      <point x="468" y="377" type="curve"/>
      <point x="563" y="377" type="line"/>
      <point x="552" y="469"/>
      <point x="461" y="535"/>
      <point x="310" y="535" type="curve" smooth="yes"/>
      <point x="181" y="535"/>
      <point x="72" y="483"/>
      <point x="72" y="371" type="curve" smooth="yes"/>
      <point x="72" y="313"/>
      <point x="110" y="267"/>
      <point x="224" y="243" type="curve" smooth="yes"/>
      <point x="335" y="220" type="line" smooth="yes"/>
      <point x="401" y="205"/>
      <point x="422" y="181"/>
      <point x="422" y="138" type="curve" smooth="yes"/>
      <point x="422" y="84"/>
      <point x="366" y="57"/>
      <point x="278" y="57" type="curve" smooth="yes"/>
      <point x="182" y="57"/>
      <point x="109" y="88"/>
      <point x="101" y="146" type="curve"/>
      <point x="2" y="146" type="line"/>
      <point x="16" y="52"/>
      <point x="115" y="-11"/>
    </contour>
  </outline>
</glyph>
<glyph name="t" format="2">
  <advance width="417"/>
  <unicode hex="0074"/>
  <note>
t
</note>
  <anchor x="221" y="0" name="bottom"/>
  <anchor x="203" y="275" name="center"/>
  <anchor x="283" y="525" name="top"/>
  <anchor x="327" y="687" name="topright"/>
  <outline>
    <contour>
      <point x="167" y="0" type="curve" smooth="yes"/>
      <point x="329" y="0" type="line"/>
      <point x="347" y="84" type="line"/>
      <point x="200" y="84" type="line"/>
      <point x="325" y="679" type="line"/>
      <point x="226" y="679" type="line"/>
      <point x="101" y="79" type="line" smooth="yes"/>
      <point x="89" y="26"/>
      <point x="110" y="0"/>
    </contour>
    <contour>
      <point x="66" y="446" type="line"/>
      <point x="412" y="446" type="line"/>
      <point x="428" y="525" type="line"/>
      <point x="82" y="525" type="line"/>
    </contour>
  </outline>
</glyph>
<glyph name="v" format="2">
  <advance width="700"/>
  <unicode hex="0076"/>
  <note>
v
</note>
  <anchor x="306" y="0" name="bottom"/>
  <anchor x="417" y="525" name="top"/>
  <outline>
    <contour>
      <point x="240" y="0" type="line"/>
      <point x="352" y="0" type="line"/>
      <point x="735" y="525" type="line"/>
      <point x="623" y="525" type="line"/>
      <point x="344" y="129" type="line"/>
      <point x="310" y="82" type="line"/>
      <point x="302" y="82" type="line"/>
      <point x="288" y="129" type="line"/>
      <point x="175" y="525" type="line"/>
      <point x="77" y="525" type="line"/>
    </contour>
  </outline>
</glyph>
<glyph name="w" format="2">
  <advance width="978"/>
  <unicode hex="0077"/>
  <note>
w
</note>
  <anchor x="446" y="0" name="bottom"/>
  <anchor x="540" y="525" name="top"/>
  <outline>
    <contour>
      <point x="168" y="0" type="line"/>
      <point x="290" y="0" type="line"/>
      <point x="481" y="349" type="line"/>
      <point x="514" y="417" type="line"/>
      <point x="523" y="417" type="line"/>
      <point x="529" y="349" type="line"/>
      <point x="570" y="0" type="line"/>
      <point x="701" y="0" type="line"/>
      <point x="1012" y="525" type="line"/>
      <point x="903" y="525" type="line"/>
      <point x="687" y="144" type="line"/>
      <point x="655" y="85" type="line"/>
      <point x="648" y="85" type="line"/>
      <point x="642" y="144" type="line"/>
      <point x="597" y="525" type="line"/>
      <point x="483" y="525" type="line"/>
      <point x="276" y="144" type="line"/>
      <point x="247" y="85" type="line"/>
      <point x="238" y="85" type="line"/>
      <point x="231" y="144" type="line"/>
      <point x="176" y="525" type="line"/>
      <point x="78" y="525" type="line"/>
    </contour>
  </outline>
</glyph>
<glyph name="x" format="2">
  <advance width="684"/>
  <unicode hex="0078"/>
  <note>
x
</note>
  <anchor x="293" y="0" name="bottom"/>
  <anchor x="405" y="525" name="top"/>
  <outline>
    <contour>
      <point x="-36" y="0" type="line"/>
      <point x="84" y="0" type="line"/>
      <point x="325" y="212" type="line"/>
      <point x="333" y="212" type="line"/>
      <point x="492" y="0" type="line"/>
      <point x="607" y="0" type="line"/>
      <point x="401" y="267" type="line"/>
      <point x="700" y="525" type="line"/>
      <point x="578" y="525" type="line"/>
      <point x="352" y="326" type="line"/>
      <point x="345" y="326" type="line"/>
      <point x="199" y="525" type="line"/>
      <point x="89" y="525" type="line"/>
      <point x="284" y="276" type="line"/>
    </contour>
  </outline>
</glyph>
<glyph name="y" format="2">
  <advance width="678"/>
  <unicode hex="0079"/>
  <note>
y
</note>
  <anchor x="475" y="0" name="bottom"/>
  <anchor x="362" y="525" name="top"/>
  <outline>
    <contour>
      <point x="-32" y="-167" type="line"/>
      <point x="214" y="-167" type="line" smooth="yes"/>
      <point x="265" y="-167"/>
      <point x="305" y="-143"/>
      <point x="316" y="-90" type="curve" smooth="yes"/>
      <point x="347" y="59" type="line"/>
      <point x="713" y="525" type="line"/>
      <point x="597" y="525" type="line"/>
      <point x="376" y="233" type="line"/>
      <point x="311" y="147" type="line"/>
      <point x="303" y="147" type="line"/>
      <point x="276" y="230" type="line"/>
      <point x="175" y="525" type="line"/>
      <point x="77" y="525" type="line"/>
      <point x="248" y="58" type="line"/>
      <point x="218" y="-81" type="line"/>
      <point x="-14" y="-81" type="line"/>
    </contour>
  </outline>
</glyph>
<glyph name="z" format="2">
  <advance width="586"/>
  <unicode hex="007A"/>
  <note>
z
</note>
  <anchor x="239" y="0" name="bottom"/>
  <anchor x="295" y="263" name="center"/>
  <anchor x="351" y="525" name="top"/>
  <outline>
    <contour>
      <point x="-27" y="0" type="line"/>
      <point x="498" y="0" type="line"/>
      <point x="515" y="80" type="line"/>
      <point x="132" y="80" type="line"/>
      <point x="591" y="455" type="line"/>
      <point x="605" y="525" type="line"/>
      <point x="105" y="525" type="line"/>
      <point x="88" y="446" type="line"/>
      <point x="443" y="446" type="line"/>
      <point x="-12" y="71" type="line"/>
    </contour>
  </outline>
</glyph>
<glyph name="braceleft" format="2">
  <advance width="431"/>
  <unicode hex="007B"/>
  <outline>
    <contour>
      <point x="118" y="-167" type="curve" smooth="yes"/>
      <point x="302" y="-167" type="line"/>
      <point x="318" y="-93" type="line"/>
      <point x="146" y="-93" type="line"/>
      <point x="207" y="197" type="line" smooth="yes"/>
      <point x="220" y="258"/>
      <point x="201" y="304"/>
      <point x="156" y="314" type="curve"/>
      <point x="157" y="317" type="line"/>
      <point x="199" y="323"/>
      <point x="242" y="361"/>
      <point x="257" y="431" type="curve" smooth="yes"/>
      <point x="318" y="717" type="line"/>
      <point x="490" y="717" type="line"/>
      <point x="506" y="792" type="line"/>
      <point x="322" y="792" type="line" smooth="yes"/>
      <point x="275" y="792"/>
      <point x="246" y="760"/>
      <point x="237" y="717" type="curve" smooth="yes"/>
      <point x="177" y="436" type="line" smooth="yes"/>
      <point x="165" y="379"/>
      <point x="141" y="354"/>
      <point x="97" y="354" type="curve" smooth="yes"/>
      <point x="54" y="354" type="line"/>
      <point x="37" y="273" type="line"/>
      <point x="80" y="273" type="line" smooth="yes"/>
      <point x="124" y="273"/>
      <point x="137" y="249"/>
      <point x="125" y="192" type="curve" smooth="yes"/>
      <point x="65" y="-92" type="line" smooth="yes"/>
      <point x="56" y="-134"/>
      <point x="71" y="-167"/>
    </contour>
  </outline>
</glyph>
<glyph name="bar" format="2">
  <advance width="311"/>
  <unicode hex="007C"/>
  <outline>
    <contour>
      <point x="43" y="-67" type="line"/>
      <point x="127" y="-67" type="line"/>
      <point x="297" y="729" type="line"/>
      <point x="214" y="729" type="line"/>
    </contour>
  </outline>
</glyph>
<glyph name="asciitilde" format="2">
  <advance width="700"/>
  <unicode hex="007E"/>
  <outline>
    <contour>
      <point x="162" y="297" type="curve"/>
      <point x="210" y="297" type="line"/>
      <point x="213" y="332"/>
      <point x="229" y="360"/>
      <point x="272" y="360" type="curve" smooth="yes"/>
      <point x="322" y="360"/>
      <point x="383" y="294"/>
      <point x="460" y="294" type="curve" smooth="yes"/>
      <point x="519" y="294"/>
      <point x="573" y="332"/>
      <point x="583" y="435" type="curve"/>
      <point x="535" y="435" type="line"/>
      <point x="530" y="401"/>
      <point x="516" y="373"/>
      <point x="470" y="373" type="curve" smooth="yes"/>
      <point x="417" y="373"/>
      <point x="356" y="437"/>
      <point x="286" y="437" type="curve" smooth="yes"/>
      <point x="223" y="437"/>
      <point x="170" y="395"/>
    </contour>
  </outline>
</glyph>
<glyph name="cent" format="2">
  <advance width="696"/>
  <unicode hex="00A2"/>
  <anchor x="353" y="102" name="bottom"/>
  <anchor x="410" y="627" name="top"/>
  <outline>
    <contour>
      <point x="394" y="609" type="line"/>
      <point x="469" y="609" type="line"/>
      <point x="502" y="729" type="line"/>
      <point x="411" y="729" type="line"/>
    </contour>
    <contour>
      <point x="257" y="0" type="line"/>
      <point x="348" y="0" type="line"/>
      <point x="365" y="128" type="line"/>
      <point x="292" y="128" type="line"/>
    </contour>
    <contour>
      <point x="357" y="91" type="curve" smooth="yes"/>
      <point x="489" y="91"/>
      <point x="617" y="157"/>
      <point x="656" y="269" type="curve"/>
      <point x="556" y="269" type="line"/>
      <point x="528" y="203"/>
      <point x="449" y="166"/>
      <point x="363" y="166" type="curve" smooth="yes"/>
      <point x="226" y="166"/>
      <point x="145" y="240"/>
      <point x="175" y="375" type="curve" smooth="yes"/>
      <point x="185" y="420" type="line" smooth="yes"/>
      <point x="206" y="514"/>
      <point x="285" y="562"/>
      <point x="394" y="562" type="curve" smooth="yes"/>
      <point x="490" y="562"/>
      <point x="560" y="522"/>
      <point x="578" y="451" type="curve"/>
      <point x="676" y="451" type="line"/>
      <point x="655" y="562"/>
      <point x="545" y="637"/>
      <point x="400" y="637" type="curve" smooth="yes"/>
      <point x="234" y="637"/>
      <point x="108" y="554"/>
      <point x="81" y="414" type="curve" smooth="yes"/>
      <point x="78" y="404" type="line" smooth="yes"/>
      <point x="41" y="216"/>
      <point x="153" y="91"/>
    </contour>
  </outline>
</glyph>
<glyph name="sterling" format="2">
  <advance width="714"/>
  <unicode hex="00A3"/>
  <outline>
    <contour>
      <point x="-7" y="0" type="line"/>
      <point x="606" y="0" type="line"/>
      <point x="647" y="193" type="line"/>
      <point x="566" y="193" type="line"/>
      <point x="542" y="83" type="line"/>
      <point x="187" y="83" type="line"/>
      <point x="236" y="321" type="line"/>
      <point x="507" y="321" type="line"/>
      <point x="522" y="396" type="line"/>
      <point x="251" y="396" type="line"/>
      <point x="274" y="506" type="line" smooth="yes"/>
      <point x="295" y="603"/>
      <point x="344" y="661"/>
      <point x="463" y="659" type="curve" smooth="yes"/>
      <point x="565" y="658"/>
      <point x="627" y="604"/>
      <point x="616" y="508" type="curve" smooth="yes"/>
      <point x="614" y="491" type="line"/>
      <point x="702" y="491" type="line"/>
      <point x="704" y="511" type="line" smooth="yes"/>
      <point x="717" y="649"/>
      <point x="613" y="737"/>
      <point x="458" y="737" type="curve" smooth="yes"/>
      <point x="319" y="737"/>
      <point x="217" y="671"/>
      <point x="186" y="525" type="curve" smooth="yes"/>
      <point x="158" y="396" type="line"/>
      <point x="72" y="378" type="line"/>
      <point x="63" y="321" type="line"/>
      <point x="143" y="321" type="line"/>
      <point x="92" y="83" type="line"/>
      <point x="11" y="83" type="line"/>
    </contour>
  </outline>
</glyph>
<glyph name="currency" format="2">
  <advance width="751"/>
  <unicode hex="00A4"/>
  <outline>
    <contour>
      <point x="163" y="71" type="line"/>
      <point x="276" y="183" type="line"/>
      <point x="309" y="163"/>
      <point x="348" y="153"/>
      <point x="394" y="153" type="curve" smooth="yes"/>
      <point x="437" y="153"/>
      <point x="479" y="162"/>
      <point x="512" y="184" type="curve"/>
      <point x="626" y="71" type="line"/>
      <point x="677" y="126" type="line"/>
      <point x="564" y="236" type="line"/>
      <point x="589" y="268"/>
      <point x="604" y="310"/>
      <point x="604" y="353" type="curve" smooth="yes"/>
      <point x="604" y="397"/>
      <point x="588" y="437"/>
      <point x="564" y="471" type="curve"/>
      <point x="677" y="579" type="line"/>
      <point x="626" y="636" type="line"/>
      <point x="511" y="522" type="line"/>
      <point x="479" y="543"/>
      <point x="436" y="553"/>
      <point x="394" y="553" type="curve" smooth="yes"/>
      <point x="349" y="553"/>
      <point x="309" y="542"/>
      <point x="277" y="522" type="curve"/>
      <point x="163" y="636" type="line"/>
      <point x="112" y="579" type="line"/>
      <point x="224" y="471" type="line"/>
      <point x="200" y="439"/>
      <point x="184" y="396"/>
      <point x="184" y="353" type="curve" smooth="yes"/>
      <point x="184" y="309"/>
      <point x="200" y="268"/>
      <point x="223" y="236" type="curve"/>
      <point x="112" y="126" type="line"/>
    </contour>
    <contour>
      <point x="394" y="229" type="curve" smooth="yes"/>
      <point x="316" y="229"/>
      <point x="258" y="281"/>
      <point x="258" y="352" type="curve" smooth="yes"/>
      <point x="258" y="425"/>
      <point x="315" y="476"/>
      <point x="394" y="476" type="curve" smooth="yes"/>
      <point x="471" y="476"/>
      <point x="529" y="425"/>
      <point x="529" y="352" type="curve" smooth="yes"/>
      <point x="529" y="282"/>
      <point x="472" y="229"/>
    </contour>
  </outline>
</glyph>
<glyph name="brokenbar" format="2">
  <advance width="311"/>
  <unicode hex="00A6"/>
  <outline>
    <contour>
      <point x="144" y="403" type="line"/>
      <point x="227" y="403" type="line"/>
      <point x="297" y="729" type="line"/>
      <point x="214" y="729" type="line"/>
    </contour>
    <contour>
      <point x="43" y="-67" type="line"/>
      <point x="127" y="-67" type="line"/>
      <point x="197" y="259" type="line"/>
      <point x="113" y="259" type="line"/>
    </contour>
  </outline>
</glyph>
<glyph name="section" format="2">
  <advance width="528"/>
  <unicode hex="00A7"/>
  <outline>
    <contour>
      <point x="236" y="-10" type="curve" smooth="yes"/>
      <point x="357" y="-10"/>
      <point x="442" y="50"/>
      <point x="442" y="156" type="curve" smooth="yes"/>
      <point x="442" y="188"/>
      <point x="432" y="213"/>
      <point x="413" y="233" type="curve"/>
      <point x="465" y="259"/>
      <point x="493" y="303"/>
      <point x="493" y="358" type="curve" smooth="yes"/>
      <point x="493" y="440"/>
      <point x="432" y="473"/>
      <point x="341" y="497" type="curve" smooth="yes"/>
      <point x="260" y="518"/>
      <point x="216" y="540"/>
      <point x="216" y="584" type="curve" smooth="yes"/>
      <point x="216" y="643"/>
      <point x="263" y="681"/>
      <point x="335" y="681" type="curve" smooth="yes"/>
      <point x="415" y="681"/>
      <point x="467" y="642"/>
      <point x="461" y="577" type="curve"/>
      <point x="535" y="577" type="line"/>
      <point x="537" y="674"/>
      <point x="457" y="737"/>
      <point x="338" y="737" type="curve" smooth="yes"/>
      <point x="231" y="737"/>
      <point x="141" y="681"/>
      <point x="141" y="578" type="curve" smooth="yes"/>
      <point x="141" y="546"/>
      <point x="152" y="520"/>
      <point x="176" y="498" type="curve"/>
      <point x="124" y="472"/>
      <point x="90" y="422"/>
      <point x="90" y="371" type="curve" smooth="yes"/>
      <point x="90" y="295"/>
      <point x="147" y="262"/>
      <point x="242" y="236" type="curve" smooth="yes"/>
      <point x="329" y="214"/>
      <point x="366" y="195"/>
      <point x="366" y="149" type="curve" smooth="yes"/>
      <point x="366" y="83"/>
      <point x="319" y="47"/>
      <point x="236" y="47" type="curve" smooth="yes"/>
      <point x="148" y="47"/>
      <point x="92" y="91"/>
      <point x="96" y="165" type="curve"/>
      <point x="24" y="165" type="line"/>
      <point x="19" y="57"/>
      <point x="102" y="-10"/>
    </contour>
    <contour>
      <point x="364" y="262" type="curve"/>
      <point x="337" y="279"/>
      <point x="303" y="290"/>
      <point x="270" y="297" type="curve" smooth="yes"/>
      <point x="199" y="315"/>
      <point x="164" y="335"/>
      <point x="164" y="380" type="curve" smooth="yes"/>
      <point x="164" y="419"/>
      <point x="188" y="450"/>
      <point x="226" y="470" type="curve"/>
      <point x="247" y="458"/>
      <point x="275" y="449"/>
      <point x="310" y="440" type="curve" smooth="yes"/>
      <point x="383" y="421"/>
      <point x="416" y="398"/>
      <point x="416" y="349" type="curve" smooth="yes"/>
      <point x="416" y="310"/>
      <point x="398" y="284"/>
    </contour>
  </outline>
</glyph>
<glyph name="ordfeminine" format="2">
  <advance width="428"/>
  <unicode hex="00AA"/>
  <outline>
    <contour>
      <point x="215" y="386" type="curve" smooth="yes"/>
      <point x="278" y="386"/>
      <point x="331" y="411"/>
      <point x="348" y="448" type="curve"/>
      <point x="352" y="448" type="line"/>
      <point x="355" y="392" type="line"/>
      <point x="417" y="392" type="line"/>
      <point x="417" y="621" type="line" smooth="yes"/>
      <point x="417" y="692"/>
      <point x="368" y="743"/>
      <point x="262" y="743" type="curve" smooth="yes"/>
      <point x="166" y="743"/>
      <point x="103" y="698"/>
      <point x="101" y="630" type="curve"/>
      <point x="163" y="630" type="line"/>
      <point x="165" y="663"/>
      <point x="199" y="686"/>
      <point x="259" y="686" type="curve" smooth="yes"/>
      <point x="315" y="686"/>
      <point x="349" y="667"/>
      <point x="349" y="622" type="curve" smooth="yes"/>
      <point x="349" y="598" type="line"/>
      <point x="363" y="605" type="line"/>
      <point x="223" y="594" type="line" smooth="yes"/>
      <point x="143" y="586"/>
      <point x="90" y="557"/>
      <point x="90" y="486" type="curve" smooth="yes"/>
      <point x="90" y="482" type="line" smooth="yes"/>
      <point x="90" y="420"/>
      <point x="141" y="386"/>
    </contour>
    <contour>
      <point x="240" y="440" type="curve" smooth="yes"/>
      <point x="194" y="440"/>
      <point x="161" y="459"/>
      <point x="161" y="490" type="curve" smooth="yes"/>
      <point x="161" y="498" type="line" smooth="yes"/>
      <point x="161" y="534"/>
      <point x="190" y="551"/>
      <point x="239" y="555" type="curve" smooth="yes"/>
      <point x="349" y="563" type="line"/>
      <point x="349" y="510" type="line" smooth="yes"/>
      <point x="349" y="467"/>
      <point x="303" y="440"/>
    </contour>
  </outline>
</glyph>
<glyph name="logicalnot" format="2">
  <advance width="721"/>
  <unicode hex="00AC"/>
  <outline>
    <contour>
      <point x="480" y="121" type="line"/>
      <point x="554" y="121" type="line"/>
      <point x="615" y="404" type="line"/>
      <point x="120" y="404" type="line"/>
      <point x="102" y="324" type="line"/>
      <point x="524" y="324" type="line"/>
    </contour>
  </outline>
</glyph>
<glyph name="registered" format="2">
  <advance width="660"/>
  <unicode hex="00AE"/>
  <outline>
    <contour>
      <point x="365" y="224" type="curve"/>
      <point x="534" y="224"/>
      <point x="651" y="335"/>
      <point x="651" y="498" type="curve" smooth="yes"/>
      <point x="651" y="642"/>
      <point x="545" y="739"/>
      <point x="388" y="739" type="curve" smooth="yes"/>
      <point x="220" y="739"/>
      <point x="102" y="627"/>
      <point x="102" y="466" type="curve" smooth="yes"/>
      <point x="102" y="321"/>
      <point x="208" y="224"/>
    </contour>
    <contour>
      <point x="365" y="260" type="curve" smooth="yes"/>
      <point x="229" y="260"/>
      <point x="139" y="342"/>
      <point x="139" y="466" type="curve" smooth="yes"/>
      <point x="139" y="607"/>
      <point x="239" y="704"/>
      <point x="388" y="704" type="curve" smooth="yes"/>
      <point x="524" y="704"/>
      <point x="614" y="621"/>
      <point x="614" y="496" type="curve" smooth="yes"/>
      <point x="614" y="355"/>
      <point x="513" y="260"/>
    </contour>
    <contour>
      <point x="235" y="354" type="line"/>
      <point x="285" y="354" type="line"/>
      <point x="330" y="560" type="line"/>
      <point x="441" y="560" type="line" smooth="yes"/>
      <point x="469" y="560"/>
      <point x="477" y="543"/>
      <point x="475" y="523" type="curve" smooth="yes"/>
      <point x="473" y="516" type="line" smooth="yes"/>
      <point x="470" y="500"/>
      <point x="458" y="489"/>
      <point x="430" y="489" type="curve" smooth="yes"/>
      <point x="304" y="489" type="line"/>
      <point x="296" y="448" type="line"/>
      <point x="373" y="448" type="line"/>
      <point x="441" y="354" type="line"/>
      <point x="499" y="354" type="line"/>
      <point x="422" y="456" type="line"/>
      <point x="422" y="450" type="line"/>
      <point x="430" y="450" type="line" smooth="yes"/>
      <point x="493" y="450"/>
      <point x="525" y="484"/>
      <point x="525" y="532" type="curve" smooth="yes"/>
      <point x="525" y="577"/>
      <point x="492" y="603"/>
      <point x="441" y="603" type="curve" smooth="yes"/>
      <point x="288" y="603" type="line"/>
    </contour>
  </outline>
</glyph>
<glyph name="degree" format="2">
  <advance width="400"/>
  <unicode hex="00B0"/>
  <outline>
    <contour>
      <point x="260" y="429" type="curve" smooth="yes"/>
      <point x="351" y="429"/>
      <point x="425" y="492"/>
      <point x="427" y="584" type="curve" smooth="yes"/>
      <point x="431" y="676"/>
      <point x="362" y="738"/>
      <point x="271" y="738" type="curve" smooth="yes"/>
      <point x="181" y="738"/>
      <point x="109" y="675"/>
      <point x="105" y="583" type="curve" smooth="yes"/>
      <point x="103" y="492"/>
      <point x="171" y="429"/>
    </contour>
    <contour>
      <point x="261" y="485" type="curve" smooth="yes"/>
      <point x="206" y="485"/>
      <point x="164" y="525"/>
      <point x="165" y="583" type="curve" smooth="yes"/>
      <point x="168" y="642"/>
      <point x="213" y="682"/>
      <point x="269" y="682" type="curve" smooth="yes"/>
      <point x="327" y="682"/>
      <point x="368" y="642"/>
      <point x="367" y="583" type="curve" smooth="yes"/>
      <point x="365" y="525"/>
      <point x="321" y="485"/>
    </contour>
  </outline>
</glyph>
<glyph name="plusminus" format="2">
  <advance width="721"/>
  <unicode hex="00B1"/>
  <outline>
    <contour>
      <point x="294" y="182" type="line"/>
      <point x="369" y="182" type="line"/>
      <point x="406" y="352" type="line"/>
      <point x="621" y="352" type="line"/>
      <point x="637" y="433" type="line"/>
      <point x="423" y="433" type="line"/>
      <point x="459" y="599" type="line"/>
      <point x="383" y="599" type="line"/>
      <point x="347" y="433" type="line"/>
      <point x="134" y="433" type="line"/>
      <point x="118" y="352" type="line"/>
      <point x="330" y="352" type="line"/>
    </contour>
    <contour>
      <point x="43" y="0" type="line"/>
      <point x="546" y="0" type="line"/>
      <point x="561" y="74" type="line"/>
      <point x="58" y="74" type="line"/>
    </contour>
  </outline>
</glyph>
<glyph name="paragraph" format="2">
  <advance width="786"/>
  <unicode hex="00B6"/>
  <outline>
    <contour>
      <point x="286" y="-151" type="line"/>
      <point x="370" y="-151" type="line"/>
      <point x="370" y="643" type="line"/>
      <point x="554" y="643" type="line"/>
      <point x="554" y="-151" type="line"/>
      <point x="638" y="-151" type="line"/>
      <point x="638" y="643" type="line"/>
      <point x="726" y="643" type="line"/>
      <point x="726" y="729" type="line"/>
      <point x="297" y="729" type="line" smooth="yes"/>
      <point x="167" y="729"/>
      <point x="89" y="669"/>
      <point x="89" y="551" type="curve" smooth="yes"/>
      <point x="89" y="445"/>
      <point x="157" y="374"/>
      <point x="286" y="375" type="curve"/>
    </contour>
  </outline>
</glyph>
<glyph name="ordmasculine" format="2">
  <advance width="413"/>
  <unicode hex="00BA"/>
  <outline>
    <contour>
      <point x="271" y="385" type="curve" smooth="yes"/>
      <point x="376" y="385"/>
      <point x="448" y="441"/>
      <point x="448" y="562" type="curve" smooth="yes"/>
      <point x="448" y="565" type="line" smooth="yes"/>
      <point x="448" y="678"/>
      <point x="384" y="743"/>
      <point x="271" y="743" type="curve" smooth="yes"/>
      <point x="164" y="743"/>
      <point x="93" y="683"/>
      <point x="93" y="565" type="curve" smooth="yes"/>
      <point x="93" y="562" type="line" smooth="yes"/>
      <point x="93" y="449"/>
      <point x="160" y="385"/>
    </contour>
    <contour>
      <point x="271" y="444" type="curve" smooth="yes"/>
      <point x="205" y="444"/>
      <point x="164" y="481"/>
      <point x="164" y="536" type="curve" smooth="yes"/>
      <point x="164" y="592" type="line" smooth="yes"/>
      <point x="164" y="647"/>
      <point x="205" y="684"/>
      <point x="271" y="684" type="curve" smooth="yes"/>
      <point x="335" y="684"/>
      <point x="377" y="652"/>
      <point x="377" y="592" type="curve" smooth="yes"/>
      <point x="377" y="536" type="line" smooth="yes"/>
      <point x="377" y="475"/>
      <point x="335" y="444"/>
    </contour>
  </outline>
</glyph>
<glyph name="multiply" format="2">
  <advance width="721"/>
  <unicode hex="00D7"/>
  <outline>
    <contour>
      <point x="127" y="111" type="line"/>
      <point x="662" y="551" type="line"/>
      <point x="614" y="610" type="line"/>
      <point x="80" y="171" type="line"/>
    </contour>
    <contour>
      <point x="512" y="115" type="line"/>
      <point x="575" y="168" type="line"/>
      <point x="229" y="607" type="line"/>
      <point x="166" y="555" type="line"/>
    </contour>
  </outline>
</glyph>
<glyph name="Thorn" format="2">
  <advance width="695"/>
  <unicode hex="00DE"/>
  <outline>
    <contour>
      <point x="18" y="0" type="line"/>
      <point x="118" y="0" type="line"/>
      <point x="269" y="729" type="line"/>
      <point x="169" y="729" type="line"/>
    </contour>
    <contour>
      <point x="86" y="143" type="line"/>
      <point x="390" y="143" type="line" smooth="yes"/>
      <point x="560" y="143"/>
      <point x="670" y="232"/>
      <point x="675" y="385" type="curve" smooth="yes"/>
      <point x="680" y="507"/>
      <point x="601" y="587"/>
      <point x="451" y="587" type="curve" smooth="yes"/>
      <point x="181" y="587" type="line"/>
      <point x="162" y="502" type="line"/>
      <point x="439" y="502" type="line" smooth="yes"/>
      <point x="527" y="502"/>
      <point x="586" y="456"/>
      <point x="566" y="359" type="curve" smooth="yes"/>
      <point x="562" y="339" type="line" smooth="yes"/>
      <point x="546" y="270"/>
      <point x="490" y="227"/>
      <point x="404" y="227" type="curve" smooth="yes"/>
      <point x="104" y="227" type="line"/>
    </contour>
  </outline>
</glyph>
<glyph name="germandbls" format="2">
  <advance width="728"/>
  <unicode hex="00DF"/>
  <outline>
    <contour>
      <point x="86" y="0" type="line"/>
      <point x="185" y="0" type="line"/>
      <point x="289" y="505" type="line" smooth="yes"/>
      <point x="310" y="600"/>
      <point x="374" y="657"/>
      <point x="472" y="657" type="curve" smooth="yes"/>
      <point x="565" y="657"/>
      <point x="616" y="602"/>
      <point x="602" y="521" type="curve" smooth="yes"/>
      <point x="590" y="452"/>
      <point x="532" y="419"/>
      <point x="454" y="419" type="curve" smooth="yes"/>
      <point x="393" y="419" type="line"/>
      <point x="380" y="355" type="line"/>
      <point x="460" y="355" type="line" smooth="yes"/>
      <point x="551" y="355"/>
      <point x="600" y="298"/>
      <point x="580" y="205" type="curve" smooth="yes"/>
      <point x="576" y="184" type="line" smooth="yes"/>
      <point x="562" y="117"/>
      <point x="508" y="76"/>
      <point x="407" y="76" type="curve" smooth="yes"/>
      <point x="283" y="76" type="line"/>
      <point x="268" y="0" type="line"/>
      <point x="418" y="0" type="line" smooth="yes"/>
      <point x="552" y="0"/>
      <point x="652" y="55"/>
      <point x="676" y="167" type="curve" smooth="yes"/>
      <point x="694" y="243"/>
      <point x="671" y="362"/>
      <point x="563" y="386" type="curve"/>
      <point x="565" y="392" type="line"/>
      <point x="635" y="410"/>
      <point x="677" y="462"/>
      <point x="689" y="522" type="curve" smooth="yes"/>
      <point x="707" y="608"/>
      <point x="664" y="740"/>
      <point x="473" y="740" type="curve" smooth="yes"/>
      <point x="333" y="740"/>
      <point x="224" y="661"/>
      <point x="195" y="523" type="curve" smooth="yes"/>
    </contour>
    <contour>
      <point x="66" y="445" type="line"/>
      <point x="221" y="445" type="line"/>
      <point x="237" y="526" type="line"/>
      <point x="82" y="526" type="line"/>
    </contour>
  </outline>
</glyph>
<glyph name="ae" format="2">
  <advance width="1052"/>
  <unicode hex="00E6"/>
  <outline>
    <contour>
      <point x="220" y="-11" type="curve" smooth="yes"/>
      <point x="310" y="-11"/>
      <point x="396" y="22"/>
      <point x="450" y="84" type="curve"/>
      <point x="463" y="84" type="line"/>
      <point x="508" y="23"/>
      <point x="595" y="-11"/>
      <point x="696" y="-11" type="curve" smooth="yes"/>
      <point x="843" y="-12"/>
      <point x="962" y="51"/>
      <point x="997" y="149" type="curve"/>
      <point x="893" y="149" type="line"/>
      <point x="867" y="97"/>
      <point x="791" y="65"/>
      <point x="704" y="65" type="curve" smooth="yes"/>
      <point x="577" y="65"/>
      <point x="496" y="141"/>
      <point x="520" y="265" type="curve" smooth="yes"/>
      <point x="533" y="328" type="line" smooth="yes"/>
      <point x="548" y="408"/>
      <point x="623" y="460"/>
      <point x="733" y="460" type="curve" smooth="yes"/>
      <point x="848" y="460"/>
      <point x="929" y="395"/>
      <point x="920" y="294" type="curve" smooth="yes"/>
      <point x="919" y="286" type="line"/>
      <point x="943" y="311" type="line"/>
      <point x="504" y="311" type="line"/>
      <point x="490" y="241" type="line"/>
      <point x="1013" y="241" type="line"/>
      <point x="1014" y="258" type="line" smooth="yes"/>
      <point x="1025" y="434"/>
      <point x="905" y="536"/>
      <point x="735" y="536" type="curve" smooth="yes"/>
      <point x="638" y="536"/>
      <point x="558" y="507"/>
      <point x="504" y="451" type="curve"/>
      <point x="467" y="504"/>
      <point x="397" y="533"/>
      <point x="314" y="537" type="curve" smooth="yes"/>
      <point x="210" y="539"/>
      <point x="80" y="497"/>
      <point x="49" y="365" type="curve"/>
      <point x="150" y="365" type="line"/>
      <point x="162" y="424"/>
      <point x="222" y="462"/>
      <point x="304" y="460" type="curve" smooth="yes"/>
      <point x="398" y="457"/>
      <point x="447" y="410"/>
      <point x="432" y="321" type="curve" smooth="yes"/>
      <point x="429" y="295" type="line" smooth="yes"/>
      <point x="420" y="240"/>
      <point x="422" y="188"/>
      <point x="432" y="146" type="curve"/>
      <point x="392" y="95"/>
      <point x="309" y="66"/>
      <point x="242" y="66" type="curve" smooth="yes"/>
      <point x="173" y="66"/>
      <point x="136" y="94"/>
      <point x="136" y="144" type="curve" smooth="yes"/>
      <point x="136" y="206"/>
      <point x="180" y="245"/>
      <point x="297" y="245" type="curve" smooth="yes"/>
      <point x="442" y="245" type="line"/>
      <point x="456" y="311" type="line"/>
      <point x="297" y="311" type="line" smooth="yes"/>
      <point x="142" y="311"/>
      <point x="38" y="253"/>
      <point x="37" y="134" type="curve" smooth="yes"/>
      <point x="37" y="47"/>
      <point x="109" y="-11"/>
    </contour>
  </outline>
</glyph>
<glyph name="eth" format="2">
  <advance width="654"/>
  <unicode hex="00F0"/>
  <outline>
    <contour>
      <point x="305" y="-11" type="curve" smooth="yes"/>
      <point x="461" y="-11"/>
      <point x="585" y="71"/>
      <point x="608" y="207" type="curve" smooth="yes"/>
      <point x="610" y="219" type="line" smooth="yes"/>
      <point x="638" y="386"/>
      <point x="530" y="590"/>
      <point x="397" y="729" type="curve"/>
      <point x="300" y="729" type="line"/>
      <point x="385" y="623"/>
      <point x="456" y="507"/>
      <point x="490" y="415" type="curve"/>
      <point x="483" y="415" type="line"/>
      <point x="443" y="464"/>
      <point x="373" y="489"/>
      <point x="303" y="489" type="curve" smooth="yes"/>
      <point x="175" y="489"/>
      <point x="60" y="415"/>
      <point x="39" y="285" type="curve" smooth="yes"/>
      <point x="37" y="277" type="line" smooth="yes"/>
      <point x="9" y="104"/>
      <point x="127" y="-11"/>
    </contour>
    <contour>
      <point x="312" y="64" type="curve" smooth="yes"/>
      <point x="194" y="64"/>
      <point x="115" y="135"/>
      <point x="135" y="254" type="curve" smooth="yes"/>
      <point x="140" y="284" type="line" smooth="yes"/>
      <point x="154" y="374"/>
      <point x="226" y="420"/>
      <point x="322" y="420" type="curve" smooth="yes"/>
      <point x="398" y="420"/>
      <point x="473" y="394"/>
      <point x="513" y="329" type="curve"/>
      <point x="516" y="297"/>
      <point x="516" y="262"/>
      <point x="511" y="236" type="curve" smooth="yes"/>
      <point x="506" y="206" type="line" smooth="yes"/>
      <point x="492" y="119"/>
      <point x="420" y="64"/>
    </contour>
    <contour>
      <point x="226" y="536" type="line"/>
      <point x="614" y="607" type="line"/>
      <point x="626" y="667" type="line"/>
      <point x="239" y="594" type="line"/>
    </contour>
  </outline>
</glyph>
<glyph name="divide" format="2">
  <advance width="721"/>
  <unicode hex="00F7"/>
  <outline>
    <contour>
      <point x="114" y="324" type="line"/>
      <point x="612" y="324" type="line"/>
      <point x="630" y="406" type="line"/>
      <point x="132" y="406" type="line"/>
    </contour>
    <contour>
      <point x="337" y="479" type="line"/>
      <point x="457" y="479" type="line"/>
      <point x="480" y="585" type="line"/>
      <point x="359" y="585" type="line"/>
    </contour>
    <contour>
      <point x="266" y="145" type="line"/>
      <point x="386" y="145" type="line"/>
      <point x="409" y="251" type="line"/>
      <point x="289" y="251" type="line"/>
    </contour>
  </outline>
</glyph>
<glyph name="thorn" format="2">
  <advance width="692"/>
  <unicode hex="00FE"/>
  <outline>
    <contour>
      <point x="-29" y="-167" type="line"/>
      <point x="70" y="-167" type="line"/>
      <point x="128" y="114" type="line"/>
      <point x="133" y="114" type="line"/>
      <point x="168" y="42"/>
      <point x="252" y="-9"/>
      <point x="361" y="-9" type="curve" smooth="yes"/>
      <point x="505" y="-9"/>
      <point x="618" y="73"/>
      <point x="646" y="210" type="curve" smooth="yes"/>
      <point x="648" y="221" type="line" smooth="yes"/>
      <point x="686" y="408"/>
      <point x="569" y="536"/>
      <point x="399" y="536" type="curve" smooth="yes"/>
      <point x="323" y="536"/>
      <point x="247" y="508"/>
      <point x="206" y="466" type="curve"/>
      <point x="199" y="466" type="line"/>
      <point x="256" y="729" type="line"/>
      <point x="158" y="729" type="line"/>
    </contour>
    <contour>
      <point x="339" y="67" type="curve" smooth="yes"/>
      <point x="248" y="67"/>
      <point x="172" y="113"/>
      <point x="146" y="207" type="curve"/>
      <point x="181" y="375" type="line"/>
      <point x="217" y="428"/>
      <point x="285" y="460"/>
      <point x="365" y="460" type="curve" smooth="yes"/>
      <point x="491" y="460"/>
      <point x="575" y="379"/>
      <point x="546" y="243" type="curve" smooth="yes"/>
      <point x="539" y="209" type="line" smooth="yes"/>
      <point x="520" y="122"/>
      <point x="447" y="67"/>
    </contour>
  </outline>
</glyph>
<glyph name="idotless" format="2">
  <advance width="219"/>
  <unicode hex="0131"/>
  <anchor x="54" y="0" name="bottom"/>
  <anchor x="104" y="0" name="ogonek"/>
  <anchor x="166" y="525" name="top"/>
  <outline>
    <contour>
      <point x="6" y="0" type="line"/>
      <point x="104" y="0" type="line"/>
      <point x="214" y="525" type="line"/>
      <point x="115" y="525" type="line"/>
    </contour>
  </outline>
</glyph>
<glyph name="Eng" format="2">
  <advance width="897"/>
  <unicode hex="014A"/>
  <outline>
    <contour>
      <point x="464" y="-167" type="line"/>
      <point x="648" y="-167" type="line" smooth="yes"/>
      <point x="701" y="-167"/>
      <point x="743" y="-138"/>
      <point x="755" y="-76" type="curve" smooth="yes"/>
      <point x="924" y="729" type="line"/>
      <point x="825" y="729" type="line"/>
      <point x="695" y="103" type="line"/>
      <point x="688" y="103" type="line"/>
      <point x="671" y="132" type="line"/>
      <point x="308" y="729" type="line"/>
      <point x="169" y="729" type="line"/>
      <point x="17" y="0" type="line"/>
      <point x="116" y="0" type="line"/>
      <point x="248" y="633" type="line"/>
      <point x="255" y="633" type="line"/>
      <point x="268" y="607" type="line"/>
      <point x="637" y="0" type="line"/>
      <point x="674" y="0" type="line"/>
      <point x="656" y="-84" type="line"/>
      <point x="482" y="-84" type="line"/>
    </contour>
  </outline>
</glyph>
<glyph name="eng" format="2">
  <advance width="664"/>
  <unicode hex="014B"/>
  <outline>
    <contour>
      <point x="288" y="-167" type="line"/>
      <point x="433" y="-167" type="line" smooth="yes"/>
      <point x="486" y="-167"/>
      <point x="529" y="-140"/>
      <point x="542" y="-77" type="curve" smooth="yes"/>
      <point x="620" y="288" type="line" smooth="yes"/>
      <point x="650" y="432"/>
      <point x="577" y="536"/>
      <point x="432" y="536" type="curve" smooth="yes"/>
      <point x="343" y="536"/>
      <point x="258" y="501"/>
      <point x="200" y="437" type="curve"/>
      <point x="195" y="437" type="line"/>
      <point x="207" y="525" type="line"/>
      <point x="115" y="525" type="line"/>
      <point x="6" y="0" type="line"/>
      <point x="104" y="0" type="line"/>
      <point x="178" y="351" type="line"/>
      <point x="229" y="415"/>
      <point x="310" y="457"/>
      <point x="394" y="457" type="curve" smooth="yes"/>
      <point x="504" y="457"/>
      <point x="544" y="390"/>
      <point x="521" y="279" type="curve" smooth="yes"/>
      <point x="443" y="-86" type="line"/>
      <point x="304" y="-86" type="line"/>
    </contour>
  </outline>
</glyph>
<glyph name="florin" format="2">
  <advance width="585"/>
  <unicode hex="0192"/>
  <outline>
    <contour>
      <point x="237" y="6" type="curve"/>
      <point x="466" y="650" type="line"/>
      <point x="644" y="650" type="line"/>
      <point x="660" y="729" type="line"/>
      <point x="482" y="729" type="line" smooth="yes"/>
      <point x="425" y="729"/>
      <point x="388" y="700"/>
      <point x="368" y="638" type="curve" smooth="yes"/>
      <point x="140" y="-4" type="line"/>
      <point x="-34" y="-4" type="line"/>
      <point x="-50" y="-85" type="line"/>
      <point x="123" y="-85" type="line" smooth="yes"/>
      <point x="178" y="-85"/>
      <point x="216" y="-57"/>
    </contour>
    <contour>
      <point x="119" y="377" type="line"/>
      <point x="563" y="377" type="line"/>
      <point x="581" y="458" type="line"/>
      <point x="136" y="458" type="line"/>
    </contour>
  </outline>
</glyph>
<glyph name="jdotless" format="2">
  <advance width="218"/>
  <unicode hex="0237"/>
  <anchor x="164" y="525" name="top"/>
  <outline>
    <contour>
      <point x="-153" y="-167" type="line"/>
      <point x="-24" y="-167" type="line" smooth="yes"/>
      <point x="30" y="-167"/>
      <point x="73" y="-142"/>
      <point x="85" y="-84" type="curve" smooth="yes"/>
      <point x="213" y="525" type="line"/>
      <point x="114" y="525" type="line"/>
      <point x="-14" y="-87" type="line"/>
      <point x="-136" y="-87" type="line"/>
    </contour>
  </outline>
</glyph>
<glyph name="gravecomb" format="2">
  <unicode hex="0300"/>
  <anchor x="268" y="525" name="_top"/>
  <outline>
    <contour>
      <point x="233" y="603" type="line"/>
      <point x="336" y="603" type="line"/>
      <point x="245" y="729" type="line"/>
      <point x="139" y="729" type="line"/>
    </contour>
  </outline>
</glyph>
<glyph name="circumflexcomb" format="2">
  <unicode hex="0302"/>
  <anchor x="289" y="525" name="_top"/>
  <outline>
    <contour>
      <point x="112" y="603" type="line"/>
      <point x="219" y="603" type="line"/>
      <point x="319" y="677" type="line"/>
      <point x="393" y="603" type="line"/>
      <point x="490" y="603" type="line"/>
      <point x="376" y="729" type="line"/>
      <point x="273" y="729" type="line"/>
    </contour>
  </outline>
</glyph>
<glyph name="tildecomb" format="2">
  <unicode hex="0303"/>
  <anchor x="262" y="525" name="_top"/>
  <outline>
    <contour>
      <point x="359" y="607" type="curve" smooth="yes"/>
      <point x="407" y="607"/>
      <point x="456" y="637"/>
      <point x="473" y="728" type="curve"/>
      <point x="428" y="728" type="line"/>
      <point x="420" y="695"/>
      <point x="400" y="678"/>
      <point x="373" y="678" type="curve" smooth="yes"/>
      <point x="322" y="678"/>
      <point x="287" y="726"/>
      <point x="225" y="726" type="curve" smooth="yes"/>
      <point x="182" y="726"/>
      <point x="130" y="696"/>
      <point x="113" y="605" type="curve"/>
      <point x="159" y="605" type="line"/>
      <point x="164" y="635"/>
      <point x="183" y="655"/>
      <point x="211" y="655" type="curve" smooth="yes"/>
      <point x="257" y="655"/>
      <point x="292" y="607"/>
    </contour>
  </outline>
</glyph>
<glyph name="macroncomb" format="2">
  <unicode hex="0304"/>
  <anchor x="283" y="525" name="_top"/>
  <outline>
    <contour>
      <point x="117" y="623" type="line"/>
      <point x="498" y="623" type="line"/>
      <point x="516" y="699" type="line"/>
      <point x="135" y="699" type="line"/>
    </contour>
  </outline>
</glyph>
<glyph name="brevecomb" format="2">
  <unicode hex="0306"/>
  <anchor x="261" y="525" name="_top"/>
  <outline>
    <contour>
      <point x="280" y="590" type="curve" smooth="yes"/>
      <point x="378" y="590"/>
      <point x="447" y="640"/>
      <point x="458" y="729" type="curve"/>
      <point x="384" y="729" type="line"/>
      <point x="376" y="678"/>
      <point x="341" y="648"/>
      <point x="284" y="648" type="curve" smooth="yes"/>
      <point x="237" y="648"/>
      <point x="202" y="676"/>
      <point x="211" y="729" type="curve"/>
      <point x="139" y="729" type="line"/>
      <point x="130" y="645"/>
      <point x="189" y="590"/>
    </contour>
  </outline>
</glyph>
<glyph name="dotaccentcomb" format="2">
  <unicode hex="0307"/>
  <anchor x="145" y="525" name="_top"/>
  <outline>
    <contour>
      <point x="115" y="610" type="line"/>
      <point x="212" y="610" type="line"/>
      <point x="237" y="728" type="line"/>
      <point x="139" y="728" type="line"/>
    </contour>
  </outline>
</glyph>
<glyph name="dieresiscomb" format="2">
  <unicode hex="0308"/>
  <anchor x="223" y="525" name="_top"/>
  <outline>
    <contour>
      <point x="115" y="610" type="line"/>
      <point x="196" y="610" type="line"/>
      <point x="220" y="728" type="line"/>
      <point x="139" y="728" type="line"/>
    </contour>
    <contour>
      <point x="287" y="610" type="line"/>
      <point x="368" y="610" type="line"/>
      <point x="392" y="728" type="line"/>
      <point x="311" y="728" type="line"/>
    </contour>
  </outline>
</glyph>
<glyph name="hookabovecomb" format="2">
  <unicode hex="0309"/>
  <anchor x="176" y="525" name="_top"/>
  <outline>
    <contour>
      <point x="163" y="581" type="line"/>
      <point x="255" y="608"/>
      <point x="308" y="648"/>
      <point x="308" y="706" type="curve" smooth="yes"/>
      <point x="308" y="753"/>
      <point x="270" y="783"/>
      <point x="198" y="783" type="curve" smooth="yes"/>
      <point x="181" y="783"/>
      <point x="164" y="781"/>
      <point x="150" y="778" type="curve"/>
      <point x="141" y="733" type="line"/>
      <point x="152" y="736"/>
      <point x="167" y="737"/>
      <point x="182" y="737" type="curve" smooth="yes"/>
      <point x="213" y="737"/>
      <point x="236" y="727"/>
      <point x="236" y="701" type="curve" smooth="yes"/>
      <point x="236" y="671"/>
      <point x="216" y="649"/>
      <point x="146" y="624" type="curve"/>
    </contour>
  </outline>
</glyph>
<glyph name="ringcomb" format="2">
  <unicode hex="030A"/>
  <anchor x="219" y="525" name="_top"/>
  <outline>
    <contour>
      <point x="232" y="590" type="curve" smooth="yes"/>
      <point x="310" y="590"/>
      <point x="369" y="642"/>
      <point x="370" y="710" type="curve" smooth="yes"/>
      <point x="371" y="765"/>
      <point x="332" y="802"/>
      <point x="270" y="802" type="curve" smooth="yes"/>
      <point x="195" y="802"/>
      <point x="132" y="750"/>
      <point x="131" y="682" type="curve" smooth="yes"/>
      <point x="130" y="627"/>
      <point x="171" y="590"/>
    </contour>
    <contour>
      <point x="240" y="636" type="curve" smooth="yes"/>
      <point x="206" y="636"/>
      <point x="183" y="657"/>
      <point x="184" y="688" type="curve" smooth="yes"/>
      <point x="185" y="726"/>
      <point x="219" y="755"/>
      <point x="261" y="755" type="curve" smooth="yes"/>
      <point x="297" y="755"/>
      <point x="318" y="735"/>
      <point x="317" y="703" type="curve" smooth="yes"/>
      <point x="317" y="666"/>
      <point x="284" y="636"/>
    </contour>
  </outline>
</glyph>
<glyph name="hungarumlautcomb" format="2">
  <unicode hex="030B"/>
  <anchor x="252" y="525" name="_top"/>
  <outline>
    <contour>
      <point x="113" y="605" type="line"/>
      <point x="226" y="605" type="line"/>
      <point x="372" y="731" type="line"/>
      <point x="256" y="731" type="line"/>
    </contour>
    <contour>
      <point x="313" y="605" type="line"/>
      <point x="426" y="605" type="line"/>
      <point x="572" y="731" type="line"/>
      <point x="456" y="731" type="line"/>
    </contour>
  </outline>
</glyph>
<glyph name="caroncomb" format="2">
  <unicode hex="030C"/>
  <anchor x="288" y="525" name="_top"/>
  <outline>
    <contour>
      <point x="253" y="603" type="line"/>
      <point x="356" y="603" type="line"/>
      <point x="517" y="729" type="line"/>
      <point x="410" y="729" type="line"/>
      <point x="310" y="656" type="line"/>
      <point x="236" y="729" type="line"/>
      <point x="139" y="729" type="line"/>
    </contour>
  </outline>
</glyph>
<glyph name="commaturnedabovecomb" format="2">
  <unicode hex="0312"/>
  <anchor x="147" y="525" name="_top"/>
  <outline>
    <contour>
      <point x="113" y="604" type="line"/>
      <point x="214" y="604" type="line"/>
      <point x="232" y="692" type="line"/>
      <point x="187" y="692" type="line"/>
      <point x="275" y="815" type="line"/>
      <point x="208" y="815" type="line"/>
      <point x="130" y="686" type="line"/>
    </contour>
  </outline>
</glyph>
<glyph name="horncomb" format="2">
  <unicode hex="031B"/>
  <anchor x="100" y="547" name="_topright"/>
  <outline>
    <contour>
      <point x="88" y="490" type="line"/>
      <point x="209" y="490"/>
      <point x="280" y="533"/>
      <point x="300" y="625" type="curve" smooth="yes"/>
      <point x="307" y="661" type="line"/>
      <point x="217" y="661" type="line"/>
      <point x="211" y="632" type="line" smooth="yes"/>
      <point x="198" y="571"/>
      <point x="162" y="548"/>
      <point x="100" y="547" type="curve"/>
    </contour>
  </outline>
</glyph>
<glyph name="dotbelowcomb" format="2">
  <unicode hex="0323"/>
  <anchor x="37" y="0" name="_bottom"/>
  <outline>
    <contour>
      <point x="-50" y="-163" type="line"/>
      <point x="56" y="-163" type="line"/>
      <point x="78" y="-57" type="line"/>
      <point x="-28" y="-57" type="line"/>
    </contour>
  </outline>
</glyph>
<glyph name="commaaccentcomb" format="2">
  <unicode hex="0326"/>
  <anchor x="45" y="0" name="_bottom"/>
  <outline>
    <contour>
      <point x="-73" y="-268" type="line"/>
      <point x="-9" y="-268" type="line"/>
      <point x="64" y="-149" type="line"/>
      <point x="83" y="-60" type="line"/>
      <point x="-18" y="-60" type="line"/>
      <point x="-38" y="-154" type="line"/>
      <point x="12" y="-154" type="line"/>
    </contour>
  </outline>
</glyph>
<glyph name="cedillacomb" format="2">
  <unicode hex="0327"/>
  <anchor x="96" y="-12" name="_bottom"/>
  <outline>
    <contour>
      <point x="78" y="-242" type="curve" smooth="yes"/>
      <point x="152" y="-242"/>
      <point x="201" y="-203"/>
      <point x="201" y="-148" type="curve" smooth="yes"/>
      <point x="201" y="-80"/>
      <point x="133" y="-50"/>
      <point x="77" y="-66" type="curve"/>
      <point x="102" y="-73" type="line"/>
      <point x="135" y="0" type="line"/>
      <point x="71" y="0" type="line"/>
      <point x="37" y="-77" type="line"/>
      <point x="59" y="-101" type="line"/>
      <point x="84" y="-93"/>
      <point x="137" y="-98"/>
      <point x="137" y="-142" type="curve" smooth="yes"/>
      <point x="137" y="-170"/>
      <point x="115" y="-189"/>
      <point x="77" y="-189" type="curve" smooth="yes"/>
      <point x="44" y="-189"/>
      <point x="21" y="-174"/>
      <point x="17" y="-152" type="curve"/>
      <point x="-48" y="-152" type="line"/>
      <point x="-43" y="-206"/>
      <point x="7" y="-242"/>
    </contour>
  </outline>
</glyph>
<glyph name="ogonekcomb" format="2">
  <unicode hex="0328"/>
  <anchor x="144" y="0" name="_ogonek"/>
  <outline>
    <contour>
      <point x="42" y="-192" type="curve" smooth="yes"/>
      <point x="71" y="-192"/>
      <point x="101" y="-185"/>
      <point x="118" y="-175" type="curve"/>
      <point x="128" y="-126" type="line"/>
      <point x="115" y="-134"/>
      <point x="94" y="-138"/>
      <point x="79" y="-138" type="curve" smooth="yes"/>
      <point x="55" y="-138"/>
      <point x="41" y="-127"/>
      <point x="41" y="-108" type="curve" smooth="yes"/>
      <point x="41" y="-76"/>
      <point x="76" y="-43"/>
      <point x="145" y="0" type="curve"/>
      <point x="139" y="18" type="line"/>
      <point x="128" y="29" type="line"/>
      <point x="22" y="-14"/>
      <point x="-41" y="-68"/>
      <point x="-41" y="-127" type="curve" smooth="yes"/>
      <point x="-41" y="-166"/>
      <point x="-9" y="-192"/>
    </contour>
  </outline>
</glyph>
<glyph name="strokeshortcomb" format="2">
  <unicode hex="0335"/>
  <anchor x="313" y="625" name="_center"/>
  <outline>
    <contour>
      <point x="110" y="588" type="line"/>
      <point x="499" y="588" type="line"/>
      <point x="515" y="663" type="line"/>
      <point x="125" y="663" type="line"/>
    </contour>
  </outline>
</glyph>
<glyph name="strokelongcomb" format="2">
  <unicode hex="0336"/>
  <anchor x="486" y="280" name="_center"/>
  <outline>
    <contour>
      <point x="37" y="244" type="line"/>
      <point x="918" y="244" type="line"/>
      <point x="933" y="315" type="line"/>
      <point x="51" y="315" type="line"/>
    </contour>
  </outline>
</glyph>
<glyph name="slashshortcomb" format="2">
  <unicode hex="0337"/>
  <anchor x="178" y="365" name="_center"/>
  <outline>
    <contour>
      <point x="40" y="256" type="line"/>
      <point x="297" y="385" type="line"/>
      <point x="316" y="474" type="line"/>
      <point x="58" y="345" type="line"/>
    </contour>
  </outline>
</glyph>
<glyph name="slashlongcomb" format="2">
  <unicode hex="0338"/>
  <anchor x="341" y="268" name="_center"/>
  <outline>
    <contour>
      <point x="-20" y="-20" type="line"/>
      <point x="77" y="-20" type="line"/>
      <point x="701" y="555" type="line"/>
      <point x="604" y="555" type="line"/>
    </contour>
  </outline>
</glyph>
<glyph name="mu" format="2">
  <advance width="667"/>
  <unicode hex="03BC"/>
  <outline>
    <contour>
      <point x="-33" y="-132" type="line"/>
      <point x="66" y="-132" type="line"/>
      <point x="109" y="76" type="line"/>
      <point x="88" y="67" type="line"/>
      <point x="112" y="17"/>
      <point x="162" y="-10"/>
      <point x="229" y="-10" type="curve" smooth="yes"/>
      <point x="319" y="-10"/>
      <point x="412" y="27"/>
      <point x="469" y="88" type="curve"/>
      <point x="474" y="88" type="line"/>
      <point x="461" y="0" type="line"/>
      <point x="552" y="0" type="line"/>
      <point x="662" y="525" type="line"/>
      <point x="563" y="525" type="line"/>
      <point x="488" y="169" type="line"/>
      <point x="440" y="108"/>
      <point x="360" y="63"/>
      <point x="270" y="63" type="curve" smooth="yes"/>
      <point x="171" y="63"/>
      <point x="120" y="124"/>
      <point x="141" y="226" type="curve" smooth="yes"/>
      <point x="203" y="525" type="line"/>
      <point x="105" y="525" type="line"/>
    </contour>
  </outline>
</glyph>
<glyph name="pi" format="2">
  <advance width="671"/>
  <unicode hex="03C0"/>
  <outline>
    <contour>
      <point x="75" y="0" type="line"/>
      <point x="162" y="0" type="line"/>
      <point x="256" y="443" type="line"/>
      <point x="484" y="443" type="line"/>
      <point x="408" y="84" type="line" smooth="yes"/>
      <point x="397" y="34"/>
      <point x="413" y="0"/>
      <point x="472" y="0" type="curve"/>
      <point x="582" y="0" type="line"/>
      <point x="599" y="79" type="line"/>
      <point x="496" y="79" type="line"/>
      <point x="573" y="443" type="line"/>
      <point x="677" y="443" type="line"/>
      <point x="695" y="525" type="line"/>
      <point x="82" y="525" type="line"/>
      <point x="64" y="443" type="line"/>
      <point x="169" y="443" type="line"/>
    </contour>
  </outline>
</glyph>
<glyph name="Germandbls" format="2">
  <advance width="795"/>
  <unicode hex="1E9E"/>
  <outline>
    <contour>
      <point x="17" y="0" type="line"/>
      <point x="117" y="0" type="line"/>
      <point x="253" y="643" type="line"/>
      <point x="655" y="643" type="line"/>
      <point x="407" y="411" type="line"/>
      <point x="393" y="345" type="line"/>
      <point x="510" y="345" type="line" smooth="yes"/>
      <point x="604" y="345"/>
      <point x="649" y="298"/>
      <point x="633" y="210" type="curve" smooth="yes"/>
      <point x="630" y="185" type="line" smooth="yes"/>
      <point x="618" y="118"/>
      <point x="551" y="82"/>
      <point x="455" y="82" type="curve" smooth="yes"/>
      <point x="214" y="82" type="line"/>
      <point x="200" y="0" type="line"/>
      <point x="460" y="0" type="line" smooth="yes"/>
      <point x="619" y="0"/>
      <point x="725" y="70"/>
      <point x="741" y="200" type="curve" smooth="yes"/>
      <point x="755" y="326"/>
      <point x="680" y="413"/>
      <point x="540" y="413" type="curve" smooth="yes"/>
      <point x="493" y="413" type="line"/>
      <point x="523" y="387" type="line"/>
      <point x="531" y="419" type="line"/>
      <point x="764" y="635" type="line"/>
      <point x="783" y="729" type="line"/>
      <point x="169" y="729" type="line"/>
    </contour>
  </outline>
</glyph>
<glyph name="endash" format="2">
  <advance width="535"/>
  <unicode hex="2013"/>
  <outline>
    <contour>
      <point x="48" y="283" type="line"/>
      <point x="497" y="283" type="line"/>
      <point x="514" y="364" type="line"/>
      <point x="64" y="364" type="line"/>
    </contour>
  </outline>
</glyph>
<glyph name="emdash" format="2">
  <advance width="717"/>
  <unicode hex="2014"/>
  <outline>
    <contour>
      <point x="48" y="283" type="line"/>
      <point x="679" y="283" type="line"/>
      <point x="696" y="364" type="line"/>
      <point x="64" y="364" type="line"/>
    </contour>
  </outline>
</glyph>
<glyph name="bullet" format="2">
  <advance width="289"/>
  <unicode hex="2022"/>
  <outline>
    <contour>
      <point x="28" y="277" type="curve" smooth="yes"/>
      <point x="28" y="210"/>
      <point x="80" y="159"/>
      <point x="148" y="159" type="curve" smooth="yes"/>
      <point x="219" y="159"/>
      <point x="267" y="210"/>
      <point x="267" y="277" type="curve" smooth="yes"/>
      <point x="267" y="345"/>
      <point x="219" y="396"/>
      <point x="148" y="396" type="curve" smooth="yes"/>
      <point x="80" y="396"/>
      <point x="28" y="345"/>
    </contour>
  </outline>
</glyph>
<glyph name="perthousand" format="2">
  <advance width="1382"/>
  <unicode hex="2030"/>
  <outline>
    <contour>
      <point x="264" y="349" type="curve" smooth="yes"/>
      <point x="362" y="349"/>
      <point x="435" y="402"/>
      <point x="458" y="509" type="curve" smooth="yes"/>
      <point x="462" y="523" type="line" smooth="yes"/>
      <point x="489" y="653"/>
      <point x="418" y="739"/>
      <point x="290" y="739" type="curve" smooth="yes"/>
      <point x="193" y="739"/>
      <point x="119" y="686"/>
      <point x="96" y="579" type="curve" smooth="yes"/>
      <point x="93" y="565" type="line" smooth="yes"/>
      <point x="65" y="434"/>
      <point x="136" y="349"/>
    </contour>
    <contour>
      <point x="265" y="410" type="curve" smooth="yes"/>
      <point x="194" y="410"/>
      <point x="147" y="454"/>
      <point x="164" y="532" type="curve" smooth="yes"/>
      <point x="177" y="588" type="line" smooth="yes"/>
      <point x="189" y="643"/>
      <point x="229" y="677"/>
      <point x="288" y="677" type="curve" smooth="yes"/>
      <point x="360" y="677"/>
      <point x="407" y="634"/>
      <point x="390" y="554" type="curve" smooth="yes"/>
      <point x="377" y="499" type="line" smooth="yes"/>
      <point x="365" y="444"/>
      <point x="326" y="410"/>
    </contour>
    <contour>
      <point x="113" y="0" type="line"/>
      <point x="203" y="0" type="line"/>
      <point x="893" y="729" type="line"/>
      <point x="802" y="729" type="line"/>
    </contour>
    <contour>
      <point x="716" y="-11" type="curve" smooth="yes"/>
      <point x="815" y="-11"/>
      <point x="887" y="42"/>
      <point x="910" y="148" type="curve" smooth="yes"/>
      <point x="914" y="163" type="line" smooth="yes"/>
      <point x="941" y="293"/>
      <point x="871" y="379"/>
      <point x="742" y="379" type="curve" smooth="yes"/>
      <point x="644" y="379"/>
      <point x="571" y="326"/>
      <point x="548" y="219" type="curve" smooth="yes"/>
      <point x="544" y="204" type="line" smooth="yes"/>
      <point x="517" y="74"/>
      <point x="588" y="-11"/>
    </contour>
    <contour>
      <point x="718" y="51" type="curve" smooth="yes"/>
      <point x="647" y="51"/>
      <point x="599" y="94"/>
      <point x="617" y="172" type="curve" smooth="yes"/>
      <point x="629" y="228" type="line" smooth="yes"/>
      <point x="641" y="284"/>
      <point x="681" y="316"/>
      <point x="741" y="316" type="curve" smooth="yes"/>
      <point x="812" y="316"/>
      <point x="860" y="274"/>
      <point x="842" y="195" type="curve" smooth="yes"/>
      <point x="830" y="139" type="line" smooth="yes"/>
      <point x="817" y="83"/>
      <point x="779" y="51"/>
    </contour>
    <contour>
      <point x="1134" y="-11" type="curve" smooth="yes"/>
      <point x="1232" y="-11"/>
      <point x="1306" y="42"/>
      <point x="1329" y="148" type="curve" smooth="yes"/>
      <point x="1332" y="163" type="line" smooth="yes"/>
      <point x="1360" y="293"/>
      <point x="1289" y="379"/>
      <point x="1161" y="379" type="curve" smooth="yes"/>
      <point x="1063" y="379"/>
      <point x="989" y="326"/>
      <point x="967" y="219" type="curve" smooth="yes"/>
      <point x="963" y="204" type="line" smooth="yes"/>
      <point x="935" y="74"/>
      <point x="1005" y="-11"/>
    </contour>
    <contour>
      <point x="1136" y="51" type="curve" smooth="yes"/>
      <point x="1064" y="51"/>
      <point x="1018" y="94"/>
      <point x="1035" y="172" type="curve" smooth="yes"/>
      <point x="1047" y="228" type="line" smooth="yes"/>
      <point x="1060" y="284"/>
      <point x="1099" y="316"/>
      <point x="1158" y="316" type="curve" smooth="yes"/>
      <point x="1231" y="316"/>
      <point x="1277" y="274"/>
      <point x="1261" y="195" type="curve" smooth="yes"/>
      <point x="1247" y="139" type="line" smooth="yes"/>
      <point x="1235" y="83"/>
      <point x="1196" y="51"/>
    </contour>
  </outline>
</glyph>
<glyph name="guilsinglleft" format="2">
  <advance width="313"/>
  <unicode hex="2039"/>
  <anchor x="-1" y="0" name="#entry"/>
  <anchor x="213" y="0" name="#exit"/>
  <outline>
    <contour>
      <point x="153" y="59" type="line"/>
      <point x="231" y="59" type="line"/>
      <point x="140" y="290" type="line"/>
      <point x="330" y="525" type="line"/>
      <point x="242" y="525" type="line"/>
      <point x="42" y="292" type="line"/>
    </contour>
  </outline>
</glyph>
<glyph name="zeroinferior" format="2">
  <advance width="509"/>
  <unicode hex="2080"/>
  <outline>
    <contour>
      <point x="210" y="-67" type="curve" smooth="yes"/>
      <point x="323" y="-67"/>
      <point x="420" y="-14"/>
      <point x="442" y="129" type="curve" smooth="yes"/>
      <point x="444" y="142" type="line" smooth="yes"/>
      <point x="467" y="283"/>
      <point x="398" y="384"/>
      <point x="256" y="384" type="curve" smooth="yes"/>
      <point x="142" y="384"/>
      <point x="47" y="332"/>
      <point x="23" y="188" type="curve" smooth="yes"/>
      <point x="21" y="176" type="line" smooth="yes"/>
      <point x="-3" y="34"/>
      <point x="68" y="-67"/>
    </contour>
    <contour>
      <point x="214" y="2" type="curve" smooth="yes"/>
      <point x="134" y="2"/>
      <point x="91" y="52"/>
      <point x="108" y="141" type="curve" smooth="yes"/>
      <point x="120" y="201" type="line" smooth="yes"/>
      <point x="133" y="272"/>
      <point x="176" y="316"/>
      <point x="252" y="316" type="curve" smooth="yes"/>
      <point x="332" y="316"/>
      <point x="373" y="264"/>
      <point x="358" y="176" type="curve" smooth="yes"/>
      <point x="346" y="116" type="line" smooth="yes"/>
      <point x="333" y="45"/>
      <point x="290" y="2"/>
    </contour>
  </outline>
</glyph>
<glyph name="oneinferior" format="2">
  <advance width="300"/>
  <unicode hex="2081"/>
  <outline>
    <contour>
      <point x="172" y="-60" type="line"/>
      <point x="263" y="377" type="line"/>
      <point x="188" y="377" type="line"/>
      <point x="161" y="308" type="line"/>
      <point x="38" y="308" type="line"/>
      <point x="23" y="239" type="line"/>
      <point x="144" y="239" type="line"/>
      <point x="80" y="-60" type="line"/>
    </contour>
  </outline>
</glyph>
<glyph name="twoinferior" format="2">
  <advance width="452"/>
  <unicode hex="2082"/>
  <outline>
    <contour>
      <point x="-25" y="-60" type="line"/>
      <point x="347" y="-60" type="line"/>
      <point x="361" y="11" type="line"/>
      <point x="151" y="11" type="line"/>
      <point x="133" y="10" type="line"/>
      <point x="133" y="11" type="line"/>
      <point x="143" y="17" type="line"/>
      <point x="277" y="88" type="line" smooth="yes"/>
      <point x="353" y="129"/>
      <point x="402" y="176"/>
      <point x="402" y="254" type="curve" smooth="yes"/>
      <point x="402" y="333"/>
      <point x="338" y="384"/>
      <point x="236" y="384" type="curve" smooth="yes"/>
      <point x="129" y="384"/>
      <point x="47" y="331"/>
      <point x="28" y="242" type="curve"/>
      <point x="117" y="242" type="line"/>
      <point x="128" y="283"/>
      <point x="168" y="311"/>
      <point x="227" y="311" type="curve" smooth="yes"/>
      <point x="281" y="311"/>
      <point x="311" y="284"/>
      <point x="311" y="239" type="curve" smooth="yes"/>
      <point x="311" y="232" type="line" smooth="yes"/>
      <point x="311" y="190"/>
      <point x="271" y="164"/>
      <point x="220" y="136" type="curve" smooth="yes"/>
      <point x="-12" y="2" type="line"/>
    </contour>
  </outline>
</glyph>
<glyph name="threeinferior" format="2">
  <advance width="458"/>
  <unicode hex="2083"/>
  <outline>
    <contour>
      <point x="173" y="-66" type="curve" smooth="yes"/>
      <point x="297" y="-66"/>
      <point x="373" y="-16"/>
      <point x="379" y="58" type="curve" smooth="yes"/>
      <point x="383" y="108"/>
      <point x="355" y="149"/>
      <point x="301" y="162" type="curve"/>
      <point x="301" y="166" type="line"/>
      <point x="356" y="178"/>
      <point x="399" y="205"/>
      <point x="406" y="257" type="curve" smooth="yes"/>
      <point x="417" y="332"/>
      <point x="358" y="384"/>
      <point x="242" y="384" type="curve" smooth="yes"/>
      <point x="131" y="384"/>
      <point x="50" y="334"/>
      <point x="36" y="257" type="curve"/>
      <point x="119" y="257" type="line"/>
      <point x="130" y="295"/>
      <point x="174" y="318"/>
      <point x="234" y="318" type="curve" smooth="yes"/>
      <point x="288" y="318"/>
      <point x="327" y="299"/>
      <point x="320" y="255" type="curve" smooth="yes"/>
      <point x="318" y="248" type="line" smooth="yes"/>
      <point x="312" y="217"/>
      <point x="275" y="195"/>
      <point x="221" y="195" type="curve" smooth="yes"/>
      <point x="176" y="195" type="line"/>
      <point x="161" y="138" type="line"/>
      <point x="208" y="138" type="line" smooth="yes"/>
      <point x="263" y="138"/>
      <point x="298" y="112"/>
      <point x="289" y="68" type="curve" smooth="yes"/>
      <point x="286" y="61" type="line" smooth="yes"/>
      <point x="277" y="22"/>
      <point x="233" y="0"/>
      <point x="174" y="0" type="curve" smooth="yes"/>
      <point x="115" y="0"/>
      <point x="75" y="24"/>
      <point x="75" y="69" type="curve"/>
      <point x="-10" y="69" type="line"/>
      <point x="-10" y="-10"/>
      <point x="58" y="-66"/>
    </contour>
  </outline>
</glyph>
<glyph name="fourinferior" format="2">
  <advance width="489"/>
  <unicode hex="2084"/>
  <outline>
    <contour>
      <point x="219" y="-60" type="line"/>
      <point x="309" y="-60" type="line"/>
      <point x="328" y="36" type="line"/>
      <point x="413" y="36" type="line"/>
      <point x="428" y="107" type="line"/>
      <point x="343" y="107" type="line"/>
      <point x="363" y="198" type="line"/>
      <point x="290" y="198" type="line"/>
      <point x="257" y="107" type="line"/>
      <point x="100" y="107" type="line"/>
      <point x="101" y="112" type="line"/>
      <point x="344" y="377" type="line"/>
      <point x="246" y="377" type="line"/>
      <point x="-6" y="97" type="line"/>
      <point x="-19" y="36" type="line"/>
      <point x="238" y="36" type="line"/>
    </contour>
  </outline>
</glyph>
<glyph name="fiveinferior" format="2">
  <advance width="474"/>
  <unicode hex="2085"/>
  <outline>
    <contour>
      <point x="184" y="-67" type="curve" smooth="yes"/>
      <point x="306" y="-67"/>
      <point x="398" y="-12"/>
      <point x="401" y="91" type="curve" smooth="yes"/>
      <point x="404" y="164"/>
      <point x="352" y="223"/>
      <point x="256" y="223" type="curve" smooth="yes"/>
      <point x="205" y="223"/>
      <point x="158" y="211"/>
      <point x="127" y="188" type="curve"/>
      <point x="121" y="188" type="line"/>
      <point x="157" y="306" type="line"/>
      <point x="424" y="306" type="line"/>
      <point x="438" y="377" type="line"/>
      <point x="88" y="377" type="line"/>
      <point x="20" y="127" type="line"/>
      <point x="103" y="122" type="line"/>
      <point x="126" y="150"/>
      <point x="171" y="165"/>
      <point x="219" y="165" type="curve" smooth="yes"/>
      <point x="282" y="165"/>
      <point x="315" y="133"/>
      <point x="309" y="80" type="curve" smooth="yes"/>
      <point x="308" y="72" type="line" smooth="yes"/>
      <point x="302" y="29"/>
      <point x="261" y="0"/>
      <point x="185" y="0" type="curve" smooth="yes"/>
      <point x="132" y="0"/>
      <point x="93" y="20"/>
      <point x="90" y="64" type="curve"/>
      <point x="0" y="64" type="line"/>
      <point x="1" y="-14"/>
      <point x="75" y="-67"/>
    </contour>
  </outline>
</glyph>
<glyph name="sixinferior" format="2">
  <advance width="485"/>
  <unicode hex="2086"/>
  <outline>
    <contour>
      <point x="208" y="-67" type="curve" smooth="yes"/>
      <point x="326" y="-67"/>
      <point x="396" y="-10"/>
      <point x="409" y="66" type="curve" smooth="yes"/>
      <point x="426" y="141"/>
      <point x="379" y="224"/>
      <point x="261" y="224" type="curve" smooth="yes"/>
      <point x="203" y="224"/>
      <point x="154" y="209"/>
      <point x="116" y="181" type="curve"/>
      <point x="109" y="181" type="line"/>
      <point x="114" y="197"/>
      <point x="117" y="209"/>
      <point x="120" y="224" type="curve" smooth="yes"/>
      <point x="135" y="283"/>
      <point x="173" y="320"/>
      <point x="252" y="320" type="curve" smooth="yes"/>
      <point x="306" y="320"/>
      <point x="342" y="298"/>
      <point x="350" y="265" type="curve"/>
      <point x="437" y="265" type="line"/>
      <point x="426" y="335"/>
      <point x="361" y="384"/>
      <point x="253" y="384" type="curve" smooth="yes"/>
      <point x="141" y="384"/>
      <point x="53" y="330"/>
      <point x="29" y="210" type="curve" smooth="yes"/>
      <point x="18" y="159" type="line" smooth="yes"/>
      <point x="-10" y="19"/>
      <point x="66" y="-67"/>
    </contour>
    <contour>
      <point x="208" y="2" type="curve" smooth="yes"/>
      <point x="134" y="2"/>
      <point x="86" y="47"/>
      <point x="99" y="112" type="curve" smooth="yes"/>
      <point x="101" y="122" type="line"/>
      <point x="134" y="154"/>
      <point x="181" y="168"/>
      <point x="229" y="168" type="curve" smooth="yes"/>
      <point x="293" y="168"/>
      <point x="330" y="137"/>
      <point x="319" y="81" type="curve" smooth="yes"/>
      <point x="318" y="76" type="line" smooth="yes"/>
      <point x="309" y="32"/>
      <point x="268" y="2"/>
    </contour>
  </outline>
</glyph>
<glyph name="seveninferior" format="2">
  <advance width="448"/>
  <unicode hex="2087"/>
  <outline>
    <contour>
      <point x="140" y="-60" type="line"/>
      <point x="429" y="303" type="line"/>
      <point x="444" y="377" type="line"/>
      <point x="58" y="377" type="line"/>
      <point x="28" y="237" type="line"/>
      <point x="95" y="237" type="line"/>
      <point x="109" y="306" type="line"/>
      <point x="325" y="306" type="line"/>
      <point x="323" y="297" type="line"/>
      <point x="34" y="-60" type="line"/>
    </contour>
  </outline>
</glyph>
<glyph name="eightinferior" format="2">
  <advance width="481"/>
  <unicode hex="2088"/>
  <outline>
    <contour>
      <point x="195" y="-66" type="curve" smooth="yes"/>
      <point x="308" y="-66"/>
      <point x="403" y="-29"/>
      <point x="403" y="64" type="curve" smooth="yes"/>
      <point x="403" y="110"/>
      <point x="375" y="146"/>
      <point x="313" y="161" type="curve"/>
      <point x="313" y="165" type="line"/>
      <point x="386" y="177"/>
      <point x="427" y="220"/>
      <point x="427" y="271" type="curve" smooth="yes"/>
      <point x="427" y="340"/>
      <point x="357" y="384"/>
      <point x="238" y="384" type="curve" smooth="yes"/>
      <point x="144" y="384"/>
      <point x="47" y="354"/>
      <point x="47" y="263" type="curve" smooth="yes"/>
      <point x="47" y="220"/>
      <point x="77" y="190"/>
      <point x="124" y="177" type="curve"/>
      <point x="124" y="174" type="line"/>
      <point x="53" y="164"/>
      <point x="-5" y="125"/>
      <point x="-5" y="52" type="curve" smooth="yes"/>
      <point x="-5" y="-23"/>
      <point x="69" y="-66"/>
    </contour>
    <contour>
      <point x="198" y="-1" type="curve" smooth="yes"/>
      <point x="139" y="-1"/>
      <point x="83" y="19"/>
      <point x="91" y="66" type="curve" smooth="yes"/>
      <point x="92" y="80" type="line" smooth="yes"/>
      <point x="99" y="122"/>
      <point x="146" y="137"/>
      <point x="203" y="137" type="curve" smooth="yes"/>
      <point x="257" y="137"/>
      <point x="318" y="120"/>
      <point x="309" y="69" type="curve" smooth="yes"/>
      <point x="308" y="56" type="line" smooth="yes"/>
      <point x="301" y="17"/>
      <point x="260" y="-1"/>
    </contour>
    <contour>
      <point x="232" y="193" type="curve" smooth="yes"/>
      <point x="161" y="193"/>
      <point x="130" y="220"/>
      <point x="135" y="254" type="curve" smooth="yes"/>
      <point x="137" y="268" type="line" smooth="yes"/>
      <point x="142" y="304"/>
      <point x="184" y="319"/>
      <point x="238" y="319" type="curve" smooth="yes"/>
      <point x="309" y="319"/>
      <point x="340" y="292"/>
      <point x="335" y="257" type="curve" smooth="yes"/>
      <point x="333" y="243" type="line" smooth="yes"/>
      <point x="327" y="208"/>
      <point x="284" y="193"/>
    </contour>
  </outline>
</glyph>
<glyph name="sheqel" format="2">
  <advance width="793"/>
  <unicode hex="20AA"/>
  <outline>
    <contour>
      <point x="214" y="0" type="line"/>
      <point x="568" y="0" type="line" smooth="yes"/>
      <point x="625" y="0"/>
      <point x="665" y="22"/>
      <point x="682" y="100" type="curve" smooth="yes"/>
      <point x="815" y="729" type="line"/>
      <point x="734" y="729" type="line"/>
      <point x="596" y="80" type="line"/>
      <point x="310" y="80" type="line"/>
      <point x="410" y="556" type="line"/>
      <point x="331" y="556" type="line"/>
    </contour>
    <contour>
      <point x="23" y="0" type="line"/>
      <point x="106" y="0" type="line"/>
      <point x="244" y="649" type="line"/>
      <point x="531" y="649" type="line"/>
      <point x="429" y="174" type="line"/>
      <point x="508" y="174" type="line"/>
      <point x="605" y="631" type="line" smooth="yes"/>
      <point x="622" y="708"/>
      <point x="591" y="729"/>
      <point x="534" y="729" type="curve" smooth="yes"/>
      <point x="176" y="729" type="line"/>
    </contour>
  </outline>
</glyph>
<glyph name="rupeeIndian" format="2">
  <advance width="710"/>
  <unicode hex="20B9"/>
  <outline>
    <contour>
      <point x="423" y="0" type="line"/>
      <point x="552" y="0" type="line"/>
      <point x="206" y="322" type="line"/>
      <point x="204" y="301" type="line"/>
      <point x="350" y="301" type="line" smooth="yes"/>
      <point x="507" y="301"/>
      <point x="613" y="380"/>
      <point x="627" y="504" type="curve" smooth="yes"/>
      <point x="635" y="578"/>
      <point x="607" y="640"/>
      <point x="564" y="666" type="curve"/>
      <point x="563" y="657" type="line"/>
      <point x="746" y="657" type="line"/>
      <point x="762" y="729" type="line"/>
      <point x="152" y="729" type="line"/>
      <point x="136" y="645" type="line"/>
      <point x="412" y="645" type="line" smooth="yes"/>
      <point x="488" y="645"/>
      <point x="538" y="604"/>
      <point x="521" y="515" type="curve" smooth="yes"/>
      <point x="515" y="489" type="line" smooth="yes"/>
      <point x="503" y="422"/>
      <point x="452" y="378"/>
      <point x="348" y="378" type="curve" smooth="yes"/>
      <point x="79" y="378" type="line"/>
      <point x="67" y="325" type="line"/>
    </contour>
    <contour>
      <point x="100" y="474" type="line"/>
      <point x="553" y="474" type="line"/>
      <point x="569" y="549" type="line"/>
      <point x="115" y="549" type="line"/>
    </contour>
    <contour>
      <point x="553" y="474" type="line"/>
      <point x="708" y="474" type="line"/>
      <point x="723" y="549" type="line"/>
      <point x="569" y="549" type="line"/>
    </contour>
  </outline>
</glyph>
<glyph name="liraTurkish" format="2">
  <advance width="720"/>
  <unicode hex="20BA"/>
  <outline>
    <contour>
      <point x="96" y="0" type="line"/>
      <point x="176" y="0" type="line" smooth="yes"/>
      <point x="426" y="0"/>
      <point x="620" y="94"/>
      <point x="693" y="332" type="curve"/>
      <point x="596" y="332" type="line"/>
      <point x="550" y="185"/>
      <point x="430" y="87"/>
      <point x="204" y="89" type="curve"/>
      <point x="341" y="729" type="line"/>
      <point x="250" y="729" type="line"/>
    </contour>
    <contour>
      <point x="48" y="258" type="line"/>
      <point x="507" y="410" type="line"/>
      <point x="522" y="481" type="line"/>
      <point x="63" y="331" type="line"/>
    </contour>
    <contour>
      <point x="85" y="434" type="line"/>
      <point x="543" y="585" type="line"/>
      <point x="560" y="660" type="line"/>
      <point x="101" y="506" type="line"/>
    </contour>
  </outline>
</glyph>
<glyph name="literSign" format="2">
  <advance width="635"/>
  <unicode hex="2113"/>
  <outline>
    <contour>
      <point x="295" y="-10" type="curve" smooth="yes"/>
      <point x="373" y="-10"/>
      <point x="444" y="34"/>
      <point x="492" y="114" type="curve"/>
      <point x="438" y="142" type="line"/>
      <point x="401" y="81"/>
      <point x="355" y="52"/>
      <point x="302" y="52" type="curve" smooth="yes"/>
      <point x="178" y="52"/>
      <point x="200" y="241"/>
      <point x="229" y="396" type="curve" smooth="yes"/>
      <point x="263" y="572"/>
      <point x="328" y="670"/>
      <point x="404" y="670" type="curve" smooth="yes"/>
      <point x="455" y="670"/>
      <point x="482" y="613"/>
      <point x="463" y="513" type="curve" smooth="yes"/>
      <point x="435" y="347"/>
      <point x="266" y="213"/>
      <point x="41" y="189" type="curve"/>
      <point x="33" y="133" type="line"/>
      <point x="290" y="158"/>
      <point x="501" y="303"/>
      <point x="532" y="520" type="curve" smooth="yes"/>
      <point x="553" y="650"/>
      <point x="506" y="738"/>
      <point x="413" y="738" type="curve" smooth="yes"/>
      <point x="285" y="738"/>
      <point x="185" y="597"/>
      <point x="153" y="371" type="curve" smooth="yes"/>
      <point x="123" y="170"/>
      <point x="140" y="-10"/>
    </contour>
  </outline>
</glyph>
<glyph name="numero" format="2">
  <advance width="1359"/>
  <unicode hex="2116"/>
  <outline>
    <contour>
      <point x="17" y="0" type="line"/>
      <point x="115" y="0" type="line"/>
      <point x="247" y="633" type="line"/>
      <point x="254" y="633" type="line"/>
      <point x="269" y="607" type="line"/>
      <point x="637" y="0" type="line"/>
      <point x="772" y="0" type="line"/>
      <point x="924" y="729" type="line"/>
      <point x="825" y="729" type="line"/>
      <point x="694" y="103" type="line"/>
      <point x="687" y="103" type="line"/>
      <point x="672" y="132" type="line"/>
      <point x="308" y="729" type="line"/>
      <point x="169" y="729" type="line"/>
    </contour>
    <contour>
      <point x="951" y="200" type="line"/>
      <point x="1276" y="200" type="line"/>
      <point x="1288" y="261" type="line"/>
      <point x="963" y="261" type="line"/>
    </contour>
    <contour>
      <point x="1156" y="325" type="curve" smooth="yes"/>
      <point x="1284" y="325"/>
      <point x="1367" y="421"/>
      <point x="1367" y="558" type="curve" smooth="yes"/>
      <point x="1367" y="668"/>
      <point x="1292" y="739"/>
      <point x="1174" y="739" type="curve" smooth="yes"/>
      <point x="1049" y="739"/>
      <point x="964" y="642"/>
      <point x="964" y="504" type="curve" smooth="yes"/>
      <point x="964" y="394"/>
      <point x="1039" y="325"/>
    </contour>
    <contour>
      <point x="1155" y="383" type="curve" smooth="yes"/>
      <point x="1082" y="383"/>
      <point x="1040" y="424"/>
      <point x="1040" y="500" type="curve" smooth="yes"/>
      <point x="1042" y="606"/>
      <point x="1087" y="681"/>
      <point x="1177" y="681" type="curve" smooth="yes"/>
      <point x="1250" y="681"/>
      <point x="1291" y="639"/>
      <point x="1291" y="563" type="curve" smooth="yes"/>
      <point x="1290" y="457"/>
      <point x="1244" y="383"/>
    </contour>
  </outline>
</glyph>
<glyph name="trademark" format="2">
  <advance width="815"/>
  <unicode hex="2122"/>
  <outline>
    <contour>
      <point x="391" y="417" type="line"/>
      <point x="454" y="417" type="line"/>
      <point x="480" y="542" type="line"/>
      <point x="501" y="643" type="line"/>
      <point x="503" y="643" type="line"/>
      <point x="567" y="417" type="line"/>
      <point x="618" y="417" type="line"/>
      <point x="777" y="643" type="line"/>
      <point x="780" y="643" type="line"/>
      <point x="755" y="542" type="line"/>
      <point x="731" y="417" type="line"/>
      <point x="796" y="417" type="line"/>
      <point x="862" y="729" type="line"/>
      <point x="765" y="729" type="line"/>
      <point x="608" y="505" type="line"/>
      <point x="605" y="505" type="line"/>
      <point x="541" y="729" type="line"/>
      <point x="456" y="729" type="line"/>
    </contour>
    <contour>
      <point x="159" y="417" type="line"/>
      <point x="227" y="417" type="line"/>
      <point x="279" y="667" type="line"/>
      <point x="393" y="667" type="line"/>
      <point x="407" y="729" type="line"/>
      <point x="116" y="729" type="line"/>
      <point x="102" y="667" type="line"/>
      <point x="211" y="667" type="line"/>
    </contour>
  </outline>
</glyph>
<glyph name="estimated" format="2">
  <advance width="833"/>
  <unicode hex="212E"/>
  <outline>
    <contour>
      <point x="459" y="-9" type="curve" smooth="yes"/>
      <point x="563" y="-9"/>
      <point x="669" y="27"/>
      <point x="737" y="90" type="curve"/>
      <point x="717" y="122" type="line"/>
      <point x="656" y="67"/>
      <point x="559" y="29"/>
      <point x="459" y="29" type="curve" smooth="yes"/>
      <point x="363" y="29"/>
      <point x="291" y="56"/>
      <point x="234" y="110" type="curve"/>
      <point x="234" y="361" type="line"/>
      <point x="765" y="361" type="line"/>
      <point x="765" y="416" type="line" smooth="yes"/>
      <point x="765" y="609"/>
      <point x="634" y="737"/>
      <point x="438" y="737" type="curve" smooth="yes"/>
      <point x="230" y="737"/>
      <point x="92" y="588"/>
      <point x="92" y="364" type="curve" smooth="yes"/>
      <point x="92" y="140"/>
      <point x="239" y="-9"/>
    </contour>
    <contour>
      <point x="234" y="397" type="line"/>
      <point x="234" y="617" type="line"/>
      <point x="284" y="676"/>
      <point x="367" y="701"/>
      <point x="438" y="701" type="curve" smooth="yes"/>
      <point x="513" y="701"/>
      <point x="596" y="678"/>
      <point x="640" y="623" type="curve"/>
      <point x="640" y="397" type="line"/>
    </contour>
  </outline>
</glyph>
<glyph name="arrowup" format="2">
  <advance width="601"/>
  <unicode hex="2191"/>
  <outline>
    <contour>
      <point x="300" y="87" type="line"/>
      <point x="380" y="87" type="line"/>
      <point x="380" y="520" type="line"/>
      <point x="550" y="400" type="line"/>
      <point x="550" y="496" type="line"/>
      <point x="341" y="644" type="line"/>
      <point x="130" y="496" type="line"/>
      <point x="130" y="400" type="line"/>
      <point x="300" y="520" type="line"/>
    </contour>
  </outline>
</glyph>
<glyph name="leftRightArrow" format="2">
  <advance width="819"/>
  <unicode hex="2194"/>
  <outline>
    <contour>
      <point x="248" y="151" type="line"/>
      <point x="345" y="151" type="line"/>
      <point x="224" y="322" type="line"/>
      <point x="637" y="322" type="line"/>
      <point x="518" y="151" type="line"/>
      <point x="613" y="151" type="line"/>
      <point x="761" y="361" type="line"/>
      <point x="613" y="572" type="line"/>
      <point x="518" y="572" type="line"/>
      <point x="637" y="401" type="line"/>
      <point x="224" y="401" type="line"/>
      <point x="345" y="572" type="line"/>
      <point x="248" y="572" type="line"/>
      <point x="100" y="361" type="line"/>
    </contour>
  </outline>
</glyph>
<glyph name="emptyset" format="2">
  <advance width="802"/>
  <unicode hex="2205"/>
  <outline>
    <contour>
      <point x="697" y="559" type="line"/>
      <point x="130" y="214" type="line"/>
      <point x="142" y="171" type="line"/>
      <point x="716" y="521" type="line"/>
    </contour>
    <contour>
      <point x="423" y="-1" type="curve" smooth="yes"/>
      <point x="622" y="-1"/>
      <point x="784" y="150"/>
      <point x="784" y="366" type="curve" smooth="yes"/>
      <point x="784" y="579"/>
      <point x="622" y="730"/>
      <point x="423" y="730" type="curve" smooth="yes"/>
      <point x="224" y="730"/>
      <point x="62" y="579"/>
      <point x="62" y="366" type="curve" smooth="yes"/>
      <point x="62" y="150"/>
      <point x="224" y="-1"/>
    </contour>
    <contour>
      <point x="423" y="42" type="curve" smooth="yes"/>
      <point x="252" y="42"/>
      <point x="110" y="179"/>
      <point x="110" y="366" type="curve" smooth="yes"/>
      <point x="110" y="552"/>
      <point x="252" y="687"/>
      <point x="423" y="687" type="curve" smooth="yes"/>
      <point x="595" y="687"/>
      <point x="739" y="552"/>
      <point x="739" y="366" type="curve" smooth="yes"/>
      <point x="739" y="179"/>
      <point x="595" y="42"/>
    </contour>
  </outline>
</glyph>
<glyph name="product" format="2">
  <advance width="714"/>
  <unicode hex="220F"/>
  <outline>
    <contour>
      <point x="-15" y="-92" type="line"/>
      <point x="78" y="-92" type="line"/>
      <point x="233" y="636" type="line"/>
      <point x="641" y="636" type="line"/>
      <point x="485" y="-92" type="line"/>
      <point x="579" y="-92" type="line"/>
      <point x="753" y="729" type="line"/>
      <point x="159" y="729" type="line"/>
    </contour>
  </outline>
</glyph>
<glyph name="summation" format="2">
  <advance width="646"/>
  <unicode hex="2211"/>
  <outline>
    <contour>
      <point x="-45" y="-92" type="line"/>
      <point x="541" y="-92" type="line"/>
      <point x="560" y="-4" type="line"/>
      <point x="91" y="-4" type="line"/>
      <point x="92" y="1" type="line"/>
      <point x="478" y="318" type="line"/>
      <point x="228" y="636" type="line"/>
      <point x="229" y="641" type="line"/>
      <point x="697" y="641" type="line"/>
      <point x="715" y="729" type="line"/>
      <point x="129" y="729" type="line"/>
      <point x="109" y="633" type="line"/>
      <point x="352" y="324" type="line"/>
      <point x="350" y="314" type="line"/>
      <point x="-25" y="3" type="line"/>
    </contour>
  </outline>
</glyph>
<glyph name="minus" format="2">
  <advance width="721"/>
  <unicode hex="2212"/>
  <outline>
    <contour>
      <point x="114" y="320" type="line"/>
      <point x="610" y="320" type="line"/>
      <point x="628" y="401" type="line"/>
      <point x="132" y="401" type="line"/>
    </contour>
  </outline>
</glyph>
<glyph name="radical" format="2">
  <advance width="692"/>
  <unicode hex="221A"/>
  <outline>
    <contour>
      <point x="164" y="-92" type="line"/>
      <point x="258" y="-92" type="line"/>
      <point x="770" y="729" type="line"/>
      <point x="670" y="729" type="line"/>
      <point x="227" y="23" type="line"/>
      <point x="224" y="23" type="line"/>
      <point x="190" y="375" type="line"/>
      <point x="48" y="375" type="line"/>
      <point x="32" y="298" type="line"/>
      <point x="124" y="298" type="line"/>
    </contour>
  </outline>
</glyph>
<glyph name="infinity" format="2">
  <advance width="923"/>
  <unicode hex="221E"/>
  <outline>
    <contour>
      <point x="265" y="139" type="curve" smooth="yes"/>
      <point x="366" y="139"/>
      <point x="433" y="212"/>
      <point x="483" y="299" type="curve"/>
      <point x="536" y="207"/>
      <point x="602" y="139"/>
      <point x="701" y="139" type="curve" smooth="yes"/>
      <point x="827" y="139"/>
      <point x="903" y="241"/>
      <point x="903" y="363" type="curve" smooth="yes"/>
      <point x="903" y="490"/>
      <point x="827" y="591"/>
      <point x="701" y="591" type="curve" smooth="yes"/>
      <point x="597" y="591"/>
      <point x="533" y="515"/>
      <point x="483" y="431" type="curve"/>
      <point x="433" y="516"/>
      <point x="368" y="591"/>
      <point x="265" y="591" type="curve" smooth="yes"/>
      <point x="141" y="591"/>
      <point x="63" y="491"/>
      <point x="63" y="363" type="curve" smooth="yes"/>
      <point x="63" y="233"/>
      <point x="142" y="139"/>
    </contour>
    <contour>
      <point x="268" y="227" type="curve" smooth="yes"/>
      <point x="193" y="227"/>
      <point x="143" y="283"/>
      <point x="143" y="365" type="curve" smooth="yes"/>
      <point x="143" y="443"/>
      <point x="193" y="503"/>
      <point x="267" y="503" type="curve" smooth="yes"/>
      <point x="339" y="503"/>
      <point x="385" y="452"/>
      <point x="443" y="365" type="curve"/>
      <point x="385" y="273"/>
      <point x="335" y="227"/>
    </contour>
    <contour>
      <point x="698" y="227" type="curve" smooth="yes"/>
      <point x="625" y="227"/>
      <point x="582" y="277"/>
      <point x="523" y="365" type="curve"/>
      <point x="581" y="451"/>
      <point x="626" y="503"/>
      <point x="698" y="503" type="curve" smooth="yes"/>
      <point x="772" y="503"/>
      <point x="822" y="443"/>
      <point x="822" y="365" type="curve" smooth="yes"/>
      <point x="822" y="290"/>
      <point x="772" y="227"/>
    </contour>
  </outline>
</glyph>
<glyph name="integral" format="2">
  <advance width="474"/>
  <unicode hex="222B"/>
  <outline>
    <contour>
      <point x="-51" y="-92" type="line"/>
      <point x="125" y="-92" type="line" smooth="yes"/>
      <point x="184" y="-92"/>
      <point x="216" y="-53"/>
      <point x="228" y="-1" type="curve" smooth="yes"/>
      <point x="365" y="648" type="line"/>
      <point x="532" y="648" type="line"/>
      <point x="550" y="729" type="line"/>
      <point x="371" y="729" type="line" smooth="yes"/>
      <point x="321" y="729"/>
      <point x="283" y="693"/>
      <point x="271" y="636" type="curve" smooth="yes"/>
      <point x="133" y="-12" type="line"/>
      <point x="-35" y="-12" type="line"/>
    </contour>
  </outline>
</glyph>
<glyph name="approxequal" format="2">
  <advance width="721"/>
  <unicode hex="2248"/>
  <outline>
    <contour>
      <point x="181" y="389" type="curve"/>
      <point x="230" y="389" type="line"/>
      <point x="233" y="422"/>
      <point x="248" y="450"/>
      <point x="291" y="450" type="curve" smooth="yes"/>
      <point x="341" y="450"/>
      <point x="401" y="385"/>
      <point x="477" y="385" type="curve" smooth="yes"/>
      <point x="537" y="385"/>
      <point x="593" y="423"/>
      <point x="601" y="526" type="curve"/>
      <point x="552" y="526" type="line"/>
      <point x="548" y="490"/>
      <point x="532" y="463"/>
      <point x="489" y="463" type="curve" smooth="yes"/>
      <point x="435" y="463"/>
      <point x="376" y="529"/>
      <point x="304" y="529" type="curve" smooth="yes"/>
      <point x="241" y="529"/>
      <point x="188" y="485"/>
    </contour>
    <contour>
      <point x="142" y="206" type="curve"/>
      <point x="191" y="206" type="line"/>
      <point x="194" y="241"/>
      <point x="210" y="269"/>
      <point x="251" y="269" type="curve" smooth="yes"/>
      <point x="302" y="269"/>
      <point x="363" y="203"/>
      <point x="439" y="203" type="curve" smooth="yes"/>
      <point x="499" y="203"/>
      <point x="554" y="240"/>
      <point x="564" y="344" type="curve"/>
      <point x="515" y="344" type="line"/>
      <point x="510" y="312"/>
      <point x="497" y="281"/>
      <point x="451" y="281" type="curve" smooth="yes"/>
      <point x="397" y="281"/>
      <point x="336" y="345"/>
      <point x="265" y="345" type="curve" smooth="yes"/>
      <point x="202" y="345"/>
      <point x="148" y="302"/>
    </contour>
  </outline>
</glyph>
<glyph name="notequal" format="2">
  <advance width="721"/>
  <unicode hex="2260"/>
  <outline>
    <contour>
      <point x="145" y="110" type="line"/>
      <point x="233" y="110" type="line"/>
      <point x="619" y="611" type="line"/>
      <point x="530" y="611" type="line"/>
    </contour>
    <contour>
      <point x="101" y="214" type="line"/>
      <point x="599" y="214" type="line"/>
      <point x="616" y="296" type="line"/>
      <point x="118" y="296" type="line"/>
    </contour>
    <contour>
      <point x="148" y="434" type="line"/>
      <point x="646" y="434" type="line"/>
      <point x="663" y="516" type="line"/>
      <point x="165" y="516" type="line"/>
    </contour>
  </outline>
</glyph>
<glyph name="lessequal" format="2">
  <advance width="721"/>
  <unicode hex="2264"/>
  <outline>
    <contour>
      <point x="589" y="124" type="line"/>
      <point x="607" y="205" type="line"/>
      <point x="183" y="367" type="line"/>
      <point x="184" y="375" type="line"/>
      <point x="676" y="530" type="line"/>
      <point x="695" y="622" type="line"/>
      <point x="109" y="423" type="line"/>
      <point x="89" y="326" type="line"/>
    </contour>
    <contour>
      <point x="21" y="0" type="line"/>
      <point x="564" y="0" type="line"/>
      <point x="581" y="80" type="line"/>
      <point x="38" y="80" type="line"/>
    </contour>
  </outline>
</glyph>
<glyph name="greaterequal" format="2">
  <advance width="721"/>
  <unicode hex="2265"/>
  <outline>
    <contour>
      <point x="13" y="124" type="line"/>
      <point x="599" y="324" type="line"/>
      <point x="619" y="420" type="line"/>
      <point x="118" y="622" type="line"/>
      <point x="101" y="541" type="line"/>
      <point x="524" y="378" type="line"/>
      <point x="524" y="371" type="line"/>
      <point x="32" y="216" type="line"/>
    </contour>
    <contour>
      <point x="-13" y="0" type="line"/>
      <point x="530" y="0" type="line"/>
      <point x="547" y="80" type="line"/>
      <point x="4" y="80" type="line"/>
    </contour>
  </outline>
</glyph>
<glyph name="whiteCircle" format="2">
  <advance width="948"/>
  <unicode hex="25CB"/>
  <anchor x="495" y="365" name="center"/>
  <outline>
    <contour>
      <point x="476" y="-29" type="curve" smooth="yes"/>
      <point x="665" y="-29"/>
      <point x="830" y="66"/>
      <point x="892" y="230" type="curve" smooth="yes"/>
      <point x="905" y="267"/>
      <point x="913" y="317"/>
      <point x="916" y="364" type="curve" smooth="yes"/>
      <point x="929" y="597"/>
      <point x="758" y="754"/>
      <point x="513" y="754" type="curve" smooth="yes"/>
      <point x="326" y="754"/>
      <point x="159" y="659"/>
      <point x="98" y="495" type="curve" smooth="yes"/>
      <point x="85" y="458"/>
      <point x="77" y="408"/>
      <point x="74" y="361" type="curve" smooth="yes"/>
      <point x="61" y="128"/>
      <point x="232" y="-29"/>
    </contour>
    <contour>
      <point x="477" y="17" type="curve" smooth="yes"/>
      <point x="262" y="17"/>
      <point x="121" y="143"/>
      <point x="121" y="338" type="curve" smooth="yes"/>
      <point x="121" y="365"/>
      <point x="124" y="391"/>
      <point x="129" y="415" type="curve" smooth="yes"/>
      <point x="162" y="592"/>
      <point x="309" y="708"/>
      <point x="512" y="708" type="curve" smooth="yes"/>
      <point x="728" y="708"/>
      <point x="869" y="581"/>
      <point x="868" y="387" type="curve" smooth="yes"/>
      <point x="868" y="360"/>
      <point x="865" y="334"/>
      <point x="860" y="310" type="curve" smooth="yes"/>
      <point x="828" y="133"/>
      <point x="680" y="17"/>
    </contour>
  </outline>
</glyph>
<glyph name="blackCircle" format="2">
  <advance width="948"/>
  <unicode hex="25CF"/>
  <anchor x="495" y="365" name="center"/>
  <outline>
    <contour>
      <point x="476" y="-29" type="curve" smooth="yes"/>
      <point x="232" y="-29"/>
      <point x="61" y="128"/>
      <point x="74" y="361" type="curve" smooth="yes"/>
      <point x="77" y="408"/>
      <point x="85" y="458"/>
      <point x="98" y="495" type="curve" smooth="yes"/>
      <point x="159" y="659"/>
      <point x="326" y="754"/>
      <point x="513" y="754" type="curve" smooth="yes"/>
      <point x="758" y="754"/>
      <point x="929" y="597"/>
      <point x="916" y="364" type="curve" smooth="yes"/>
      <point x="913" y="317"/>
      <point x="905" y="267"/>
      <point x="892" y="230" type="curve" smooth="yes"/>
      <point x="830" y="66"/>
      <point x="665" y="-29"/>
    </contour>
  </outline>
</glyph>
<glyph name="whiteFrowningFace" format="2">
  <advance width="888"/>
  <unicode hex="2639"/>
  <outline>
    <contour>
      <point x="467" y="-10" type="curve" smooth="yes"/>
      <point x="690" y="-10"/>
      <point x="852" y="141"/>
      <point x="852" y="366" type="curve" smooth="yes"/>
      <point x="852" y="588"/>
      <point x="690" y="739"/>
      <point x="467" y="739" type="curve" smooth="yes"/>
      <point x="243" y="739"/>
      <point x="80" y="588"/>
      <point x="80" y="366" type="curve" smooth="yes"/>
      <point x="80" y="141"/>
      <point x="243" y="-10"/>
    </contour>
    <contour>
      <point x="277" y="185" type="line"/>
      <point x="310" y="239"/>
      <point x="379" y="278"/>
      <point x="467" y="278" type="curve" smooth="yes"/>
      <point x="555" y="278"/>
      <point x="623" y="239"/>
      <point x="656" y="185" type="curve"/>
      <point x="692" y="200" type="line"/>
      <point x="656" y="272"/>
      <point x="575" y="321"/>
      <point x="467" y="321" type="curve" smooth="yes"/>
      <point x="358" y="321"/>
      <point x="277" y="272"/>
      <point x="241" y="200" type="curve"/>
    </contour>
    <contour>
      <point x="467" y="34" type="curve" smooth="yes"/>
      <point x="269" y="34"/>
      <point x="128" y="168"/>
      <point x="128" y="366" type="curve" smooth="yes"/>
      <point x="128" y="563"/>
      <point x="269" y="695"/>
      <point x="467" y="695" type="curve" smooth="yes"/>
      <point x="662" y="695"/>
      <point x="804" y="563"/>
      <point x="804" y="366" type="curve" smooth="yes"/>
      <point x="804" y="168"/>
      <point x="663" y="34"/>
    </contour>
    <contour>
      <point x="379" y="392" type="curve" smooth="yes"/>
      <point x="400" y="392"/>
      <point x="411" y="406"/>
      <point x="411" y="429" type="curve" smooth="yes"/>
      <point x="411" y="488" type="line" smooth="yes"/>
      <point x="411" y="511"/>
      <point x="400" y="525"/>
      <point x="379" y="525" type="curve" smooth="yes"/>
      <point x="358" y="525"/>
      <point x="347" y="511"/>
      <point x="347" y="488" type="curve" smooth="yes"/>
      <point x="347" y="429" type="line" smooth="yes"/>
      <point x="347" y="406"/>
      <point x="358" y="392"/>
    </contour>
    <contour>
      <point x="553" y="392" type="curve" smooth="yes"/>
      <point x="575" y="392"/>
      <point x="586" y="406"/>
      <point x="586" y="429" type="curve" smooth="yes"/>
      <point x="586" y="488" type="line" smooth="yes"/>
      <point x="586" y="511"/>
      <point x="575" y="525"/>
      <point x="553" y="525" type="curve" smooth="yes"/>
      <point x="533" y="525"/>
      <point x="522" y="511"/>
      <point x="522" y="488" type="curve" smooth="yes"/>
      <point x="522" y="429" type="line" smooth="yes"/>
      <point x="522" y="406"/>
      <point x="533" y="392"/>
    </contour>
  </outline>
</glyph>
<glyph name="whiteSmilingFace" format="2">
  <advance width="888"/>
  <unicode hex="263A"/>
  <outline>
    <contour>
      <point x="467" y="-10" type="curve" smooth="yes"/>
      <point x="690" y="-10"/>
      <point x="852" y="141"/>
      <point x="852" y="366" type="curve" smooth="yes"/>
      <point x="852" y="588"/>
      <point x="690" y="739"/>
      <point x="467" y="739" type="curve" smooth="yes"/>
      <point x="243" y="739"/>
      <point x="80" y="588"/>
      <point x="80" y="366" type="curve" smooth="yes"/>
      <point x="80" y="141"/>
      <point x="243" y="-10"/>
    </contour>
    <contour>
      <point x="465" y="111" type="curve" smooth="yes"/>
      <point x="601" y="111"/>
      <point x="698" y="189"/>
      <point x="717" y="306" type="curve"/>
      <point x="750" y="306" type="line"/>
      <point x="750" y="328" type="line"/>
      <point x="632" y="328" type="line"/>
      <point x="632" y="306" type="line"/>
      <point x="670" y="306" type="line"/>
      <point x="655" y="215"/>
      <point x="573" y="155"/>
      <point x="465" y="155" type="curve" smooth="yes"/>
      <point x="357" y="155"/>
      <point x="276" y="217"/>
      <point x="261" y="306" type="curve"/>
      <point x="301" y="306" type="line"/>
      <point x="301" y="328" type="line"/>
      <point x="182" y="328" type="line"/>
      <point x="182" y="306" type="line"/>
      <point x="215" y="306" type="line"/>
      <point x="233" y="190"/>
      <point x="330" y="111"/>
    </contour>
    <contour>
      <point x="467" y="34" type="curve" smooth="yes"/>
      <point x="269" y="34"/>
      <point x="128" y="168"/>
      <point x="128" y="366" type="curve" smooth="yes"/>
      <point x="128" y="563"/>
      <point x="269" y="695"/>
      <point x="467" y="695" type="curve" smooth="yes"/>
      <point x="662" y="695"/>
      <point x="804" y="563"/>
      <point x="804" y="366" type="curve" smooth="yes"/>
      <point x="804" y="168"/>
      <point x="663" y="34"/>
    </contour>
    <contour>
      <point x="379" y="392" type="curve" smooth="yes"/>
      <point x="400" y="392"/>
      <point x="411" y="406"/>
      <point x="411" y="429" type="curve" smooth="yes"/>
      <point x="411" y="488" type="line" smooth="yes"/>
      <point x="411" y="511"/>
      <point x="400" y="525"/>
      <point x="379" y="525" type="curve" smooth="yes"/>
      <point x="358" y="525"/>
      <point x="347" y="511"/>
      <point x="347" y="488" type="curve" smooth="yes"/>
      <point x="347" y="429" type="line" smooth="yes"/>
      <point x="347" y="406"/>
      <point x="358" y="392"/>
    </contour>
    <contour>
      <point x="553" y="392" type="curve" smooth="yes"/>
      <point x="575" y="392"/>
      <point x="586" y="406"/>
      <point x="586" y="429" type="curve" smooth="yes"/>
      <point x="586" y="488" type="line" smooth="yes"/>
      <point x="586" y="511"/>
      <point x="575" y="525"/>
      <point x="553" y="525" type="curve" smooth="yes"/>
      <point x="533" y="525"/>
      <point x="522" y="511"/>
      <point x="522" y="488" type="curve" smooth="yes"/>
      <point x="522" y="429" type="line" smooth="yes"/>
      <point x="522" y="406"/>
      <point x="533" y="392"/>
    </contour>
  </outline>
</glyph>
<glyph name="checkmark" format="2">
  <advance width="797"/>
  <unicode hex="2713"/>
  <outline>
    <contour>
      <point x="292" y="112" type="line"/>
      <point x="794" y="551" type="line"/>
      <point x="747" y="612" type="line"/>
      <point x="299" y="226" type="line"/>
      <point x="142" y="431" type="line"/>
      <point x="88" y="378" type="line"/>
    </contour>
  </outline>
</glyph>
<glyph name="fl" format="2">
  <advance width="629"/>
  <unicode hex="FB02"/>
  <anchor x="314.5" y="0" name="caret_1"/>
  <outline>
    <contour>
      <point x="85" y="0" type="line"/>
      <point x="184" y="0" type="line"/>
      <point x="277" y="446" type="line"/>
      <point x="422" y="446" type="line"/>
      <point x="438" y="525" type="line"/>
      <point x="295" y="525" type="line"/>
      <point x="321" y="649" type="line"/>
      <point x="552" y="649" type="line"/>
      <point x="416" y="0" type="line"/>
      <point x="514" y="0" type="line"/>
      <point x="666" y="729" type="line"/>
      <point x="333" y="729" type="line" smooth="yes"/>
      <point x="277" y="729"/>
      <point x="234" y="710"/>
      <point x="221" y="647" type="curve" smooth="yes"/>
      <point x="196" y="525" type="line"/>
      <point x="82" y="525" type="line"/>
      <point x="66" y="446" type="line"/>
      <point x="179" y="446" type="line"/>
    </contour>
  </outline>
</glyph>
<glyph name="I.ss04" format="2">
  <advance width="243"/>
  <note>
I
</note>
  <anchor x="68" y="0" name="bottom"/>
  <anchor x="117" y="0" name="ogonek"/>
  <anchor x="220" y="729" name="top"/>
  <anchor x="98" y="729" name="topleft"/>
  <outline>
    <contour>
      <point x="18" y="0" type="line"/>
      <point x="117" y="0" type="line"/>
      <point x="270" y="729" type="line"/>
      <point x="169" y="729" type="line"/>
    </contour>
  </outline>
</glyph>
<glyph name="_AE.E" format="2">
  <advance width="725"/>
  <anchor x="257" y="0" name="#entry"/>
  <outline>
    <contour>
      <point x="139" y="642" type="line"/>
      <point x="763" y="642" type="line"/>
      <point x="781" y="729" type="line"/>
      <point x="139" y="729" type="line"/>
    </contour>
    <contour>
      <point x="257" y="0" type="line"/>
      <point x="627" y="0" type="line"/>
      <point x="645" y="87" type="line"/>
      <point x="257" y="87" type="line"/>
    </contour>
    <contour>
      <point x="220" y="332" type="line"/>
      <point x="542" y="332" type="line"/>
      <point x="560" y="414" type="line"/>
      <point x="220" y="414" type="line"/>
    </contour>
  </outline>
</glyph>
<glyph name="_Euro.bars" format="2">
  <advance width="645"/>
  <anchor x="554" y="0" name="_bottom"/>
  <outline>
    <contour>
      <point x="602" y="251" type="line"/>
      <point x="614" y="315" type="line"/>
      <point x="228" y="311" type="line"/>
      <point x="217" y="255" type="line"/>
    </contour>
    <contour>
      <point x="38" y="251" type="line"/>
      <point x="217" y="255" type="line"/>
      <point x="228" y="311" type="line"/>
      <point x="51" y="315" type="line"/>
    </contour>
    <contour>
      <point x="72" y="415" type="line"/>
      <point x="232" y="419" type="line"/>
      <point x="242" y="475" type="line"/>
      <point x="86" y="479" type="line"/>
    </contour>
    <contour>
      <point x="637" y="415" type="line"/>
      <point x="649" y="479" type="line"/>
      <point x="242" y="475" type="line"/>
      <point x="232" y="419" type="line"/>
    </contour>
  </outline>
</glyph>
<glyph name="_OE.O" format="2">
  <advance width="765"/>
  <anchor x="533" y="0" name="#exit"/>
  <outline>
    <contour>
      <point x="409" y="0" type="curve" smooth="yes"/>
      <point x="669" y="0" type="line"/>
      <point x="669" y="86" type="line"/>
      <point x="413" y="86" type="line" smooth="yes"/>
      <point x="238" y="86"/>
      <point x="143" y="185"/>
      <point x="178" y="363" type="curve" smooth="yes"/>
      <point x="189" y="419" type="line" smooth="yes"/>
      <point x="217" y="557"/>
      <point x="325" y="643"/>
      <point x="511" y="643" type="curve" smooth="yes"/>
      <point x="769" y="643" type="line"/>
      <point x="769" y="729" type="line"/>
      <point x="510" y="729" type="line" smooth="yes"/>
      <point x="283" y="729"/>
      <point x="113" y="617"/>
      <point x="77" y="409" type="curve" smooth="yes"/>
      <point x="73" y="393" type="line" smooth="yes"/>
      <point x="31" y="156"/>
      <point x="162" y="0"/>
    </contour>
  </outline>
</glyph>
<glyph name="_Stem.Uppercase" format="2">
  <advance width="311"/>
  <outline>
    <contour>
      <point x="76" y="0" type="line"/>
      <point x="177" y="0" type="line"/>
      <point x="304" y="729" type="line"/>
      <point x="205" y="729" type="line"/>
    </contour>
  </outline>
</glyph>
<glyph name="_bitcoin.bars" format="2">
  <advance width="349"/>
  <anchor x="164" y="0" name="_bottom"/>
  <outline>
    <contour>
      <point x="325" y="703" type="line"/>
      <point x="395" y="703" type="line"/>
      <point x="434" y="850" type="line"/>
      <point x="348" y="850" type="line"/>
    </contour>
    <contour>
      <point x="-41" y="-121" type="line"/>
      <point x="44" y="-121" type="line"/>
      <point x="66" y="24" type="line"/>
      <point x="-3" y="24" type="line"/>
    </contour>
    <contour>
      <point x="141" y="-121" type="line"/>
      <point x="227" y="-121" type="line"/>
      <point x="249" y="24" type="line"/>
      <point x="180" y="24" type="line"/>
    </contour>
    <contour>
      <point x="142" y="703" type="line"/>
      <point x="212" y="703" type="line"/>
      <point x="251" y="850" type="line"/>
      <point x="165" y="850" type="line"/>
    </contour>
  </outline>
</glyph>
<glyph name="_copyright.C" format="2">
  <advance width="588"/>
  <anchor x="318" y="365" name="_center"/>
  <outline>
    <contour>
      <point x="312" y="122" type="curve" smooth="yes"/>
      <point x="429" y="122"/>
      <point x="525" y="184"/>
      <point x="550" y="270" type="curve"/>
      <point x="474" y="270" type="line"/>
      <point x="452" y="221"/>
      <point x="392" y="186"/>
      <point x="315" y="186" type="curve" smooth="yes"/>
      <point x="199" y="186"/>
      <point x="123" y="253"/>
      <point x="146" y="373" type="curve" smooth="yes"/>
      <point x="153" y="410" type="line" smooth="yes"/>
      <point x="168" y="489"/>
      <point x="235" y="539"/>
      <point x="334" y="539" type="curve" smooth="yes"/>
      <point x="424" y="539"/>
      <point x="490" y="496"/>
      <point x="498" y="423" type="curve"/>
      <point x="574" y="423" type="line"/>
      <point x="560" y="532"/>
      <point x="466" y="603"/>
      <point x="334" y="603" type="curve" smooth="yes"/>
      <point x="196" y="603"/>
      <point x="95" y="527"/>
      <point x="71" y="407" type="curve" smooth="yes"/>
      <point x="66" y="382" type="line" smooth="yes"/>
      <point x="35" y="228"/>
      <point x="148" y="122"/>
    </contour>
  </outline>
</glyph>
<glyph name="_dollar.bar" format="2">
  <advance width="172"/>
  <anchor x="35" y="0" name="_bottom"/>
  <outline>
    <contour>
      <point x="-41" y="-121" type="line"/>
      <point x="50" y="-121" type="line"/>
      <point x="72" y="26" type="line"/>
      <point x="-1" y="26" type="line"/>
    </contour>
    <contour>
      <point x="144" y="711" type="line"/>
      <point x="217" y="711" type="line"/>
      <point x="256" y="850" type="line"/>
      <point x="165" y="850" type="line"/>
    </contour>
  </outline>
</glyph>
<glyph name=".notdef" format="2">
  <advance width="881"/>
  <outline>
    <contour>
      <point x="460" y="738" type="curve" smooth="yes"/>
      <point x="248" y="738"/>
      <point x="78" y="567"/>
      <point x="78" y="356" type="curve" smooth="yes"/>
      <point x="78" y="186"/>
      <point x="186" y="41"/>
      <point x="340" y="-8" type="curve"/>
      <point x="354" y="-12"/>
      <point x="365" y="-5"/>
      <point x="365" y="10" type="curve" smooth="yes"/>
      <point x="365" y="19"/>
      <point x="365" y="48"/>
      <point x="365" y="80" type="curve"/>
      <point x="259" y="58"/>
      <point x="235" y="126"/>
      <point x="235" y="126" type="curve"/>
      <point x="219" y="171"/>
      <point x="195" y="182"/>
      <point x="195" y="182" type="curve"/>
      <point x="160" y="206"/>
      <point x="196" y="206"/>
      <point x="196" y="206" type="curve"/>
      <point x="234" y="203"/>
      <point x="256" y="165"/>
      <point x="256" y="165" type="curve"/>
      <point x="288" y="107"/>
      <point x="344" y="125"/>
      <point x="365" y="134" type="curve"/>
      <point x="369" y="158"/>
      <point x="380" y="176"/>
      <point x="391" y="186" type="curve"/>
      <point x="305" y="196"/>
      <point x="216" y="228"/>
      <point x="216" y="376" type="curve" smooth="yes"/>
      <point x="216" y="416"/>
      <point x="231" y="451"/>
      <point x="256" y="477" type="curve"/>
      <point x="252" y="487"/>
      <point x="238" y="526"/>
      <point x="260" y="579" type="curve"/>
      <point x="260" y="579"/>
      <point x="291" y="590"/>
      <point x="364" y="539" type="curve"/>
      <point x="396" y="549"/>
      <point x="428" y="553"/>
      <point x="460" y="553" type="curve" smooth="yes"/>
      <point x="493" y="553"/>
      <point x="525" y="549"/>
      <point x="557" y="539" type="curve"/>
      <point x="630" y="590"/>
      <point x="661" y="579"/>
      <point x="661" y="579" type="curve"/>
      <point x="683" y="526"/>
      <point x="669" y="487"/>
      <point x="665" y="477" type="curve"/>
      <point x="690" y="451"/>
      <point x="705" y="416"/>
      <point x="705" y="376" type="curve" smooth="yes"/>
      <point x="705" y="226"/>
      <point x="616" y="196"/>
      <point x="530" y="186" type="curve"/>
      <point x="543" y="175"/>
      <point x="556" y="150"/>
      <point x="556" y="115" type="curve" smooth="yes"/>
      <point x="556" y="65"/>
      <point x="556" y="21"/>
      <point x="556" y="10" type="curve" smooth="yes"/>
      <point x="556" y="-5"/>
      <point x="567" y="-12"/>
      <point x="583" y="-8" type="curve"/>
      <point x="735" y="41"/>
      <point x="843" y="186"/>
      <point x="843" y="356" type="curve" smooth="yes"/>
      <point x="843" y="567"/>
      <point x="673" y="738"/>
    </contour>
    <contour>
      <point x="224" y="189" type="line"/>
      <point x="223" y="186"/>
      <point x="219" y="186"/>
      <point x="216" y="187" type="curve"/>
      <point x="213" y="189"/>
      <point x="212" y="190"/>
      <point x="213" y="192" type="curve"/>
      <point x="213" y="194"/>
      <point x="216" y="196"/>
      <point x="219" y="192" type="curve"/>
      <point x="223" y="192"/>
      <point x="224" y="190"/>
      <point x="224" y="189" type="curve"/>
    </contour>
    <contour>
      <point x="237" y="171" type="line"/>
      <point x="235" y="168"/>
      <point x="233" y="171"/>
      <point x="230" y="172" type="curve"/>
      <point x="227" y="175"/>
      <point x="227" y="179"/>
      <point x="228" y="180" type="curve"/>
      <point x="231" y="182"/>
      <point x="234" y="182"/>
      <point x="237" y="179" type="curve"/>
      <point x="238" y="176"/>
      <point x="239" y="172"/>
      <point x="237" y="171" type="curve"/>
    </contour>
    <contour>
      <point x="255" y="148" type="line"/>
      <point x="252" y="146"/>
      <point x="246" y="148"/>
      <point x="244" y="151" type="curve"/>
      <point x="242" y="154"/>
      <point x="242" y="160"/>
      <point x="244" y="161" type="curve"/>
      <point x="246" y="162"/>
      <point x="252" y="161"/>
      <point x="255" y="158" type="curve"/>
      <point x="256" y="154"/>
      <point x="256" y="150"/>
      <point x="255" y="148" type="curve"/>
    </contour>
    <contour>
      <point x="274" y="127" type="line"/>
      <point x="272" y="125"/>
      <point x="267" y="126"/>
      <point x="265" y="129" type="curve"/>
      <point x="262" y="132"/>
      <point x="260" y="136"/>
      <point x="262" y="139" type="curve"/>
      <point x="265" y="141"/>
      <point x="269" y="140"/>
      <point x="272" y="137" type="curve"/>
      <point x="274" y="134"/>
      <point x="276" y="129"/>
      <point x="274" y="127" type="curve"/>
    </contour>
    <contour>
      <point x="302" y="115" type="line"/>
      <point x="301" y="112"/>
      <point x="297" y="111"/>
      <point x="292" y="112" type="curve"/>
      <point x="288" y="114"/>
      <point x="287" y="116"/>
      <point x="287" y="120" type="curve"/>
      <point x="288" y="123"/>
      <point x="291" y="125"/>
      <point x="297" y="123" type="curve"/>
      <point x="299" y="122"/>
      <point x="302" y="118"/>
      <point x="302" y="115" type="curve"/>
    </contour>
    <contour>
      <point x="333" y="114" type="line"/>
      <point x="333" y="111"/>
      <point x="330" y="107"/>
      <point x="326" y="105" type="curve"/>
      <point x="322" y="105"/>
      <point x="319" y="111"/>
      <point x="319" y="114" type="curve"/>
      <point x="319" y="116"/>
      <point x="322" y="118"/>
      <point x="326" y="118" type="curve"/>
      <point x="330" y="118"/>
      <point x="333" y="116"/>
      <point x="333" y="114" type="curve"/>
    </contour>
    <contour>
      <point x="362" y="118" type="line"/>
      <point x="364" y="115"/>
      <point x="359" y="112"/>
      <point x="355" y="111" type="curve"/>
      <point x="351" y="111"/>
      <point x="347" y="112"/>
      <point x="347" y="115" type="curve"/>
      <point x="345" y="118"/>
      <point x="348" y="122"/>
      <point x="354" y="122" type="curve"/>
      <point x="358" y="123"/>
      <point x="362" y="120"/>
      <point x="362" y="118" type="curve"/>
    </contour>
  </outline>
</glyph>
<glyph name="_published.P" format="2">
  <advance width="496"/>
  <anchor x="246" y="365" name="_center"/>
  <outline>
    <contour>
      <point x="17" y="152" type="line"/>
      <point x="94" y="152" type="line"/>
      <point x="170" y="519" type="line"/>
      <point x="330" y="519" type="line" smooth="yes"/>
      <point x="383" y="519"/>
      <point x="417" y="501"/>
      <point x="417" y="449" type="curve" smooth="yes"/>
      <point x="417" y="392"/>
      <point x="374" y="357"/>
      <point x="304" y="357" type="curve" smooth="yes"/>
      <point x="127" y="357" type="line"/>
      <point x="116" y="303" type="line"/>
      <point x="310" y="303" type="line" smooth="yes"/>
      <point x="420" y="303"/>
      <point x="493" y="361"/>
      <point x="493" y="454" type="curve" smooth="yes"/>
      <point x="493" y="527"/>
      <point x="442" y="579"/>
      <point x="353" y="579" type="curve" smooth="yes"/>
      <point x="107" y="579" type="line"/>
    </contour>
  </outline>
</glyph>
<glyph name="_tail.Q" format="2">
  <advance width="413"/>
  <anchor x="29" y="0" name="_bottom"/>
  <outline>
    <contour>
      <point x="21" y="-170" type="curve" smooth="yes"/>
      <point x="281" y="-170" type="line"/>
      <point x="296" y="-93" type="line"/>
      <point x="52" y="-93" type="line"/>
      <point x="74" y="14" type="line"/>
      <point x="-13" y="14" type="line"/>
      <point x="-37" y="-106" type="line" smooth="yes"/>
      <point x="-44" y="-145"/>
      <point x="-22" y="-170"/>
    </contour>
  </outline>
</glyph>
<glyph name="_tail.Q.ss01" format="2">
  <advance width="496"/>
  <anchor x="-63" y="1" name="_bottom"/>
  <outline>
    <contour>
      <point x="393" y="-30" type="line"/>
      <point x="412" y="54" type="line"/>
      <point x="50" y="311" type="line"/>
      <point x="32" y="227" type="line"/>
    </contour>
  </outline>
</glyph>
<glyph name="_yen.bars" format="2">
  <advance width="571"/>
  <anchor x="224" y="0" name="_bottom"/>
  <outline>
    <contour>
      <point x="47" y="293" type="line"/>
      <point x="537" y="293" type="line"/>
      <point x="552" y="363" type="line"/>
      <point x="61" y="363" type="line"/>
    </contour>
    <contour>
      <point x="13" y="132" type="line"/>
      <point x="503" y="132" type="line"/>
      <point x="517" y="199" type="line"/>
      <point x="27" y="199" type="line"/>
    </contour>
  </outline>
</glyph>
